<?xml version="1.0" encoding="utf-8"?>
<!-- Generator: Adobe Illustrator 24.0.0, SVG Export Plug-In . SVG Version: 6.00 Build 0)  -->
<svg version="1.1" id="Layer_1" xmlns="http://www.w3.org/2000/svg" xmlns:xlink="http://www.w3.org/1999/xlink" x="0px" y="0px"
	 viewBox="0 0 54.2 23.2" style="enable-background:new 0 0 54.2 23.2;" xml:space="preserve">
<style type="text/css">
	.st0{fill:#62D1BC;}
</style>
<g>
	<path class="st0" d="M40.3,5.7C36.7,4.7,32.5,4,27.9,4c-2.9,0-5.5,0.2-7.7,0.6l-6.8-4.7H-0.1l5.8,6.2h8.4C9.5,7.7,7.3,9.6,7.3,9.6
		v3.8c0,0,2.3,1.9,6.9,3.5H5.6l-5.8,6.2h13.5l6.8-4.7c2.3,0.4,4.8,0.6,7.7,0.6c4.5,0,8.7-0.7,12.4-1.7c-1.2-1.8-1.9-3.7-1.9-5.9
		C38.4,9.4,39.2,7.5,40.3,5.7z"/>
	<path class="st0" d="M43.8,6.7c-1.3,1.6-2,3.2-2,4.8c0,1.6,0.7,3.2,2,4.8c6.4-2.2,10.4-4.8,10.4-4.8S50.2,8.9,43.8,6.7z"/>
</g>
</svg>
