<?xml version="1.0" encoding="utf-8"?>
<!-- Generator: Adobe Illustrator 24.0.0, SVG Export Plug-In . SVG Version: 6.00 Build 0)  -->
<svg version="1.1" id="Layer_1" xmlns="http://www.w3.org/2000/svg" xmlns:xlink="http://www.w3.org/1999/xlink" x="0px" y="0px"
	 viewBox="0 0 32.7 32.5" style="enable-background:new 0 0 32.7 32.5;" xml:space="preserve">
<style type="text/css">
	.st0{fill:#62D1BC;}
</style>
<path class="st0" d="M2.9,32.4h12.5V18.5H2.9V32.4z M31,8.8h-7.3c0.5-0.3,1-0.5,1.4-0.8c1.6-1.1,2.4-2.6,2.4-4
	c0-1.2-0.6-2.2-1.4-2.9S24.2,0,23.1,0c-1.2,0-2.4,0.4-3.3,1.1c-1.5,1-2.6,2.5-3.4,4.1c0,0.1-0.1,0.2-0.1,0.2c-0.3-0.6-0.6-1.2-1-1.8
	c-0.7-1-1.5-1.9-2.5-2.5S10.7,0,9.5,0S7.2,0.5,6.3,1.3C5.5,2.1,4.9,3.2,4.9,4.4c0,0.7,0.2,1.5,0.6,2.2c0.6,0.9,1.4,1.6,2.6,2.2H1.5
	c-0.9,0-1.6,0.7-1.6,1.6v5.9h15.4V8.8h1.9v7.5h15.4v-5.9C32.6,9.5,31.9,8.8,31,8.8 M8.7,6.5c-0.6-0.4-1-0.8-1.2-1.1
	C7.3,5,7.2,4.7,7.2,4.4c0-0.5,0.2-1,0.7-1.5c0.4-0.4,1-0.7,1.6-0.7l0,0c0.7,0,1.4,0.2,2,0.7c1,0.7,2,1.8,2.6,3.2
	c0.3,0.7,0.6,1.4,0.8,2.1C11.8,7.9,9.8,7.2,8.7,6.5 M19.2,4.9c0.6-0.8,1.2-1.5,1.9-1.9c0.7-0.5,1.4-0.7,2-0.7l0,0
	c0.6,0,1.1,0.2,1.5,0.5s0.6,0.7,0.6,1.2s-0.3,1.3-1.5,2.1c-1.1,0.8-3.1,1.7-6.1,2.3C17.9,7.2,18.5,5.9,19.2,4.9 M17.2,32.4h12.5
	V18.5H17.2V32.4z"/>
</svg>
