<?xml version="1.0" encoding="utf-8"?>
<!-- Generator: Adobe Illustrator 24.0.0, SVG Export Plug-In . SVG Version: 6.00 Build 0)  -->
<svg version="1.1" id="Layer_1" xmlns="http://www.w3.org/2000/svg" xmlns:xlink="http://www.w3.org/1999/xlink" x="0px" y="0px"
	 viewBox="0 0 23.5 20.2" style="enable-background:new 0 0 23.5 20.2;" xml:space="preserve">
<style type="text/css">
	.st0{fill:#46C1AE;}
</style>
<g id="twitter">
	<g>
		<path class="st0" d="M23.4,4.1c-0.2-0.4-0.9-0.3-1.4-0.4h-1.1c0.1-0.4,0.3-0.6,0.5-1c0.1-0.4,0.3-0.7,0.2-1.3
			c0.1-0.2,0.2-0.4,0.3-0.6C22,0.7,22.1,0.3,22,0.1s-0.3-0.2-0.6-0.2c-0.1,0-0.2,0.1-0.2,0.1c-0.4,0.4-0.8,1-1.3,1.4h-0.1
			c-0.1,0,0,0-0.1,0.1s-0.3,0.2-0.4,0.2c-0.3,0.2-0.5,0.4-0.9,0.5c-0.5-0.2-1.2-0.3-1.9-0.4c-1.2,0.1-2.3,0.2-3,0.7
			c-0.9,0.3-1.5,1-2.1,1.6c0,0.3-0.3,0.4-0.4,0.7c0,0,0,0.1-0.1,0.1c0,0.2-0.1,0.3-0.1,0.5c0,0.1,0.2,0.4,0,0.5
			c-0.8-0.1-1.5-0.6-2.1-1C8,4.5,7.2,4.3,6.6,3.8C5.9,3.5,5.3,3,4.8,2.5C4.6,2.2,4.3,2,4.1,1.6C3.7,1.4,3.9,0.7,3.4,0.7
			C3.1,0.7,3.1,0.9,3,1.1C2.9,1.3,2.6,1.3,2.6,1.6c0,0,0,0.1-0.1,0.1C2.3,2.8,2,3.7,2,5c0.1,0.4,0.3,0.7,0.6,1
			C2.2,6.1,1.9,6.2,1.7,6.5C1.6,7.6,2.1,8.1,2.4,8.8c0.1,0.4,0.4,0.7,0.6,1c0,0.2,0.2,0.3,0.3,0.4c0,0.1,0.1,0.1,0.1,0.2
			s0.3,0.2,0.1,0.2c-0.4,0.1-1,0.1-1.3,0.4c-0.1,0.3-0.1,0.8,0,1.1c0,0.2,0.3,0.3,0.3,0.5C3,13,3.6,13.3,4.1,13.7
			C4.7,13.9,5.3,14,6,14.1c-0.1,0.3-0.3,0.6-0.6,0.7c-0.8,0.4-1.8,0.5-2.7,0.7c-0.6,0-1,0.2-1.6,0.2c-0.3,0.1-0.9,0.1-1.1,0.2
			C-0.1,16-0.1,16-0.2,16.1c-0.1,0.4,0.1,0.7,0.4,0.9c0,0.3,0.2,0.3,0.4,0.4c0.1,0.2,0.3,0.3,0.4,0.4c0.5,0.5,1.3,0.8,1.9,1.1
			c0.8,0.2,1.6,0.4,2.5,0.5s1.9,0.1,2.8,0.2h1c0.5,0.1,1.2,0.1,1.9,0.1c0.1-0.1,0.3-0.1,0.5-0.1c0.5-0.3,1.2-0.4,1.6-0.7
			c0.6-0.2,1-0.6,1.6-0.9c0.9-0.8,1.9-1.3,2.5-2.4c0.2-0.2,0.4-0.4,0.4-0.7c0.3-0.2,0.4-0.5,0.6-0.7c0.4-0.4,0.7-0.9,1-1.4
			s0.6-1.1,0.9-1.6c0-0.4,0.3-0.5,0.3-0.9c0.2-0.2,0.2-0.7,0.4-0.9c0-0.3,0-0.4,0.1-0.6c0-1.3,0-2.4-0.3-3.4
			c0.6-0.2,1.2-0.3,1.6-0.6C23.1,5.1,23.6,4.7,23.4,4.1z M20,8.1c-0.2,0.9-0.6,1.4-1,2c0.1,0.4-0.1,0.5-0.1,0.9
			c-0.2,0.3-0.3,0.7-0.4,1c-0.2,0.3-0.3,0.6-0.5,0.9c-0.4,0.5-0.8,1.1-1.2,1.6c-0.4,0.6-0.9,1-1.3,1.5s-0.9,0.9-1.4,1.3
			c-0.5,0.2-0.9,0.4-1.3,0.7c-0.2,0.1-0.5,0.2-0.7,0.3c-0.2,0.1-0.5,0.1-0.7,0.3c-1.1,0.1-2.3,0.2-3.6,0.1c-1-0.1-2.1-0.2-3-0.4
			c-0.9-0.2-1.5-0.7-2.3-1c0.2-0.2,0.6-0.2,1-0.2c0-0.2,0.4,0,0.4-0.1c0.3,0.1,0.3-0.1,0.5-0.1c0.6-0.2,1.2-0.3,1.7-0.6
			c0.3-0.1,0.4-0.4,0.7-0.6c0-0.2,0.1-0.3,0.2-0.4c0-0.3,0.2-0.4,0.1-0.8c0.1-0.2,0.3-0.3,0.3-0.7c-0.1-0.1-0.1-0.3-0.3-0.4
			c0-0.2-0.4-0.1-0.4-0.2c-0.3,0-0.4,0-0.6-0.1c-0.2,0-0.5,0.1-0.5-0.1c-0.8,0-1.3-0.4-1.9-0.7c0.4-0.3,1-0.4,1.3-0.7
			c0.5-0.1,1.1-0.1,1.1-0.7c0-0.7-0.8-0.7-1.3-0.8C4,9.4,3.6,8.4,3,7.6c0.2-0.2,0.6-0.2,0.7-0.4c0.5,0.1,0.5-0.3,0.7-0.5
			c0-0.5-0.3-0.6-0.6-0.8S3.3,5.4,3.1,5.2c0-0.8,0-1.7,0.1-2.4c0.1,0,0.1,0,0.1,0.1c0.2,0.4,0.6,0.8,0.8,1.2C4.6,4.5,5,5,5.7,5.2
			c0.5,0.4,1.1,0.6,1.6,1C7.9,6.5,8.5,6.8,9,7.1c0.7,0.2,1.1,0.7,2,0.6c0.2-0.1,0.4-0.2,0.6-0.3c0.3-0.5-0.1-1.1,0.1-1.6
			c0.3-0.7,0.8-1,1.3-1.5c0.3-0.2,0.6-0.3,0.8-0.5c0.3-0.1,0.7-0.2,1-0.4c0.4,0,0.7-0.1,1-0.1h1.3c0.2,0.1,0.5,0.1,0.7,0.1
			c0.2,0.1,0.4,0.3,0.7,0.4c0.8,0.7,1.3,1.7,1.4,3C19.9,7.1,20,7.5,20,8.1z M20.3,2.5c-0.1,0.3-0.2,0.7-0.6,0.8
			c0-0.1-0.1-0.1-0.1-0.2c0-0.2,0.2-0.2,0.3-0.3C20,2.7,20.1,2.5,20.3,2.5C20.3,2.4,20.4,2.5,20.3,2.5z M14.8,5.5
			c0.2,0.1,0.3,0.3,0.5,0.4c0.1,0.2,0.3,0.3,0.6,0.4c0-0.2,0.3,0,0.4-0.2c0.2,0,0.2-0.2,0.3-0.3c0-0.5-0.1-1-0.4-1.3
			C15.5,4,14.5,4.5,14.8,5.5z"/>
	</g>
</g>
</svg>
