<?xml version="1.0" encoding="utf-8"?>
<!-- Generator: Adobe Illustrator 24.0.2, SVG Export Plug-In . SVG Version: 6.00 Build 0)  -->
<svg version="1.1" id="Слой_1" xmlns="http://www.w3.org/2000/svg" xmlns:xlink="http://www.w3.org/1999/xlink" x="0px" y="0px"
	 viewBox="0 0 84 53" style="enable-background:new 0 0 84 53;" xml:space="preserve">
<style type="text/css">
	.st0{fill-rule:evenodd;clip-rule:evenodd;fill:#004389;}
</style>
<path id="Фигура_39" class="st0" d="M15.5,0c2,1.1,3.9,2.3,5.9,3.4c0.2,0.1,0.3,0.2,0.5,0.4c0.6,0.4,0.7,1.2,0.4,1.8
	C22,6.1,21.7,6.5,21.4,7c0,0,0,0.1,0,0.1c1.6,1.2,3.3,2,5.2,2.4c1.6,0.2,3.3,0.5,4.9,0.8c0.1,0,0.3,0,0.4-0.1c1.6-1.7,3.8-2,5.9-2.2
	c3.7-0.5,7.5-0.7,11.3-0.3c2.1,0.2,4.2,0.8,6.3,1.1c1.4,0.4,2.9,0.5,4.3,0.4c0.4-0.1,0.8-0.1,1.1-0.2c0.3-0.1,0.5,0,0.7,0.3
	c0,0,0,0,0,0c3.2,5.5,6.3,10.9,9.5,16.4c0.4,0.7,0.8,1.3,1.2,2c0.1,0.1,0.1,0.4,0,0.5c0,0,0,0-0.1,0c-1.3,1.1-2.6,2.2-3.9,3.3
	c-0.1,0-0.1,0.1-0.2,0.2c0.2,0.2,0.3,0.5,0.4,0.7c1.5,2.2,0.9,5.1-1.2,6.6c-0.6,0.4-1.2,0.6-1.9,0.8c-0.4,0.1-0.8,0.1-1.2,0.1
	c-0.3,0-0.5,0.2-0.6,0.5c-0.4,2.3-2.3,4-4.7,4.1c-0.4,0-0.7,0.2-0.8,0.6c-0.3,2.2-2.2,3.8-4.4,3.9c-0.3,0-0.5,0-0.8,0.1
	c-0.2,0-0.4,0.1-0.6,0.2c-0.4,0.3-0.7,0.6-1,1c-1.8,2.1-4.6,3-7.3,2.4c-2.5-0.4-5-1.1-7.4-2c-0.3-0.2-0.6-0.1-0.8,0.2c0,0,0,0,0,0
	c-0.2,0.3-0.4,0.5-0.6,0.8c-0.8,1.1-2.1,1.6-3.3,1.3c-1.5-0.3-2.5-1.5-2.6-3c0-0.5,0.1-1.1,0.1-1.7c-0.3,0.2-0.5,0.4-0.7,0.6
	c-0.9,0.9-2.2,1.1-3.4,0.6c-1.2-0.5-2.1-1.7-2.1-3c0-0.4,0-0.9,0.1-1.3c-1.6,1-3.3,1.2-4.6-0.3c-1.3-1.4-1.2-3-0.2-4.8
	c-0.3,0.1-0.4,0.1-0.6,0.2c-1.4,0.5-3,0-3.8-1.3c-0.9-1.2-0.9-2.9,0.1-4c0.3-0.3,0.3-0.7,0-1c-0.9-1.3-1.6-2.7-2.6-3.9
	c-0.8-0.8-1.6-1.6-2.5-2.2c-0.3,0.5-0.4,0.8-0.7,1.2c-0.3,0.5-0.6,0.9-0.9,1.3c-0.3,0.4-0.8,0.5-1.2,0.2c0,0,0,0,0,0
	c-2-1.2-3.9-2.3-5.9-3.5C0.4,26.6,0.2,26.3,0,26v-0.4c0,0,0.1-0.1,0.1-0.1c1.2-2.1,2.3-4.2,3.5-6.3c3.5-6.1,7-12.2,10.6-18.3
	c0.2-0.4,0.6-0.8,1-0.9L15.5,0L15.5,0z M49.7,48.3c-0.8-0.4-1.5-0.8-2.3-1.2c-1.9-1-3.9-1.9-5.8-2.9c-0.2-0.1-0.5-0.3-0.6-0.5
	c-0.2-0.5-0.1-1.1,0.2-1.5c0.3-0.3,0.8-0.4,1.2-0.2c0.8,0.3,1.6,0.6,2.3,0.9c2.1,1,4.2,2,6.4,2.9c1,0.5,2.1,0.5,3.2,0.2
	c0.7-0.3,1.2-0.9,1.3-1.7c0.1-0.6-0.4-0.7-0.8-1c-0.1-0.1-0.3-0.2-0.5-0.3c-2-1.1-4-2.3-6-3.4c-1.1-0.7-2.2-1.3-3.3-2
	c-0.5-0.3-0.7-1-0.4-1.5c0,0,0,0,0-0.1c0.2-0.5,0.9-0.8,1.4-0.5c0,0,0,0,0.1,0c0.3,0.1,0.6,0.3,0.8,0.4c2.5,1.4,5.1,2.8,7.6,4.2
	c0.9,0.5,1.8,1,2.8,1.4c1.3,0.6,2.8,0,3.4-1.2c0.2-0.4,0.3-0.8,0.2-1.1c0-0.2-0.1-0.5-0.3-0.6c-1-0.6-2-1.1-3-1.7
	c-3-1.8-5.9-3.5-8.8-5.3c-0.6-0.4-0.9-1.1-0.5-1.8c0.4-0.6,1.2-0.7,1.8-0.4c2.6,1.5,5.1,3,7.7,4.4c1.7,1,3.5,1.9,5.2,2.9
	c0.5,0.3,1.2,0.4,1.8,0.3c1.2-0.1,2.4-2.1,1.4-3.3c-0.3-0.3-0.6-0.7-1-1c-2.1-1.6-4.2-3.3-6.4-4.9c-5.4-4-11.1-7.4-17.1-10.4
	c-1-0.5-2-0.8-3.1-0.9c-1-0.3-2.1,0.2-2.5,1.2c-0.1,0.1-0.2,0.3-0.3,0.4c-1.8,2.3-4.4,3.8-7.2,4.3c-0.7,0.1-1.3,0.1-2,0
	c-0.8-0.1-1.3-0.9-1.2-1.7c0-0.1,0-0.1,0-0.2c0.1-0.7,0.4-1.4,0.7-2.1c0.9-1.4,1.8-2.8,2.8-4.2c0.3-0.4,0.5-0.8,0.8-1.2
	c0.2-0.3,0.1-0.5-0.3-0.5c-0.5,0-1-0.1-1.5-0.2c-1.9-0.2-3.8-0.7-5.5-1.6c-0.6-0.4-1.2-0.7-1.9-1.1C20,9.5,20,9.5,19.7,10
	c-2.9,5-5.7,9.9-8.6,14.9c-0.2,0.2-0.2,0.6,0.1,0.7c0,0,0,0,0,0c0.6,0.5,1.2,1.1,1.8,1.5c0.8,0.6,1.5,1.5,2,2.4
	c0.4,0.6,0.7,1.3,1.1,1.9c0.3,0.5,0.4,0.5,0.9,0.2c1.1-0.9,2.6-1,3.8-0.2c1.2,0.8,1.8,2.3,1.5,3.7c0,0.1-0.1,0.3-0.1,0.5
	c0.4-0.4,0.9-0.9,1.3-1.4c0.8-0.9,1.6-1.8,2.4-2.6c0.5-0.5,1.2-0.8,1.9-0.8c1.9,0.1,3.4,1.7,3.3,3.6c0,0.5-0.2,1-0.4,1.4
	c-0.1,0.3-0.3,0.5-0.4,0.9c0.2-0.1,0.4-0.1,0.5-0.2c1.1-0.4,2.3-0.2,3.3,0.5c1.3,1.1,1.6,3,0.7,4.5c-0.3,0.4-0.5,0.8-0.8,1.2
	c0.5-0.2,1-0.3,1.5-0.4c1.3-0.2,2.6,0.5,3.2,1.7c0.6,1.1,0.6,2.5-0.1,3.6c-0.3,0.6-0.4,0.6,0.3,0.8c1.2,0.4,2.3,0.7,3.5,1
	c1.3,0.3,2.6,0.5,4,0.5C47.6,50,48.8,49.4,49.7,48.3L49.7,48.3z M68.8,0c0.4,0.1,0.7,0.4,0.9,0.8c4.6,8.1,9.3,16.2,14,24.3
	c0.5,0.9,0.4,1.3-0.5,1.8c-1.9,1.1-3.7,2.2-5.6,3.3c-0.7,0.4-1,0.4-1.5-0.3c-0.6-0.8-1.2-1.7-1.7-2.6C70.3,20.1,66.2,13,62.1,5.8
	c-0.1-0.2-0.2-0.4-0.3-0.6c-0.3-0.4-0.2-1,0.2-1.3c0,0,0.1-0.1,0.2-0.1c0.5-0.4,1-0.7,1.5-1c1.6-0.9,3.3-1.9,5-2.8L68.8,0L68.8,0z"
	/>
</svg>
