<?xml version="1.0" encoding="utf-8"?>
<!-- Generator: Adobe Illustrator 24.0.2, SVG Export Plug-In . SVG Version: 6.00 Build 0)  -->
<svg version="1.1" id="Слой_1" xmlns="http://www.w3.org/2000/svg" xmlns:xlink="http://www.w3.org/1999/xlink" x="0px" y="0px"
	 viewBox="0 0 67 55" style="enable-background:new 0 0 67 55;" xml:space="preserve">
<style type="text/css">
	.st0{fill-rule:evenodd;clip-rule:evenodd;fill:#004389;}
</style>
<path id="Фигура_40" class="st0" d="M67,40.8c0,0.6-0.1,1.2-0.1,1.8c-0.2,1.6-1.5,2.8-3.1,2.9c-2.1,0.1-4.2,0.1-6.3,0.1h-0.4
	c1.7,3.1,3.4,6.2,5.1,9.2L62.2,55c-0.1-0.1-0.2-0.1-0.4-0.2c-4.7-2.9-9.4-5.9-14.1-8.9c-0.2-0.1-0.5-0.2-0.8-0.2
	c-6-0.1-12-0.1-18-0.1c-0.4,0-0.8,0-1.3,0c-1.6-0.1-2.9-1.3-3.2-2.9c-0.1-1.6-0.1-3.2-0.1-4.9c0-0.4,0-0.9,0-1.3h4.4V41h33.6V16.8
	H51.7v-4.6h0.4c4,0,7.9,0,11.9,0.1c0.7,0.1,1.4,0.4,1.9,1c0.4,0.5,0.7,1,1,1.5c0,0.1,0.1,0.2,0,0.4c0,1.3,0,2.6,0,3.8
	c0,0.2,0,0.4,0,0.6L67,40.8L67,40.8z M9.7,33.4c-1.4,0-2.8,0-4.2,0c-0.8,0-1.5,0-2.3-0.1c-1.9-0.2-3.3-1.9-3.2-3.8
	C0,28.1,0,26.7,0,25.2c0-7.4,0-14.9,0.1-22.3c0-0.3,0.2-0.7,0.4-1c0.4-0.8,1.1-1.4,1.9-1.7c0.3-0.1,0.7-0.2,1-0.2C7.2,0,11,0,14.8,0
	c10.2,0,20.5,0,30.7,0c0.3,0,0.6,0.1,0.8,0.2c0.5,0.3,1,0.7,1.5,1.1c0.5,0.5,0.8,1.2,0.8,1.9c0,4.3,0.1,8.6,0.1,12.9
	c0,3.5,0,7.1,0,10.6c0,1.4-0.1,2.7-0.2,4.1c0,0.5-0.3,1-0.7,1.3c-0.1,0.1-0.2,0.2-0.3,0.3c-0.5,0.6-1.2,0.9-1.9,0.9
	c-1.5,0.1-3.1,0.1-4.6,0.1c-7,0-14,0-21.1,0c-0.3,0-0.5,0.1-0.7,0.2c-4.7,2.9-9.4,5.9-14.1,8.8c-0.2,0.1-0.3,0.2-0.5,0.3
	c0,0-0.1,0-0.1-0.1c1.7-3.1,3.3-6.1,5-9.1C9.7,33.5,9.7,33.5,9.7,33.4L9.7,33.4z M24.4,21c2.4,0,4.3-1.9,4.3-4.3c0,0,0,0,0,0
	c-0.1-2.4-2-4.3-4.4-4.3c-2.4,0.1-4.3,2-4.3,4.4C20.1,19.1,22,21,24.4,21L24.4,21z M35,21c2.3,0.1,4.3-1.8,4.4-4.1
	c0-0.1,0-0.1,0-0.2c0-2.4-1.9-4.4-4.3-4.4c0,0,0,0,0,0c-2.4,0-4.3,1.9-4.4,4.3C30.6,18.7,32.4,21.2,35,21z M13.8,21
	c2.3,0.2,4.3-2,4.3-4.3c0-2.4-2-4.4-4.4-4.4c0,0,0,0,0,0c-2.4,0-4.3,2-4.3,4.4S11.4,21,13.8,21L13.8,21z"/>
</svg>
