<?xml version="1.0" encoding="utf-8"?>
<!-- Generator: Adobe Illustrator 24.0.2, SVG Export Plug-In . SVG Version: 6.00 Build 0)  -->
<svg version="1.1" id="Слой_1" xmlns="http://www.w3.org/2000/svg" xmlns:xlink="http://www.w3.org/1999/xlink" x="0px" y="0px"
	 viewBox="0 0 57 57" style="enable-background:new 0 0 57 57;" xml:space="preserve">
<style type="text/css">
	.st0{fill-rule:evenodd;clip-rule:evenodd;fill:#004389;}
</style>
<path id="Фигура_44" class="st0" d="M56.7,53.5l-3.2,3.1c-0.5,0.4-1.2,0.4-1.6,0L38.2,43.3c-0.4-0.4-0.4-1.1-0.1-1.5
	c0.1-0.1,0.3-0.3,0.4-0.5c-1-0.9-1.9-1.8-2.8-2.5c-0.4-0.1-0.8,0-1.1,0.3c-3.3,2.2-7.2,3.5-11.2,3.7c-6.7,0.5-13.3-2.1-17.8-7.1
	c-6.9-7.4-7.5-18.6-1.4-26.7C11.7-1,25.9-2.9,35.8,4.6c0.6,0.5,1.2,0.9,1.7,1.5c8.3,7.8,8.8,20.9,1.1,29.3c-0.4,0.3-0.5,0.8-0.2,1.2
	c0.1,0.1,0.2,0.2,0.3,0.3c0.7,0.7,1.4,1.5,2.1,2.2c0.2-0.2,0.4-0.4,0.6-0.5c0.5-0.4,1.1-0.4,1.6,0c4.6,4.5,9.1,8.9,13.7,13.3
	C57.1,52.4,57,53.1,56.7,53.5z M22,39.3c10.4,0,18.6-7.9,18.7-18c0-9.8-8.3-17.9-18.4-18c-10.4,0-18.6,7.8-18.7,17.9
	c0,10,8.1,18.1,18.1,18C21.7,39.3,21.9,39.3,22,39.3z M28,20.6c0-3.3,0-6.5,0-9.8c-0.1-0.5,0.1-1,0.6-1.1c0.2,0,0.3,0,0.5,0
	c3.1,0,3.1,0,3.1,3c0,5.8,0,11.6,0,17.5c0,1.1-0.3,1.4-1.4,1.3c-0.6-0.1-1.3-0.1-1.9,0c-0.8,0.1-0.9-0.3-0.9-1
	C28,27.2,28,23.9,28,20.6L28,20.6z M21.9,31.4c0-0.4,0-0.7,0-0.9c0-5.3,0-10.6,0-15.9c-0.1-0.5,0.1-0.9,0.6-1.1c0.1,0,0.3,0,0.4,0
	c3.2,0,3.2-0.1,3.2,3c0,4.6,0,9.1,0,13.7c0,0.9-0.3,1.2-1.2,1.1C23.9,31.3,23,31.4,21.9,31.4L21.9,31.4z M15.8,31.4v-1.2
	c0-4.1,0-8.3,0-12.4c0-0.8,0.2-1.3,1.1-1.2s2.3-0.2,2.9,0.3c0.5,0.4,0.2,1.8,0.2,2.7c0,3.5,0,6.9,0,10.4c0,1.4,0,1.4-1.4,1.4
	L15.8,31.4L15.8,31.4z M9.8,20.3c1.3,0,2.4,0,3.5,0c0.3,0.1,0.5,0.3,0.6,0.6c0,3.3,0,6.6,0,9.9c-0.1,0.3-0.4,0.5-0.7,0.6
	c-0.9,0.1-1.7,0.1-2.6,0c-0.3-0.1-0.6-0.3-0.7-0.7C9.7,27.3,9.8,23.9,9.8,20.3L9.8,20.3z"/>
</svg>
