<?xml version="1.0" encoding="utf-8"?>
<!-- Generator: Adobe Illustrator 24.0.2, SVG Export Plug-In . SVG Version: 6.00 Build 0)  -->
<svg version="1.1" id="Слой_1" xmlns="http://www.w3.org/2000/svg" xmlns:xlink="http://www.w3.org/1999/xlink" x="0px" y="0px"
	 viewBox="0 0 37 51" style="enable-background:new 0 0 37 51;" xml:space="preserve">
<style type="text/css">
	.st0{fill-rule:evenodd;clip-rule:evenodd;fill:#004389;}
</style>
<path id="Фигура_41" class="st0" d="M4.8,20.1c0-0.2,0-0.4,0-0.5c0-2.5-0.1-5,0.1-7.5c0.2-3.6,2.1-7,5-9.1
	c6-4.7,14.7-3.6,19.4,2.4c1.1,1.4,1.9,2.9,2.4,4.6c0.3,1.1,0.4,2.2,0.4,3.4c0.1,2.1,0,4.1,0,6.2v0.5h2.3c1-0.1,1.9,0.4,2.3,1.3
	c0.2,0.4,0.3,0.9,0.2,1.4c0,7.9,0,15.8,0,23.7c0,0.8,0,1.6,0,2.4c-0.1,1.1-1,2-2.2,2.1c-0.1,0-0.3,0-0.4,0H2.7
	c-1.2,0.1-2.2-0.6-2.6-1.7C0,49,0,48.7,0,48.4c0-8.6,0-17.1,0-25.7c0-1.7,1-2.6,2.7-2.6c0.5,0,1,0,1.6,0L4.8,20.1L4.8,20.1z
	 M27.3,20.1c0-0.1,0-0.2,0-0.3c0-2.2,0-4.4,0-6.6c0-1.2-0.3-2.5-0.8-3.6C24.3,5.2,19,3.4,14.6,5.5c-0.1,0-0.1,0.1-0.2,0.1
	c-2.8,1.2-4.6,4-4.7,7c-0.1,2.4,0,4.8,0,7.1c0,0.1,0,0.2,0,0.3H27.3L27.3,20.1z M16.8,35.6c-0.6-0.6-1.1-1.1-1.7-1.7
	c-1-0.9-2.5-0.9-3.4,0c-0.9,0.8-0.9,2.2-0.1,3.1c0,0,0.1,0.1,0.1,0.1c1.1,1.1,2.3,2.2,3.4,3.3c0.9,0.9,2.4,0.9,3.4,0c0,0,0,0,0,0
	c2.3-2.2,4.6-4.4,6.8-6.6c0.6-0.6,0.9-1.5,0.6-2.3c-0.4-1.3-1.8-1.9-3.1-1.5c-0.3,0.1-0.7,0.3-0.9,0.6c-0.8,0.8-1.6,1.6-2.5,2.4
	C18.5,33.9,17.7,34.7,16.8,35.6L16.8,35.6z"/>
</svg>
