<?xml version="1.0" encoding="utf-8"?>
<!-- Generator: Adobe Illustrator 24.0.2, SVG Export Plug-In . SVG Version: 6.00 Build 0)  -->
<svg version="1.1" id="Слой_1" xmlns="http://www.w3.org/2000/svg" xmlns:xlink="http://www.w3.org/1999/xlink" x="0px" y="0px"
	 viewBox="0 0 50 50" style="enable-background:new 0 0 50 50;" xml:space="preserve">
<style type="text/css">
	.st0{fill-rule:evenodd;clip-rule:evenodd;fill:#004389;}
</style>
<path id="Фигура_42" class="st0" d="M32.4,2.9c-0.4,0.3-0.7,0.6-1,0.9c-0.8,0.8-1.3,1.9-1.3,3c0,0.9,0,1.7,0,2.6
	c-4.6-1.6-9.7-1.2-14,1.1c-3.1,1.6-5.5,4.1-7.1,7.1c-3.6,6.7-2.3,15,3.1,20.3c5.4,5.4,13.7,6.6,20.4,3c3.7-1.9,6.5-5.2,8-9.1
	C42,28,42,23.7,40.6,19.8c0.3,0,0.6,0,0.8,0c0.7,0,1.5,0,2.2,0c0.9-0.1,1.7-0.5,2.3-1.1c0.4-0.4,0.7-0.7,1.1-1.1
	c3.5,9.2,0.9,19.6-6.4,26.1c-9.9,9-25.2,8.4-34.2-1.5c-9-9.9-8.4-25.2,1.5-34.2C14.5,1.8,23.9-0.1,32.4,2.9z M29.3,13.1
	c-0.5,0.5-1,0.9-1.4,1.4c-1.1,1.1-2.2,2.2-3.3,3.3c-0.2,0.2-0.4,0.3-0.7,0.3c-4.2,0.2-7.5,3.8-7.3,8.1s3.8,7.5,8.1,7.3
	c1-0.1,1.9-0.3,2.8-0.7c2.8-1.2,4.6-4,4.6-7c0-0.2,0.1-0.4,0.2-0.5c1.5-1.5,3.1-3.1,4.6-4.6c0,0,0.1-0.1,0.1-0.1
	c2.3,5.5,0.8,11.9-3.8,15.6c-5.1,4.3-12.6,4.3-17.7-0.1C9.7,31.2,9,22.6,13.9,16.9C17.7,12.4,23.9,10.9,29.3,13.1L29.3,13.1z
	 M39.8,16.2c-1.1,0-2.1,0-3.2,0c-0.3,0-0.5,0.1-0.7,0.3c-3.3,3.3-6.6,6.6-9.9,9.8c-0.5,0.6-1.3,0.8-2,0.6c-0.9-0.3-1.3-1.3-1-2.2
	c0.1-0.2,0.2-0.4,0.3-0.6c0.6-0.6,1.2-1.2,1.8-1.8c2.8-2.8,5.6-5.5,8.3-8.3c0.2-0.2,0.3-0.4,0.3-0.7c0-2.1,0-4.2,0-6.3
	c0-0.2,0.1-0.4,0.2-0.6c2-2,3.9-3.9,5.9-5.9c0.6-0.6,1.5-0.7,2.2-0.2c0.2,0.2,0.4,0.4,0.5,0.7c0.1,0.2,0.1,0.4,0.1,0.6
	c0,1.7,0.1,3.4,0.1,5.2c0,0.2,0.1,0.4,0.3,0.4c0.1,0,0.1,0,0.2,0c1.7,0,3.4,0.1,5.2,0.1c0.5,0,1.1,0.2,1.4,0.6
	c0.4,0.5,0.4,1.3,0,1.8c-0.6,0.7-1.3,1.4-2,2.1c-1.3,1.3-2.7,2.7-4,4c-0.2,0.2-0.4,0.3-0.7,0.3C41.9,16.2,40.8,16.2,39.8,16.2
	L39.8,16.2z"/>
</svg>
