<?xml version="1.0" encoding="utf-8"?>
<!-- Generator: Adobe Illustrator 24.0.2, SVG Export Plug-In . SVG Version: 6.00 Build 0)  -->
<svg version="1.1" id="Слой_1" xmlns="http://www.w3.org/2000/svg" xmlns:xlink="http://www.w3.org/1999/xlink" x="0px" y="0px"
	 viewBox="0 0 50 50" style="enable-background:new 0 0 50 50;" xml:space="preserve">
<style type="text/css">
	.st0{fill-rule:evenodd;clip-rule:evenodd;fill:#FFFFFF;}
</style>
<path id="Фигура_16" class="st0" d="M25,0c13.8,0,25,11.2,25,25S38.8,50,25,50C11.2,50,0,38.8,0,25c0-6.6,2.6-13,7.3-17.7
	C12,2.6,18.4,0,25,0L25,0z M41.3,8.7c-9-9-23.6-9-32.6,0c-9,9-9,23.6,0,32.6s23.6,9,32.6,0c4.3-4.3,6.8-10.2,6.8-16.3
	C48.1,18.9,45.6,13,41.3,8.7L41.3,8.7z M26.9,19.9v-2c-0.1-0.6,0.3-1.1,0.9-1.2c0.1,0,0.1,0,0.2,0h2.9v-4.4H27
	c-4.4,0-5.4,3.2-5.4,5.3v2.3H19V25h2.6v12.8h5.1V25h3.8l0.2-2l0.3-3.1L26.9,19.9L26.9,19.9z"/>
</svg>
