<?xml version="1.0" encoding="utf-8"?>
<!-- Generator: Adobe Illustrator 24.0.2, SVG Export Plug-In . SVG Version: 6.00 Build 0)  -->
<svg version="1.1" id="Слой_1" xmlns="http://www.w3.org/2000/svg" xmlns:xlink="http://www.w3.org/1999/xlink" x="0px" y="0px"
	 viewBox="0 0 12 7" style="enable-background:new 0 0 12 7;" xml:space="preserve">
<style type="text/css">
	.st0{fill-rule:evenodd;clip-rule:evenodd;fill:#FFFFFF;}
</style>
<path id="Фигура_8" class="st0" d="M0,0.9c0-0.1,0.1-0.2,0.2-0.3c0.2-0.2,0.3-0.3,0.5-0.5C0.8,0,1.1,0,1.2,0.1
	c0,0,0,0,0.1,0.1C2.1,1,3,1.8,3.8,2.7C4.5,3.4,5.2,4.1,6,4.8c0,0,0,0,0,0.1c0,0,0.1-0.1,0.1-0.1c1.5-1.5,3.1-3.1,4.6-4.6
	C10.8,0,11,0,11.1,0c0.1,0,0.1,0.1,0.2,0.1c0.2,0.2,0.4,0.4,0.6,0.6c0.2,0.1,0.2,0.4,0.1,0.5c0,0,0,0-0.1,0.1
	c-0.6,0.6-1.2,1.2-1.8,1.7C8.9,4.3,7.6,5.6,6.4,6.8c0,0,0,0-0.1,0.1C6.1,7,5.9,7,5.7,6.9c0,0,0,0,0,0C5.6,6.7,5.4,6.6,5.3,6.4
	C3.6,4.7,1.9,3,0.2,1.3C0.1,1.3,0,1.2,0,1.1L0,0.9L0,0.9z"/>
</svg>
