<?xml version="1.0" encoding="utf-8"?>
<!-- Generator: Adobe Illustrator 24.0.2, SVG Export Plug-In . SVG Version: 6.00 Build 0)  -->
<svg version="1.1" id="Слой_1" xmlns="http://www.w3.org/2000/svg" xmlns:xlink="http://www.w3.org/1999/xlink" x="0px" y="0px"
	 viewBox="0 0 29.9 30.5" style="enable-background:new 0 0 29.9 30.5;" xml:space="preserve">
<style type="text/css">
	.st0{fill-rule:evenodd;clip-rule:evenodd;fill:#959595;}
</style>
<path id="Фигура_11" class="st0" d="M25.6,19.7c-1.6-1.6-3.5-2.9-5.7-3.6c4-2.8,5-8.3,2.2-12.3c-1.4-2-3.6-3.4-6.1-3.7
	c-4.8-0.5-9.2,3-9.7,7.9C6,11.1,7.4,14.2,10,16.1c-2.2,0.8-4.1,2-5.7,3.6c-2.5,2.6-4.1,5.9-4.3,9.5c-0.1,0.6,0.4,1.2,1.1,1.3
	c0.6,0.1,1.2-0.4,1.3-1.1c0,0,0,0,0,0c0.5-7,6.5-12.2,13.5-11.7c6.3,0.4,11.3,5.4,11.7,11.7c0,0.6,0.6,1.1,1.2,1.1
	c0.6,0,1.1-0.6,1.1-1.2c0,0,0,0,0,0C29.6,25.6,28.1,22.2,25.6,19.7z M14.9,15.2c-3.5,0-6.5-2.8-6.5-6.3s2.8-6.5,6.3-6.5
	c3.5,0,6.5,2.8,6.5,6.3c0,0,0,0.1,0,0.1C21.3,12.3,18.5,15.2,14.9,15.2z"/>
</svg>
