<?xml version="1.0" encoding="utf-8"?>
<!-- Generator: Adobe Illustrator 24.0.2, SVG Export Plug-In . SVG Version: 6.00 Build 0)  -->
<svg version="1.1" id="Слой_1" xmlns="http://www.w3.org/2000/svg" xmlns:xlink="http://www.w3.org/1999/xlink" x="0px" y="0px"
	 viewBox="0 0 29.9 31" style="enable-background:new 0 0 29.9 31;" xml:space="preserve">
<style type="text/css">
	.st0{fill-rule:evenodd;clip-rule:evenodd;fill:#959595;}
</style>
<path id="Фигура_12" class="st0" d="M25.8,4.1C23.3,1.4,19.8,0,16.1,0C15.5,0,15,0.5,15,1.1s0.5,1.1,1.1,1.1
	c3.1,0,6,1.2,8.2,3.4c2.2,2.2,3.4,5.2,3.4,8.3c0,0.6,0.5,1.1,1.1,1.1c0.6,0,1.1-0.5,1.1-1.1c0,0,0,0,0-0.1
	C29.9,10.2,28.4,6.7,25.8,4.1z M21.4,13.9c0,0.6,0.5,1.1,1.1,1.1c0.6,0,1.1-0.5,1.1-1.1c0,0,0,0,0-0.1c0-4.1-3.3-7.5-7.4-7.5
	c-0.6,0.1-1,0.6-1,1.2c0.1,0.5,0.5,0.9,1,1C19,8.6,21.4,11,21.4,13.9L21.4,13.9z M19,19.5c-1.2,0-2.3,0.7-2.9,1.8
	c-0.3,0.5-0.2,1.2,0.3,1.5c0.5,0.3,1.2,0.2,1.5-0.3c0,0,0,0,0,0c0.5-0.7,0.7-0.8,1-0.8c0.9,0.1,4.7,2.9,5,3.7c0.1,0.3,0.1,0.5,0,0.8
	c-0.3,1-0.9,1.9-1.9,2.4c-0.9,0.4-1.9,0.3-2.8-0.1c-3.8-1.5-7.2-3.8-10.1-6.6c0,0,0,0,0,0C6.3,18.9,4,15.4,2.5,11.6
	c-0.4-0.9-0.5-1.9-0.1-2.8c0.5-0.9,1.3-1.6,2.3-1.9c0.3-0.1,0.5-0.1,0.8,0C6.4,7.3,9.2,11,9.3,12c0,0.3-0.1,0.5-0.8,1
	c-0.5,0.3-0.6,1-0.3,1.5c0.3,0.5,1,0.6,1.5,0.3c0,0,0,0,0,0c1.1-0.6,1.7-1.7,1.7-2.9c-0.1-1.8-3.5-6.4-5.1-7c-0.7-0.3-1.5-0.3-2.2,0
	c-1.6,0.5-2.9,1.6-3.6,3c-0.6,1.5-0.6,3.1,0.1,4.6c1.6,4.1,4,7.8,7,10.9c0,0,0,0,0,0c3.1,3.1,6.8,5.5,10.8,7.1
	c0.8,0.3,1.6,0.5,2.4,0.5c0.7,0,1.4-0.2,2.1-0.5c1.5-0.7,2.6-2.1,3-3.7c0.3-0.7,0.3-1.5,0-2.3C25.3,23,20.7,19.6,19,19.5L19,19.5z"
	/>
</svg>
