<?xml version="1.0" encoding="utf-8"?>
<!-- Generator: Adobe Illustrator 24.0.2, SVG Export Plug-In . SVG Version: 6.00 Build 0)  -->
<svg version="1.1" id="Слой_1" xmlns="http://www.w3.org/2000/svg" xmlns:xlink="http://www.w3.org/1999/xlink" x="0px" y="0px"
	 viewBox="0 0 30 30" style="enable-background:new 0 0 30 30;" xml:space="preserve">
<style type="text/css">
	.st0{fill-rule:evenodd;clip-rule:evenodd;fill:#004389;}
</style>
<path id="Фигура_49" class="st0" d="M14.3,0h1.5c0.3,0,0.7,0.1,1,0.1c8.2,1,14.1,8.4,13.1,16.7c-0.8,6.5-5.6,11.7-12,12.9
	C9.8,31.3,1.9,26,0.3,17.9c-0.1-0.4-0.1-0.8-0.2-1.3C0.1,16.3,0,16,0,15.7v-1.5c0-0.1,0-0.1,0-0.2c0.1-1.6,0.4-3.1,1-4.6
	C2.3,6.3,4.6,3.7,7.5,2c1.8-1.1,3.8-1.7,5.9-1.9L14.3,0z M15,3.3C8.5,3.3,3.3,8.5,3.3,15c0,6.5,5.2,11.7,11.7,11.7
	c6.5,0,11.7-5.2,11.7-11.7C26.7,8.5,21.5,3.3,15,3.3L15,3.3z M12.7,16.4c0.5-0.5,0.9-0.9,1.4-1.4c1.9-1.9,3.9-3.9,5.8-5.8
	c0.8-0.8,2.2-0.9,3,0c0.8,0.8,0.9,2.2,0,3l0,0c-0.6,0.6-1.2,1.2-1.7,1.7c-2.3,2.3-4.6,4.6-6.9,6.9c-0.7,0.7-1.7,0.9-2.6,0.4
	c-0.2-0.1-0.3-0.2-0.4-0.3c-1.4-1.3-2.8-2.7-4.1-4.1c-0.6-0.6-0.8-1.5-0.5-2.3c0.3-0.8,1-1.3,1.9-1.4c0.6,0,1.3,0.2,1.7,0.7
	c0.8,0.8,1.6,1.6,2.4,2.4C12.6,16.3,12.6,16.3,12.7,16.4z"/>
</svg>
