<?xml version="1.0" encoding="utf-8"?>
<!-- Generator: Adobe Illustrator 24.0.2, SVG Export Plug-In . SVG Version: 6.00 Build 0)  -->
<svg version="1.1" id="Слой_1" xmlns="http://www.w3.org/2000/svg" xmlns:xlink="http://www.w3.org/1999/xlink" x="0px" y="0px"
	 viewBox="0 0 21.6 28.8" style="enable-background:new 0 0 21.6 28.8;" xml:space="preserve">
<style type="text/css">
	.st0{fill-rule:evenodd;clip-rule:evenodd;fill:#E3000F;}
</style>
<path id="Фигура_15" class="st0" d="M10.8,0C4.8,0,0,4.9,0,11c0,3.9,1.2,5.5,6.8,13c1,1.3,2.1,2.8,3.3,4.5
	c0.3,0.4,0.8,0.5,1.1,0.2c0.1-0.1,0.1-0.1,0.2-0.2c1.3-1.7,2.4-3.2,3.3-4.5c5.6-7.5,6.8-9.1,6.8-13C21.7,4.9,16.8,0,10.8,0L10.8,0
	L10.8,0z M13.5,22.9c-0.8,1.1-1.7,2.3-2.7,3.6c-1-1.3-1.9-2.5-2.7-3.6c-5.5-7.3-6.5-8.6-6.5-12c-0.1-5,4-9.2,9-9.2
	c5-0.1,9.2,4,9.2,9c0,0.1,0,0.1,0,0.2C20,14.3,19,15.6,13.5,22.9L13.5,22.9L13.5,22.9z M10.8,5c-3.3,0-5.9,2.6-6,5.8
	c0,3.3,2.6,5.9,5.8,6s5.9-2.6,6-5.8c0,0,0-0.1,0-0.1C16.6,7.7,14,5.1,10.8,5L10.8,5z M10.8,15.2c-2.3,0-4.2-1.8-4.3-4.2
	c0-2.3,1.8-4.2,4.2-4.3c2.3,0,4.2,1.8,4.3,4.2c0,0,0,0,0,0.1C15,13.3,13.1,15.1,10.8,15.2L10.8,15.2z"/>
</svg>
