<?xml version="1.0" encoding="utf-8"?>
<!-- Generator: Adobe Illustrator 24.0.2, SVG Export Plug-In . SVG Version: 6.00 Build 0)  -->
<svg version="1.1" id="Слой_1" xmlns="http://www.w3.org/2000/svg" xmlns:xlink="http://www.w3.org/1999/xlink" x="0px" y="0px"
	 viewBox="0 0 56 56" style="enable-background:new 0 0 56 56;" xml:space="preserve">
<style type="text/css">
	.st0{fill-rule:evenodd;clip-rule:evenodd;fill:#004389;}
</style>
<path id="Фигура_45" class="st0" d="M29.3,56c-1.3,0-2.7-0.1-4.1,0c-1,0-1.8-0.8-1.9-1.7c-0.1-0.9-0.3-1.8-0.4-2.7
	c-0.1-0.5-0.2-0.9-0.2-1.4c0-0.3-0.1-0.6-0.2-1C22.4,49,22.3,49,22.1,49c-1.4-0.4-2.8-0.9-4.1-1.6c-0.3-0.1-0.5-0.3-0.8-0.4
	c-0.1-0.1-0.3-0.1-0.4,0l-2.2,1.5c-0.7,0.5-1.3,0.9-2,1.4c-0.8,0.5-1.9,0.4-2.5-0.3c-1.3-1.3-2.5-2.5-3.7-3.8
	c-0.5-0.5-0.6-1.2-0.4-1.8c0.2-0.5,0.5-1,0.9-1.4c0.8-1.1,1.5-2.1,2.3-3.2c0.1-0.1,0.2-0.3,0-0.5c-0.5-0.8-0.9-1.6-1.2-2.5
	c-0.2-0.5-0.4-1.1-0.6-1.6C7.2,34.4,7.1,34,7,33.6c0-0.1-0.1-0.2-0.2-0.1C5.9,33.3,5,33.2,4.1,33c-0.9-0.2-1.8-0.3-2.7-0.5
	c-0.7-0.2-1.2-0.7-1.3-1.4C0,30.3,0,29.5,0,28.7c0-0.6,0-1.3,0-1.9c0-0.6,0-1.2,0.1-1.8c0.1-0.6,0.4-1.1,1-1.4
	c0.4-0.2,0.8-0.3,1.2-0.4c0.8-0.1,1.7-0.2,2.5-0.4c0.6-0.1,1.3-0.2,1.9-0.3c0.2,0,0.3-0.1,0.3-0.3c0.1-0.6,0.3-1.2,0.6-1.8
	c0.4-1,0.8-2,1.3-3c0,0,0,0,0,0c0.4-0.4,0.2-0.7-0.1-1c-0.9-1.3-1.9-2.6-2.8-3.9c-0.5-0.8-0.4-1.8,0.3-2.4C7.4,9,8.4,8,9.5,6.9
	c0.3-0.3,0.5-0.6,0.8-0.8c0.7-0.4,1.6-0.4,2.3,0.1c1.1,0.8,2.1,1.6,3.2,2.4c0.2,0.2,0.5,0.4,0.7,0.5c0.1,0.1,0.3,0.1,0.5,0
	c1.1-0.6,2.2-1.2,3.4-1.6c0.6-0.2,1.2-0.4,1.8-0.6c0.1,0,0.2-0.1,0.2-0.2c0.2-0.7,0.3-1.5,0.4-2.2C23,3.7,23.2,2.9,23.3,2
	c0-0.5,0.2-0.9,0.5-1.3c0.4-0.5,1-0.7,1.6-0.7c1,0,1.9,0,2.9,0c0.8,0,1.5,0,2.3,0c1.1,0,1.9,0.9,2,1.9c0.1,0.7,0.2,1.4,0.3,2.1
	c0.1,0.9,0.3,1.8,0.4,2.7c0,0.1,0.1,0.2,0.2,0.2c0.8,0.2,1.6,0.5,2.4,0.8c0.8,0.3,1.6,0.7,2.3,1.1C38.5,8.9,38.8,9,39,9.2
	c0.1,0.1,0.2,0,0.3-0.1c0.9-0.7,1.9-1.3,2.8-2c0.5-0.3,1-0.7,1.5-1c0.8-0.5,1.8-0.4,2.4,0.3c1.2,1.2,2.5,2.5,3.7,3.7
	c0.7,0.7,0.7,1.8,0.2,2.6c-1,1.4-1.9,2.7-2.9,4.1c-0.1,0.1-0.1,0.3,0,0.4c0.4,0.7,0.8,1.4,1.1,2.2c0.3,0.7,0.6,1.5,0.8,2.3
	c0.1,0.3,0.2,0.6,0.3,0.8c0,0.1,0.1,0.2,0.2,0.2c0.4,0,0.7,0.2,1.1,0.2c0.8,0.1,1.5,0.2,2.3,0.3c0.5,0.1,1.1,0.2,1.6,0.3
	c0.5,0.1,0.9,0.3,1.2,0.6c0.3,0.3,0.5,0.8,0.5,1.3c0,1.6,0,3.2,0,4.8c0,0.4,0,0.9-0.2,1.3c-0.2,0.5-0.6,0.9-1.2,1.1
	c-0.6,0.2-1.3,0.3-1.9,0.4c-0.6,0.1-1.2,0.2-1.8,0.3c-0.5,0.1-1,0.2-1.5,0.3c-0.1,0-0.2,0.1-0.3,0.2c-0.3,1-0.6,2-1,2.9
	c-0.3,0.8-0.7,1.6-1.2,2.3c-0.1,0.1-0.1,0.3,0,0.4c1,1.4,1.9,2.8,2.9,4.1c0.6,0.8,0.5,1.8-0.2,2.5c-1.2,1.2-2.5,2.5-3.7,3.7
	c-0.7,0.7-1.8,0.7-2.6,0.2c-1.4-1-2.7-1.9-4.1-2.9c-0.1-0.1-0.3-0.1-0.4,0c-0.8,0.4-1.5,0.8-2.4,1.2c-0.8,0.3-1.6,0.6-2.4,0.9
	c-0.2,0-0.3,0.1-0.5,0.1c-0.1,0-0.2,0.1-0.2,0.2l-0.5,3.2c-0.1,0.7-0.2,1.3-0.4,2c-0.2,0.7-0.8,1.3-1.5,1.4C30.4,56,29.9,56,29.3,56
	z M10.4,28c0,1.1,0.1,2.1,0.3,3.2c0.2,1,0.5,2,0.8,2.9c0.3,0.9,0.7,1.8,1.2,2.6c1.5,2.6,3.6,4.7,6.2,6.3c0.8,0.5,1.7,0.9,2.6,1.3
	c0.7,0.3,1.5,0.5,2.2,0.7c1,0.2,2,0.4,3.1,0.5c0.8,0.1,1.6-0.1,2.4,0.1c0,0,0.1,0,0.1,0c0.5-0.2,1.1-0.3,1.7-0.3
	c0.6-0.1,1.3-0.3,1.9-0.4c0.5-0.1,0.9-0.3,1.4-0.5c1-0.4,2-0.9,2.9-1.4c0.8-0.5,1.6-1.1,2.4-1.8c1.2-1,2.2-2.2,3-3.5
	c0.7-1,1.2-2.1,1.7-3.3c0.4-1.1,0.7-2.2,0.9-3.3c0.2-0.9,0.3-1.8,0.3-2.7c0-1.5-0.1-3.1-0.5-4.6c-0.2-0.9-0.5-1.7-0.8-2.5
	c-1.8-4.4-5.4-7.9-9.9-9.6c-1-0.4-2-0.7-3.1-0.9c-0.8-0.2-1.7-0.3-2.6-0.3c-1.3-0.1-2.7,0-4,0.3c-0.4,0.1-0.8,0.2-1.2,0.3
	c-0.5,0.1-1,0.3-1.5,0.4c-0.8,0.3-1.6,0.7-2.4,1.1c-1.3,0.7-2.5,1.6-3.6,2.6c-0.9,0.8-1.7,1.7-2.3,2.7c-0.9,1.3-1.6,2.7-2.2,4.2
	c-0.4,1-0.6,2-0.8,3C10.5,26,10.4,27,10.4,28L10.4,28z M26.4,31.1v1.6h-1.6v1.6h-1.6v0.8c0,0.1,0,0.2,0,0.3c0.1,0.3-0.1,0.6-0.3,0.8
	c-0.4,0.4-0.8,0.8-1.1,1.1c-0.1,0.1-0.2,0.1-0.3,0.1c-1,0-1.9,0-2.9,0c-0.1,0-0.2,0-0.3-0.1c-0.5-0.5-0.9-0.9-1.4-1.4
	c-0.1-0.1-0.1-0.1-0.1-0.2c0-0.4,0-0.9,0-1.3c0-0.1,0-0.2,0.1-0.3l4.5-4.5c1.6-1.6,3.3-3.3,4.9-4.9c0.1-0.1,0.2-0.3,0.1-0.4
	c-0.5-2.5,0.5-5,2.6-6.4c2.3-1.6,5.5-1.5,7.7,0.3c1.6,1.2,2.4,3.2,2.3,5.2c-0.1,3.1-2.4,5.6-5.4,6c-0.7,0.1-1.5,0.1-2.2-0.1
	c-0.1,0-0.2,0-0.2,0.1c-0.5,0.5-1,1-1.5,1.5c-0.1,0.1-0.2,0.1-0.3,0.1H26.4z M18.4,35.8c0.1-0.1,0.1-0.1,0.1-0.1
	c2.6-2.6,5.2-5.2,7.7-7.8c0-0.1,0.1-0.1,0.1-0.2c0-0.4,0-0.9,0-1.3c0,0,0-0.1,0-0.1c-0.1,0.1-0.1,0.1-0.1,0.1
	c-0.9,0.9-1.7,1.7-2.6,2.6c-1.7,1.7-3.4,3.4-5.1,5.1c-0.1,0.1-0.1,0.1-0.1,0.2c0,0.4,0,0.8,0,1.2V35.8L18.4,35.8z M35.9,21.5
	c0-0.9-0.7-1.6-1.6-1.6c-0.9,0-1.6,0.7-1.6,1.6c0,0.9,0.7,1.6,1.6,1.6c0,0,0,0,0,0C35.2,23.1,35.9,22.4,35.9,21.5
	C35.9,21.5,35.9,21.5,35.9,21.5L35.9,21.5z"/>
</svg>
