<?xml version="1.0" encoding="utf-8"?>
<!-- Generator: Adobe Illustrator 24.0.2, SVG Export Plug-In . SVG Version: 6.00 Build 0)  -->
<svg version="1.1" id="Слой_1" xmlns="http://www.w3.org/2000/svg" xmlns:xlink="http://www.w3.org/1999/xlink" x="0px" y="0px"
	 viewBox="0 0 29 56" style="enable-background:new 0 0 29 56;" xml:space="preserve">
<style type="text/css">
	.st0{fill-rule:evenodd;clip-rule:evenodd;fill:#004389;}
</style>
<path id="Фигура_43" class="st0" d="M14.4,20.5C13.6,21,12.8,21.5,12,22c-0.8,0.4-1.7,0.7-2.6,1c-0.4,0.1-0.8,0.1-1.2,0
	c-0.6-0.2-1.2,0-1.6,0.4c-0.7,0.5-1.4,0.9-2.2,1.2c-1.4,0.5-2.9-0.1-3.5-1.5c-0.4-0.9-0.7-1.8-0.9-2.8c-0.1-0.4,0-0.8,0.4-1.1
	c2.4-2.9,4.9-5.8,7.3-8.7C8,10.2,8.2,9.8,8.2,9.4c0-2.6,0-5.3,0-7.9c0-0.2,0-0.4,0-0.5c0-0.4,0.3-0.8,0.7-0.9c0.4-0.1,0.8,0,1,0.4
	c0.5,0.6,0.9,1.3,1.4,2c0.7,1,1.4,2,2.1,3c0.8-1.5,1.5-3,2.2-4.5c0.6-1.1,1-1.3,2-0.6c3.5,2,6.4,5,8.3,8.6C26,9.2,26,9.6,25.7,9.8
	c0,0,0,0,0,0c-1.4,1.4-2.8,2.9-4.2,4.3c-0.2,0.2-0.3,0.3-0.4,0.5c-0.2,0.4-0.1,0.8,0.2,1.1c0.3,0.3,0.7,0.4,1.1,0.1
	c0.2-0.1,0.3-0.2,0.4-0.4c1.2-1.2,2.4-2.5,3.7-3.7c0.1-0.1,0.3-0.3,0.4-0.5c0.1,0,0.1,0,0.2,0c0.3,1,0.6,2.1,0.8,3.1
	c0,0.2-0.1,0.4-0.3,0.5c-2.3,2.4-4.7,4.8-7.1,7.2c-0.2,0.2-0.3,0.3-0.5,0.5c-0.3,0.4-0.2,0.8,0.1,1.1c0.3,0.3,0.8,0.4,1.1,0.1
	c0.2-0.1,0.3-0.3,0.5-0.4c2-2.1,4.1-4.2,6.1-6.2c0.1-0.1,0.2-0.2,0.4-0.4c0,1,0.1,1.9,0.1,2.9c0,0.2-0.2,0.4-0.3,0.5
	c-2.5,2.6-5.1,5.2-7.6,7.7c-0.2,0.1-0.3,0.3-0.4,0.5c-0.3,0.4-0.2,0.8,0.1,1.1c0.3,0.3,0.8,0.4,1.1,0.1c0.2-0.1,0.3-0.3,0.5-0.4
	l6-6.1c0.1-0.2,0.3-0.3,0.5-0.4c-0.2,1.1-0.4,2.3-0.6,3.5c-0.1,0.2-0.2,0.3-0.3,0.5c-2.3,2.4-4.6,4.7-7,7.1
	c-0.1,0.1-0.3,0.3-0.4,0.4c-0.3,0.4-0.2,0.9,0.1,1.2c0.3,0.3,0.8,0.4,1.2,0.1c0.3-0.3,0.6-0.5,0.9-0.8l4.3-4.4
	c0.1-0.1,0.2-0.2,0.3-0.2c-0.6,4.4-1.2,8.9-1.9,13.4H4.3c-0.1-0.9-0.2-1.8-0.2-2.7c-0.2-2.8,0.3-5.7,1.4-8.3
	c0.8-1.8,2.1-3.3,3.7-4.4c2.2-1.4,3.9-3.4,4.8-5.8C14.1,21.8,14.2,21.2,14.4,20.5z M25.8,50.3c0.9-0.1,1.9,0.2,2.5,0.9
	c0.8,0.8,1,2,0.5,3c-0.4,1.1-1.4,1.8-2.6,1.7c-2.5,0-5.1,0-7.6,0H3.9c-1.6,0.1-2.9-1.1-3-2.7c-0.1-1.5,1.1-2.8,2.6-3
	c0.2,0,0.4,0,0.5,0c-0.1-0.8-0.2-1.6-0.2-2.3C4,46,5.5,44.6,7.5,44.6c1.3,0,2.7,0,4,0c3.7,0,7.3,0,10.9,0c2.1,0,3.8,1.6,3.8,3.7
	c0,0.2,0,0.4,0,0.6C26,49.4,25.9,49.8,25.8,50.3L25.8,50.3z"/>
</svg>
