<?xml version="1.0" encoding="utf-8"?>
<!-- Generator: Adobe Illustrator 24.0.2, SVG Export Plug-In . SVG Version: 6.00 Build 0)  -->
<svg version="1.1" id="Слой_1" xmlns="http://www.w3.org/2000/svg" xmlns:xlink="http://www.w3.org/1999/xlink" x="0px" y="0px"
	 viewBox="0 0 55 53" style="enable-background:new 0 0 55 53;" xml:space="preserve">
<style type="text/css">
	.st0{fill-rule:evenodd;clip-rule:evenodd;fill:#004389;}
</style>
<path id="Фигура_46" class="st0" d="M45,42.3h-2.2c-0.8,0.1-1.5-0.3-1.6-1.1c0-0.2,0-0.4,0-0.5c0-6.1,0-12.2,0-18.3
	c-0.2-0.8,0.3-1.5,1.1-1.7c0.2,0,0.4,0,0.6,0c0.3,0,0.5,0,0.8,0C41.6,11.8,32.8,6.2,24,8.2c-6.3,1.4-11.2,6.3-12.5,12.5
	c0.3,0,0.7,0,1,0c0.7-0.1,1.4,0.4,1.5,1.2c0,0.1,0,0.2,0,0.3c0,6.2,0,12.5,0,18.7c0.1,0.7-0.4,1.3-1.1,1.4c0,0-0.1,0-0.1,0
	c-2,0.2-3.9,0-5.8-0.7c-3.1-1.2-5.5-3.8-6.4-7.1c-1-3.3-0.3-7,1.9-9.7c0.8-1.1,1.8-2,3-2.6c0.2-0.1,0.4-0.4,0.4-0.6
	c0-7.4,3.8-14.2,10.1-18.2c4.6-2.9,10-4,15.4-3.1c3.5,0.5,6.8,1.9,9.6,4.1c5,3.7,8.1,9.4,8.6,15.6c0,0.5,0.1,1,0,1.6
	c0,0.3,0.1,0.5,0.3,0.6c5.1,3.1,6.8,9.7,3.8,14.8c-1,1.7-2.4,3.1-4.2,4c-0.4,0.2-0.8,0.4-1.3,0.6c-0.3,0.1-0.5,0.3-0.5,0.6
	c0.1,2.7-1.1,5.2-3.1,6.9c-1.7,1.5-3.9,2.3-6.2,2.2c-2,0-4,0-5.9,0c-0.3,0-0.5,0.1-0.7,0.3c-0.5,0.8-1.4,1.3-2.3,1.3
	c-0.9,0-1.7,0-2.6-0.1c-1.4-0.4-2.3-1.7-2.1-3.1c0.1-1.5,1.2-2.7,2.7-2.8c0.7,0,1.4-0.1,2,0c1.1,0,2,0.6,2.5,1.6
	c0.1,0.2,0.2,0.3,0.4,0.3c2.3,0,4.5,0.1,6.8,0c3.3-0.3,5.9-3,6-6.4C45.1,42.4,45,42.3,45,42.3z M8.3,20.9c0.2,0.1,0.5,0,0.5-0.2
	c0-0.1,0-0.1,0-0.2c0.5-2.8,1.7-5.5,3.5-7.8c3.2-4.3,8.1-7,13.4-7.4c7-0.7,13.8,2.5,17.7,8.4c1.4,2.1,2.3,4.4,2.8,6.8
	c0,0.2,0.2,0.4,0.4,0.4c0.1,0,0.1,0,0.2,0C46.3,10.3,37.3,2.1,26.7,2.5C16.7,2.9,8.7,10.9,8.3,20.9z"/>
</svg>
