<?xml version="1.0" encoding="utf-8"?>
<!-- Generator: Adobe Illustrator 24.0.2, SVG Export Plug-In . SVG Version: 6.00 Build 0)  -->
<svg version="1.1" id="Слой_1" xmlns="http://www.w3.org/2000/svg" xmlns:xlink="http://www.w3.org/1999/xlink" x="0px" y="0px"
	 viewBox="0 0 50 50" style="enable-background:new 0 0 50 50;" xml:space="preserve">
<style type="text/css">
	.st0{fill-rule:evenodd;clip-rule:evenodd;fill:#FFFFFF;}
</style>
<path id="Фигура_17" class="st0" d="M25,0c13.8,0,25,11.2,25,25S38.8,50,25,50C11.2,50,0,38.8,0,25c0-6.6,2.6-13,7.3-17.7
	C12,2.6,18.4,0,25,0L25,0z M41.3,8.7c-9-9-23.6-9-32.6,0s-9,23.6,0,32.6c9,9,23.6,9,32.6,0c4.3-4.3,6.7-10.2,6.7-16.3
	C48.1,18.9,45.6,13,41.3,8.7L41.3,8.7z M37.5,19.7c-0.1-1-0.5-1.9-1-2.7c-0.7-0.7-1.6-1.1-2.6-1.1c-3.6-0.3-8.9-0.3-8.9-0.3h0
	c0,0-5.3,0-8.9,0.3c-1,0-1.9,0.4-2.6,1.1c-0.5,0.8-0.9,1.7-1,2.7c-0.2,1.4-0.3,2.9-0.3,4.3v2c0,1.4,0.1,2.9,0.3,4.3
	c0.1,1,0.5,1.9,1,2.7c0.8,0.7,1.8,1.1,2.8,1.1c2,0.2,8.7,0.3,8.7,0.3s5.4,0,8.9-0.3c1,0,1.9-0.4,2.6-1.1c0.5-0.8,0.9-1.7,1-2.7
	c0.2-1.4,0.2-2.9,0.3-4.3v-2C37.7,22.5,37.7,21.1,37.5,19.7L37.5,19.7L37.5,19.7z M29.3,24.7l-6.9,3.7V21l3.1,1.7L29.3,24.7z"/>
</svg>
