<svg width="12" height="12" viewBox="0 0 12 12" fill="none" xmlns="http://www.w3.org/2000/svg">
<path fill-rule="evenodd" clip-rule="evenodd" d="M7.80159 7.1144H4.47241L3.75702 4.49231H9.11264L7.80159 7.1144ZM9.85549 4.03247C9.69511 3.77288 9.41717 3.61817 9.11213 3.61817H3.51833L3.2487 2.62921C3.19669 2.43911 3.02407 2.30713 2.82698 2.30713H1.95295C1.71128 2.30713 1.51593 2.50291 1.51593 2.74414C1.51593 2.98538 1.71128 3.18116 1.95295 3.18116H2.4931L3.7163 7.66625C3.76831 7.85635 3.94093 7.98833 4.13802 7.98833H8.07116C8.23679 7.98833 8.38799 7.89481 8.46229 7.74666L9.89395 4.8829C10.0307 4.60976 10.0159 4.29205 9.85549 4.03247ZM3.91959 8.86253C3.55774 8.86253 3.26406 9.15577 3.26406 9.51805C3.26406 9.88034 3.55774 10.1736 3.91959 10.1736C4.28143 10.1736 4.57511 9.88034 4.57511 9.51805C4.57511 9.15577 4.28143 8.86253 3.91959 8.86253ZM7.63423 9.51805C7.63423 9.15577 7.9279 8.86253 8.28975 8.86253C8.6516 8.86253 8.94527 9.15577 8.94527 9.51805C8.94527 9.88034 8.6516 10.1736 8.28975 10.1736C7.9279 10.1736 7.63423 9.88034 7.63423 9.51805Z" fill="white"/>
<mask id="mask0" mask-type="alpha" maskUnits="userSpaceOnUse" x="1" y="2" width="9" height="9">
<path fill-rule="evenodd" clip-rule="evenodd" d="M7.80159 7.1144H4.47241L3.75702 4.49231H9.11264L7.80159 7.1144ZM9.85549 4.03247C9.69511 3.77288 9.41717 3.61817 9.11213 3.61817H3.51833L3.2487 2.62921C3.19669 2.43911 3.02407 2.30713 2.82698 2.30713H1.95295C1.71128 2.30713 1.51593 2.50291 1.51593 2.74414C1.51593 2.98538 1.71128 3.18116 1.95295 3.18116H2.4931L3.7163 7.66625C3.76831 7.85635 3.94093 7.98833 4.13802 7.98833H8.07116C8.23679 7.98833 8.38799 7.89481 8.46229 7.74666L9.89395 4.8829C10.0307 4.60976 10.0159 4.29205 9.85549 4.03247ZM3.91959 8.86253C3.55774 8.86253 3.26406 9.15577 3.26406 9.51805C3.26406 9.88034 3.55774 10.1736 3.91959 10.1736C4.28143 10.1736 4.57511 9.88034 4.57511 9.51805C4.57511 9.15577 4.28143 8.86253 3.91959 8.86253ZM7.63423 9.51805C7.63423 9.15577 7.9279 8.86253 8.28975 8.86253C8.6516 8.86253 8.94527 9.15577 8.94527 9.51805C8.94527 9.88034 8.6516 10.1736 8.28975 10.1736C7.9279 10.1736 7.63423 9.88034 7.63423 9.51805Z" fill="white"/>
</mask>
<g mask="url(#mask0)">
<rect x="0.642029" y="0.996094" width="10.4884" height="10.4884" fill="white"/>
</g>
</svg>
