<svg width="10" height="10" viewBox="0 0 10 10" fill="none" xmlns="http://www.w3.org/2000/svg">
<path d="M1.09796 9.06412H8.90204C9.50816 9.06412 10 8.57228 10 7.96616V3.29881C10 2.69269 9.50816 2.20085 8.90204 2.20085H6.63673C6.49796 2.20085 6.38571 2.3131 6.38571 2.45187C6.38571 2.59065 6.49796 2.70289 6.63673 2.70289H8.90204C9.23265 2.70289 9.5 2.97024 9.5 3.30085V7.9682C9.5 8.29881 9.23265 8.56616 8.90204 8.56616H1.09796C0.767347 8.56616 0.5 8.29881 0.5 7.9682V3.29881C0.5 2.9682 0.767347 2.70085 1.09796 2.70085H4.39592L3.55714 3.53963C3.45918 3.63759 3.45918 3.79473 3.55714 3.89269C3.60612 3.94167 3.66939 3.96616 3.73469 3.96616C3.8 3.96616 3.86327 3.94167 3.91224 3.89269L5.17755 2.62738C5.27551 2.52942 5.27551 2.37228 5.17755 2.27432L3.91224 1.00902C3.81429 0.911057 3.65714 0.911057 3.55918 1.00902C3.46122 1.10698 3.46122 1.26412 3.55918 1.36208L4.39796 2.20085H1.09796C0.491837 2.20085 0 2.69269 0 3.29881V7.96616C0 8.57024 0.491837 9.06412 1.09796 9.06412Z" fill="#00AC4E"/>
</svg>
