<svg width="16" height="16" viewBox="0 0 16 16" fill="none" xmlns="http://www.w3.org/2000/svg">
<path fill-rule="evenodd" clip-rule="evenodd" d="M9.33339 4.66666C9.33339 3.93133 8.73539 3.33333 8.00005 3.33333C7.26472 3.33333 6.66672 3.93133 6.66672 4.66666C6.66672 5.40199 7.26472 5.99999 8.00005 5.99999C8.73539 5.99999 9.33339 5.40199 9.33339 4.66666ZM10.6667 4.66667C10.6667 6.13733 9.47071 7.33333 8.00004 7.33333C6.52937 7.33333 5.33337 6.13733 5.33337 4.66667C5.33337 3.196 6.52937 2 8.00004 2C9.47071 2 10.6667 3.196 10.6667 4.66667ZM3.33337 13.3333C3.33337 10.76 5.42737 8.66667 8.00004 8.66667C10.5727 8.66667 12.6667 10.76 12.6667 13.3333C12.6667 13.7013 12.3687 14 12 14C11.6314 14 11.3334 13.7013 11.3334 13.3333C11.3334 11.4953 9.83804 10 8.00004 10C6.16204 10 4.66671 11.4953 4.66671 13.3333C4.66671 13.7013 4.36871 14 4.00004 14C3.63137 14 3.33337 13.7013 3.33337 13.3333Z" fill="black"/>
<mask id="mask0" mask-type="alpha" maskUnits="userSpaceOnUse" x="3" y="2" width="10" height="12">
<path fill-rule="evenodd" clip-rule="evenodd" d="M9.33339 4.66666C9.33339 3.93133 8.73539 3.33333 8.00005 3.33333C7.26472 3.33333 6.66672 3.93133 6.66672 4.66666C6.66672 5.40199 7.26472 5.99999 8.00005 5.99999C8.73539 5.99999 9.33339 5.40199 9.33339 4.66666ZM10.6667 4.66667C10.6667 6.13733 9.47071 7.33333 8.00004 7.33333C6.52937 7.33333 5.33337 6.13733 5.33337 4.66667C5.33337 3.196 6.52937 2 8.00004 2C9.47071 2 10.6667 3.196 10.6667 4.66667ZM3.33337 13.3333C3.33337 10.76 5.42737 8.66667 8.00004 8.66667C10.5727 8.66667 12.6667 10.76 12.6667 13.3333C12.6667 13.7013 12.3687 14 12 14C11.6314 14 11.3334 13.7013 11.3334 13.3333C11.3334 11.4953 9.83804 10 8.00004 10C6.16204 10 4.66671 11.4953 4.66671 13.3333C4.66671 13.7013 4.36871 14 4.00004 14C3.63137 14 3.33337 13.7013 3.33337 13.3333Z" fill="white"/>
</mask>
<g mask="url(#mask0)">
<rect width="16" height="16" fill="white"/>
</g>
</svg>
