<svg width="20" height="21" viewBox="0 0 20 21" fill="none" xmlns="http://www.w3.org/2000/svg">
<path d="M19.8632 16.0759L19.2625 10.5583C19.1865 9.86007 18.5995 9.33351 17.8971 9.33351H17.4595V8.32933C17.4595 7.00272 16.3802 5.92346 15.0536 5.92346C13.727 5.92346 12.6477 7.00276 12.6477 8.32933V9.33347H12.2101C11.5078 9.33347 10.9207 9.86003 10.8447 10.5583L10.244 16.0759C10.1556 16.8882 10.7929 17.598 11.6094 17.598H18.4978C19.3135 17.5981 19.9517 16.8892 19.8632 16.0759ZM18.4978 16.9113H11.6095C11.1998 16.9113 10.8824 16.5569 10.9268 16.1503L11.5275 10.6327C11.5655 10.2836 11.859 10.0203 12.2102 10.0203H12.6478V10.8869C12.6478 11.0765 12.8015 11.2302 12.9911 11.2302C13.1807 11.2302 13.3345 11.0765 13.3345 10.8869V8.32937C13.3345 7.38145 14.1057 6.61025 15.0537 6.61025C16.0016 6.61025 16.7728 7.38145 16.7728 8.32937V9.33351H14.5994C14.4098 9.33351 14.256 9.48726 14.256 9.67688C14.256 9.86651 14.4098 10.0203 14.5994 10.0203H16.7728V10.8869C16.7728 11.0765 16.9265 11.2302 17.1162 11.2302C17.3058 11.2302 17.4595 11.0765 17.4595 10.8869V10.0203H17.8971C18.2483 10.0203 18.5418 10.2835 18.5798 10.6327L19.1805 16.1502C19.2249 16.5575 18.9069 16.9113 18.4978 16.9113ZM16.2555 18.8857C16.0658 18.8857 15.9121 19.0395 15.9121 19.2291C15.9121 19.6077 15.604 19.9158 15.2253 19.9158H2.26313C1.88448 19.9158 1.57639 19.6077 1.57639 19.2291V1.37385C1.57639 0.995202 1.88448 0.687114 2.26313 0.687114H11.9204V3.30531C11.9204 4.06266 12.5365 4.67879 13.2939 4.67879H16.2555C16.5607 4.67879 16.714 4.30834 16.4983 4.09261C12.1996 -0.206035 12.4779 0.0361701 12.3309 0.00702657C12.2835 -0.00237318 12.8304 0.000373778 2.26313 0.000373778C1.50578 0.000373778 0.889648 0.616508 0.889648 1.37385V19.2291C0.889648 19.9864 1.50578 20.6026 2.26313 20.6026H15.2253C15.9827 20.6026 16.5988 19.9864 16.5988 19.2291C16.5988 19.0394 16.4451 18.8857 16.2555 18.8857ZM13.2939 3.99205C12.9152 3.99205 12.6071 3.68396 12.6071 3.30531V1.17268L15.4265 3.99205H13.2939ZM6.34558 5.06525C6.3467 4.49509 5.88568 4.03313 5.31547 4.03313H4.62247C4.05449 4.03313 3.59236 4.49522 3.59236 5.06324V5.75362C3.59236 6.32164 4.05449 6.78373 4.62247 6.78373H5.31414C5.88109 6.78373 6.34322 6.3225 6.34425 5.7556L6.34558 5.06525ZM5.65751 5.75431C5.65717 5.94329 5.50312 6.09699 5.31414 6.09699H4.62247C4.43314 6.09699 4.2791 5.94295 4.2791 5.75362V5.06324C4.2791 4.87391 4.43314 4.71987 4.62247 4.71987H5.31547C5.50557 4.71987 5.65919 4.87382 5.65884 5.06388L5.65751 5.75431ZM6.34065 10.2156C6.34065 9.64761 5.87851 9.18552 5.31054 9.18552H4.6238C4.05582 9.18552 3.59369 9.64761 3.59369 10.2156V10.9024C3.59369 11.4704 4.05582 11.9325 4.6238 11.9325H5.31054C5.87851 11.9325 6.34065 11.4704 6.34065 10.9024V10.2156ZM5.65391 10.9024C5.65391 11.0917 5.49986 11.2457 5.31054 11.2457H4.6238C4.43447 11.2457 4.28043 11.0917 4.28043 10.9024V10.2156C4.28043 10.0263 4.43447 9.87226 4.6238 9.87226H5.31054C5.49986 9.87226 5.65391 10.0263 5.65391 10.2156V10.9024ZM5.31054 14.3361H4.6238C4.05582 14.3361 3.59369 14.7982 3.59369 15.3662V16.0529C3.59369 16.6209 4.05582 17.083 4.6238 17.083H5.31054C5.87851 17.083 6.34065 16.6209 6.34065 16.0529V15.3662C6.34065 14.7982 5.87851 14.3361 5.31054 14.3361ZM5.65391 16.0529C5.65391 16.2422 5.49986 16.3963 5.31054 16.3963H4.6238C4.43447 16.3963 4.28043 16.2422 4.28043 16.0529V15.3662C4.28043 15.1769 4.43447 15.0228 4.6238 15.0228H5.31054C5.49986 15.0228 5.65391 15.1769 5.65391 15.3662V16.0529ZM10.3805 5.75182H8.01985C7.83023 5.75182 7.67648 5.59808 7.67648 5.40845C7.67648 5.21882 7.83023 5.06508 8.01985 5.06508H10.3805C10.5701 5.06508 10.7239 5.21882 10.7239 5.40845C10.7239 5.59808 10.5701 5.75182 10.3805 5.75182ZM9.39333 10.9024H8.01985C7.83023 10.9024 7.67648 10.7486 7.67648 10.559C7.67648 10.3694 7.83023 10.2156 8.01985 10.2156H9.39333C9.58296 10.2156 9.7367 10.3694 9.7367 10.559C9.7367 10.7486 9.58296 10.9024 9.39333 10.9024ZM8.87828 15.3662C9.06791 15.3662 9.22165 15.5199 9.22165 15.7095C9.22165 15.8992 9.06791 16.0529 8.87828 16.0529H8.01985C7.83023 16.0529 7.67648 15.8992 7.67648 15.7095C7.67648 15.5199 7.83023 15.3662 8.01985 15.3662H8.87828Z" fill="#00AC4E"/>
</svg>
