<svg width="14" height="14" viewBox="0 0 14 14" fill="none" xmlns="http://www.w3.org/2000/svg">
<path fill-rule="evenodd" clip-rule="evenodd" d="M10.275 12.1154C10.1857 12.1154 10.0959 12.0945 10.0135 12.0516L7.1337 10.547L4.25449 12.0516C4.0636 12.1504 3.83317 12.1335 3.66035 12.007C3.4864 11.8805 3.39999 11.6664 3.4367 11.4546L3.9851 8.2761L1.65823 6.02548C1.50349 5.87581 1.44757 5.65103 1.51365 5.44546C1.57973 5.24101 1.7565 5.09134 1.96999 5.06085L5.18919 4.59321L6.62823 1.69819C6.81913 1.31414 7.44885 1.31414 7.63974 1.69819L9.07878 4.59321L12.298 5.06085C12.5115 5.09134 12.6882 5.24101 12.7543 5.44546C12.8204 5.65103 12.7645 5.87581 12.6097 6.02548L10.2829 8.2761L10.8313 11.4546C10.868 11.6664 10.781 11.8805 10.6076 12.007C10.5094 12.0793 10.3924 12.1154 10.275 12.1154Z" fill="black"/>
<mask id="mask0" mask-type="alpha" maskUnits="userSpaceOnUse" x="1" y="1" width="12" height="12">
<path fill-rule="evenodd" clip-rule="evenodd" d="M10.275 12.1154C10.1857 12.1154 10.0959 12.0945 10.0135 12.0516L7.1337 10.547L4.25449 12.0516C4.0636 12.1504 3.83317 12.1335 3.66035 12.007C3.4864 11.8805 3.39999 11.6664 3.4367 11.4546L3.9851 8.2761L1.65823 6.02548C1.50349 5.87581 1.44757 5.65103 1.51365 5.44546C1.57973 5.24101 1.7565 5.09134 1.96999 5.06085L5.18919 4.59321L6.62823 1.69819C6.81913 1.31414 7.44885 1.31414 7.63974 1.69819L9.07878 4.59321L12.298 5.06085C12.5115 5.09134 12.6882 5.24101 12.7543 5.44546C12.8204 5.65103 12.7645 5.87581 12.6097 6.02548L10.2829 8.2761L10.8313 11.4546C10.868 11.6664 10.781 11.8805 10.6076 12.007C10.5094 12.0793 10.3924 12.1154 10.275 12.1154Z" fill="white"/>
</mask>
<g mask="url(#mask0)">
<rect x="0.356445" y="0.254639" width="13.5545" height="13.5545" fill="#EBEBEB"/>
</g>
</svg>
