<svg width="13" height="13" viewBox="0 0 13 13" fill="none" xmlns="http://www.w3.org/2000/svg">
<g id="Icon/Fill/star">
<path id="Mask" fill-rule="evenodd" clip-rule="evenodd" d="M9.2741 10.7772C9.19622 10.7772 9.11784 10.759 9.04588 10.7215L6.53245 9.40837L4.01953 10.7215C3.85292 10.8078 3.6518 10.793 3.50097 10.6826C3.34915 10.5722 3.27373 10.3853 3.30577 10.2005L3.7844 7.42632L1.75355 5.46202C1.61849 5.33139 1.56969 5.13521 1.62736 4.95578C1.68503 4.77734 1.83932 4.64672 2.02565 4.6201L4.83532 4.21196L6.09129 1.68523C6.2579 1.35004 6.80751 1.35004 6.97411 1.68523L8.23009 4.21196L11.0398 4.6201C11.2261 4.64672 11.3804 4.77734 11.438 4.95578C11.4957 5.13521 11.4469 5.33139 11.3119 5.46202L9.281 7.42632L9.75963 10.2005C9.79167 10.3853 9.71576 10.5722 9.56443 10.6826C9.47866 10.7457 9.37663 10.7772 9.2741 10.7772Z" fill="black"/>
<mask id="mask0" mask-type="alpha" maskUnits="userSpaceOnUse" x="1" y="1" width="11" height="10">
<path id="Mask_2" fill-rule="evenodd" clip-rule="evenodd" d="M9.2741 10.7772C9.19622 10.7772 9.11784 10.759 9.04588 10.7215L6.53245 9.40837L4.01953 10.7215C3.85292 10.8078 3.6518 10.793 3.50097 10.6826C3.34915 10.5722 3.27373 10.3853 3.30577 10.2005L3.7844 7.42632L1.75355 5.46202C1.61849 5.33139 1.56969 5.13521 1.62736 4.95578C1.68503 4.77734 1.83932 4.64672 2.02565 4.6201L4.83532 4.21196L6.09129 1.68523C6.2579 1.35004 6.80751 1.35004 6.97411 1.68523L8.23009 4.21196L11.0398 4.6201C11.2261 4.64672 11.3804 4.77734 11.438 4.95578C11.4957 5.13521 11.4469 5.33139 11.3119 5.46202L9.281 7.42632L9.75963 10.2005C9.79167 10.3853 9.71576 10.5722 9.56443 10.6826C9.47866 10.7457 9.37663 10.7772 9.2741 10.7772Z" fill="white"/>
</mask>
<g mask="url(#mask0)">
<g id="&#240;&#159;&#142;&#168; Color">
<rect id="Base" x="0.617188" y="0.425049" width="11.8302" height="11.8302" fill="#00AC4E"/>
</g>
</g>
</g>
</svg>
