<svg width="22" height="19" viewBox="0 0 22 19" fill="none" xmlns="http://www.w3.org/2000/svg">
<path d="M19.711 0H1.85544C1.09808 0 0.481934 0.616146 0.481934 1.37351V13.7351C0.481934 14.4924 1.09808 15.1086 1.85544 15.1086H9.23803V16.4391C9.23803 16.6288 9.39178 16.7825 9.58141 16.7825C9.77104 16.7825 9.92478 16.6288 9.92478 16.4391V15.1944H11.6417V16.4391C11.6417 16.6288 11.7954 16.7825 11.985 16.7825C12.1747 16.7825 12.3284 16.6288 12.3284 16.4391V15.1086H19.711C20.4684 15.1086 21.0845 14.4924 21.0845 13.7351V1.37351C21.0845 0.616189 20.4684 0 19.711 0ZM20.3978 13.7351C20.3978 14.1137 20.0897 14.4218 19.711 14.4218H1.85544C1.47678 14.4218 1.16869 14.1137 1.16869 13.7351V1.37351C1.16869 0.994847 1.47678 0.686753 1.85544 0.686753H19.711C20.0897 0.686753 20.3978 0.994847 20.3978 1.37351V13.7351ZM15.9184 18.3868C15.8621 18.5676 15.67 18.6691 15.4885 18.6127C12.6024 17.7147 8.94552 17.7206 6.07798 18.6127C5.89689 18.6689 5.70443 18.5679 5.64807 18.3868C5.59172 18.2057 5.69284 18.0133 5.87393 17.9569C8.87512 17.0232 12.6745 17.0179 15.6925 17.9569C15.8736 18.0133 15.9747 18.2057 15.9184 18.3868ZM14.3632 6.40667C14.3027 5.85148 13.8361 5.43286 13.2776 5.43286H12.852V4.63773C12.852 3.4875 11.9162 2.55172 10.766 2.55172C9.61574 2.55172 8.68004 3.48746 8.68004 4.63768V5.43282H8.25443C7.69597 5.43282 7.22928 5.85148 7.1688 6.40663L6.63481 11.3118C6.5645 11.9576 7.0712 12.522 7.72044 12.522H13.8116C14.4613 12.522 14.9675 11.9572 14.8973 11.3118L14.3632 6.40667ZM13.8116 11.8353H7.72044C7.4787 11.8353 7.29134 11.6261 7.31753 11.3861L7.85152 6.48101C7.87393 6.27495 8.0472 6.11957 8.25443 6.11957H8.68004V6.79851C8.68004 6.98814 8.83379 7.14188 9.02342 7.14188C9.21305 7.14188 9.3668 6.98814 9.3668 6.79851V4.63764C9.3668 3.86607 9.99449 3.23838 10.766 3.23838C11.5376 3.23838 12.1653 3.86607 12.1653 4.63764V5.43277H10.3822C10.1926 5.43277 10.0389 5.58652 10.0389 5.77615C10.0389 5.96578 10.1926 6.11952 10.3822 6.11952H12.1653V6.79847C12.1653 6.98809 12.319 7.14184 12.5086 7.14184C12.6983 7.14184 12.852 6.98809 12.852 6.79847V6.11952H13.2776C13.4849 6.11952 13.6581 6.2749 13.6805 6.48097L14.2145 11.3861C14.2407 11.6263 14.0531 11.8353 13.8116 11.8353Z" fill="#00AC4E"/>
</svg>
