<svg width="6" height="6" viewBox="0 0 6 6" fill="none" xmlns="http://www.w3.org/2000/svg">
<g id="Icon/Fill/star">
<path id="Mask" fill-rule="evenodd" clip-rule="evenodd" d="M3.98245 4.97328C3.94773 4.97328 3.91279 4.96515 3.88071 4.94845L2.76025 4.36306L1.64002 4.94845C1.56575 4.9869 1.47609 4.98031 1.40885 4.93109C1.34117 4.88187 1.30755 4.79858 1.32183 4.71618L1.5352 3.47949L0.629873 2.60382C0.569664 2.54559 0.547909 2.45813 0.573619 2.37815C0.599329 2.2986 0.668107 2.24037 0.751169 2.22851L2.00369 2.04656L2.56359 0.920173C2.63786 0.77075 2.88287 0.77075 2.95714 0.920173L3.51704 2.04656L4.76956 2.22851C4.85262 2.24037 4.9214 2.2986 4.94711 2.37815C4.97282 2.45813 4.95106 2.54559 4.89085 2.60382L3.98552 3.47949L4.19889 4.71618C4.21317 4.79858 4.17933 4.88187 4.11187 4.93109C4.07364 4.95921 4.02815 4.97328 3.98245 4.97328Z" fill="black"/>
<mask id="mask0" mask-type="alpha" maskUnits="userSpaceOnUse" x="0" y="0" width="5" height="5">
<path id="Mask_2" fill-rule="evenodd" clip-rule="evenodd" d="M3.98245 4.97328C3.94773 4.97328 3.91279 4.96515 3.88071 4.94845L2.76025 4.36306L1.64002 4.94845C1.56575 4.9869 1.47609 4.98031 1.40885 4.93109C1.34117 4.88187 1.30755 4.79858 1.32183 4.71618L1.5352 3.47949L0.629873 2.60382C0.569664 2.54559 0.547909 2.45813 0.573619 2.37815C0.599329 2.2986 0.668107 2.24037 0.751169 2.22851L2.00369 2.04656L2.56359 0.920173C2.63786 0.77075 2.88287 0.77075 2.95714 0.920173L3.51704 2.04656L4.76956 2.22851C4.85262 2.24037 4.9214 2.2986 4.94711 2.37815C4.97282 2.45813 4.95106 2.54559 4.89085 2.60382L3.98552 3.47949L4.19889 4.71618C4.21317 4.79858 4.17933 4.88187 4.11187 4.93109C4.07364 4.95921 4.02815 4.97328 3.98245 4.97328Z" fill="white"/>
</mask>
<g mask="url(#mask0)">
<g id="&#240;&#159;&#142;&#168; Color">
<rect id="Base" x="0.123291" y="0.358398" width="5.27376" height="5.27376" fill="#00AC4E"/>
</g>
</g>
</g>
</svg>
