<svg width="13" height="13" viewBox="0 0 13 13" fill="none" xmlns="http://www.w3.org/2000/svg">
<g id="Icon/Fill/star">
<path id="Mask" fill-rule="evenodd" clip-rule="evenodd" d="M9.74029 10.9059C9.6608 10.9059 9.58081 10.8873 9.50736 10.8491L6.94214 9.50887L4.37742 10.8491C4.20738 10.9371 4.00212 10.922 3.84818 10.8093C3.69323 10.6966 3.61626 10.506 3.64896 10.3173L4.13745 7.48597L2.06475 5.48119C1.9269 5.34787 1.8771 5.14764 1.93596 4.96452C1.99482 4.78241 2.15229 4.64909 2.34245 4.62192L5.21002 4.20537L6.49188 1.62657C6.66192 1.28447 7.22286 1.28447 7.3929 1.62657L8.67476 4.20537L11.5423 4.62192C11.7325 4.64909 11.89 4.78241 11.9488 4.96452C12.0077 5.14764 11.9579 5.34787 11.82 5.48119L9.74733 7.48597L10.2358 10.3173C10.2685 10.506 10.191 10.6966 10.0366 10.8093C9.94907 10.8737 9.84493 10.9059 9.74029 10.9059Z" fill="black"/>
<mask id="mask0" mask-type="alpha" maskUnits="userSpaceOnUse" x="1" y="1" width="11" height="10">
<path id="Mask_2" fill-rule="evenodd" clip-rule="evenodd" d="M9.74029 10.9059C9.6608 10.9059 9.58081 10.8873 9.50736 10.8491L6.94214 9.50887L4.37742 10.8491C4.20738 10.9371 4.00212 10.922 3.84818 10.8093C3.69323 10.6966 3.61626 10.506 3.64896 10.3173L4.13745 7.48597L2.06475 5.48119C1.9269 5.34787 1.8771 5.14764 1.93596 4.96452C1.99482 4.78241 2.15229 4.64909 2.34245 4.62192L5.21002 4.20537L6.49188 1.62657C6.66192 1.28447 7.22286 1.28447 7.3929 1.62657L8.67476 4.20537L11.5423 4.62192C11.7325 4.64909 11.89 4.78241 11.9488 4.96452C12.0077 5.14764 11.9579 5.34787 11.82 5.48119L9.74733 7.48597L10.2358 10.3173C10.2685 10.506 10.191 10.6966 10.0366 10.8093C9.94907 10.8737 9.84493 10.9059 9.74029 10.9059Z" fill="white"/>
</mask>
<g mask="url(#mask0)">
<g id="&#240;&#159;&#142;&#168; Color">
<rect id="Base" x="0.905273" y="0.340576" width="12.074" height="12.074" fill="#00AC4E"/>
</g>
</g>
</g>
</svg>
