<svg width="8" height="9" viewBox="0 0 8 9" fill="none" xmlns="http://www.w3.org/2000/svg">
<path fill-rule="evenodd" clip-rule="evenodd" d="M5.54485 7.31408C5.49575 7.31408 5.44635 7.30258 5.40099 7.27897L3.81674 6.45127L2.23281 7.27897C2.12779 7.33334 2.00103 7.32402 1.90595 7.25442C1.81026 7.18483 1.76272 7.06707 1.78292 6.95056L2.08461 5.20196L0.804531 3.96383C0.7194 3.88149 0.688641 3.75783 0.724992 3.64474C0.761344 3.53227 0.858592 3.44993 0.976036 3.43315L2.74701 3.1759L3.53867 1.58326C3.64369 1.37199 3.99011 1.37199 4.09513 1.58326L4.88679 3.1759L6.65776 3.43315C6.77521 3.44993 6.87246 3.53227 6.90881 3.64474C6.94516 3.75783 6.9144 3.88149 6.82927 3.96383L5.54919 5.20196L5.85088 6.95056C5.87108 7.06707 5.82323 7.18483 5.72785 7.25442C5.67378 7.29419 5.60947 7.31408 5.54485 7.31408Z" fill="black"/>
<mask id="mask0" mask-type="alpha" maskUnits="userSpaceOnUse" x="0" y="1" width="7" height="7">
<path fill-rule="evenodd" clip-rule="evenodd" d="M5.54485 7.31408C5.49575 7.31408 5.44635 7.30258 5.40099 7.27897L3.81674 6.45127L2.23281 7.27897C2.12779 7.33334 2.00103 7.32402 1.90595 7.25442C1.81026 7.18483 1.76272 7.06707 1.78292 6.95056L2.08461 5.20196L0.804531 3.96383C0.7194 3.88149 0.688641 3.75783 0.724992 3.64474C0.761344 3.53227 0.858592 3.44993 0.976036 3.43315L2.74701 3.1759L3.53867 1.58326C3.64369 1.37199 3.99011 1.37199 4.09513 1.58326L4.88679 3.1759L6.65776 3.43315C6.77521 3.44993 6.87246 3.53227 6.90881 3.64474C6.94516 3.75783 6.9144 3.88149 6.82927 3.96383L5.54919 5.20196L5.85088 6.95056C5.87108 7.06707 5.82323 7.18483 5.72785 7.25442C5.67378 7.29419 5.60947 7.31408 5.54485 7.31408Z" fill="white"/>
</mask>
<g mask="url(#mask0)">
<rect x="0.0878906" y="0.789062" width="7.45674" height="7.45674" fill="#00AC4E"/>
</g>
</svg>
