<svg width="8" height="9" viewBox="0 0 8 9" fill="none" xmlns="http://www.w3.org/2000/svg">
<g id="Icon/Fill/star">
<path id="Mask" fill-rule="evenodd" clip-rule="evenodd" d="M5.85295 7.62074C5.80235 7.62074 5.75142 7.60889 5.70465 7.58455L4.07141 6.73125L2.43848 7.58455C2.33021 7.6406 2.19953 7.63099 2.10151 7.55924C2.00286 7.48749 1.95385 7.3661 1.97467 7.24598L2.28569 5.44329L0.966025 4.16687C0.878261 4.08199 0.84655 3.9545 0.884026 3.83791C0.921502 3.72196 1.02176 3.63708 1.14283 3.61978L2.96859 3.35457L3.78473 1.71267C3.89299 1.49486 4.25014 1.49486 4.3584 1.71267L5.17454 3.35457L7.0003 3.61978C7.12137 3.63708 7.22163 3.72196 7.2591 3.83791C7.29658 3.9545 7.26487 4.08199 7.17711 4.16687L5.85744 5.44329L6.16846 7.24598C6.18928 7.3661 6.13995 7.48749 6.04162 7.55924C5.98588 7.60024 5.91958 7.62074 5.85295 7.62074Z" fill="black"/>
<mask id="mask0" mask-type="alpha" maskUnits="userSpaceOnUse" x="0" y="1" width="8" height="7">
<path id="Mask_2" fill-rule="evenodd" clip-rule="evenodd" d="M5.85295 7.62074C5.80235 7.62074 5.75142 7.60889 5.70465 7.58455L4.07141 6.73125L2.43848 7.58455C2.33021 7.6406 2.19953 7.63099 2.10151 7.55924C2.00286 7.48749 1.95385 7.3661 1.97467 7.24598L2.28569 5.44329L0.966025 4.16687C0.878261 4.08199 0.84655 3.9545 0.884026 3.83791C0.921502 3.72196 1.02176 3.63708 1.14283 3.61978L2.96859 3.35457L3.78473 1.71267C3.89299 1.49486 4.25014 1.49486 4.3584 1.71267L5.17454 3.35457L7.0003 3.61978C7.12137 3.63708 7.22163 3.72196 7.2591 3.83791C7.29658 3.9545 7.26487 4.08199 7.17711 4.16687L5.85744 5.44329L6.16846 7.24598C6.18928 7.3661 6.13995 7.48749 6.04162 7.55924C5.98588 7.60024 5.91958 7.62074 5.85295 7.62074Z" fill="white"/>
</mask>
<g mask="url(#mask0)">
<g id="&#240;&#159;&#142;&#168; Color">
<rect id="Base" x="0.227844" y="0.894043" width="7.68738" height="7.68738" fill="#00AC4E"/>
</g>
</g>
</g>
</svg>
