<svg width="10" height="10" viewBox="0 0 10 10" fill="none" xmlns="http://www.w3.org/2000/svg">
<path fill-rule="evenodd" clip-rule="evenodd" d="M6.93785 8.14165C6.87714 8.14165 6.81603 8.12743 6.75993 8.09822L4.80043 7.07447L2.84132 8.09822C2.71143 8.16547 2.55464 8.15395 2.43704 8.06786C2.31868 7.98178 2.25989 7.83614 2.28486 7.69203L2.65801 5.52924L1.07473 3.99784C0.969438 3.89601 0.931393 3.74306 0.976355 3.60318C1.02132 3.46406 1.1416 3.36223 1.28686 3.34148L3.47732 3.02328L4.45649 1.05341C4.58638 0.792092 5.01486 0.792092 5.14475 1.05341L6.12393 3.02328L8.31438 3.34148C8.45965 3.36223 8.57993 3.46406 8.62489 3.60318C8.66985 3.74306 8.63181 3.89601 8.52651 3.99784L6.94323 5.52924L7.31638 7.69203C7.34136 7.83614 7.28218 7.98178 7.1642 8.06786C7.09734 8.11705 7.01779 8.14165 6.93785 8.14165Z" fill="black"/>
<mask id="mask0" mask-type="alpha" maskUnits="userSpaceOnUse" x="0" y="0" width="9" height="9">
<path fill-rule="evenodd" clip-rule="evenodd" d="M6.93785 8.14165C6.87714 8.14165 6.81603 8.12743 6.75993 8.09822L4.80043 7.07447L2.84132 8.09822C2.71143 8.16547 2.55464 8.15395 2.43704 8.06786C2.31868 7.98178 2.25989 7.83614 2.28486 7.69203L2.65801 5.52924L1.07473 3.99784C0.969438 3.89601 0.931393 3.74306 0.976355 3.60318C1.02132 3.46406 1.1416 3.36223 1.28686 3.34148L3.47732 3.02328L4.45649 1.05341C4.58638 0.792092 5.01486 0.792092 5.14475 1.05341L6.12393 3.02328L8.31438 3.34148C8.45965 3.36223 8.57993 3.46406 8.62489 3.60318C8.66985 3.74306 8.63181 3.89601 8.52651 3.99784L6.94323 5.52924L7.31638 7.69203C7.34136 7.83614 7.28218 7.98178 7.1642 8.06786C7.09734 8.11705 7.01779 8.14165 6.93785 8.14165Z" fill="white"/>
</mask>
<g mask="url(#mask0)">
<rect x="0.189209" y="0.0712891" width="9.22297" height="9.22297" fill="#EBEBEB"/>
</g>
</svg>
