<svg width="10" height="10" viewBox="0 0 10 10" fill="none" xmlns="http://www.w3.org/2000/svg">
<path fill-rule="evenodd" clip-rule="evenodd" d="M6.74865 8.14165C6.68793 8.14165 6.62683 8.12743 6.57072 8.09822L4.61122 7.07447L2.65211 8.09822C2.52222 8.16547 2.36543 8.15395 2.24783 8.06786C2.12947 7.98178 2.07068 7.83614 2.09566 7.69203L2.4688 5.52924L0.885525 3.99784C0.780229 3.89601 0.742184 3.74306 0.787146 3.60318C0.832108 3.46406 0.952391 3.36223 1.09765 3.34148L3.28811 3.02328L4.26728 1.05341C4.39717 0.792092 4.82566 0.792092 4.95555 1.05341L5.93472 3.02328L8.12517 3.34148C8.27044 3.36223 8.39072 3.46406 8.43568 3.60318C8.48064 3.74306 8.4426 3.89601 8.3373 3.99784L6.75403 5.52924L7.12717 7.69203C7.15215 7.83614 7.09297 7.98178 6.97499 8.06786C6.90813 8.11705 6.82858 8.14165 6.74865 8.14165Z" fill="black"/>
<mask id="mask0" mask-type="alpha" maskUnits="userSpaceOnUse" x="0" y="0" width="9" height="9">
<path fill-rule="evenodd" clip-rule="evenodd" d="M6.74865 8.14165C6.68793 8.14165 6.62683 8.12743 6.57072 8.09822L4.61122 7.07447L2.65211 8.09822C2.52222 8.16547 2.36543 8.15395 2.24783 8.06786C2.12947 7.98178 2.07068 7.83614 2.09566 7.69203L2.4688 5.52924L0.885525 3.99784C0.780229 3.89601 0.742184 3.74306 0.787146 3.60318C0.832108 3.46406 0.952391 3.36223 1.09765 3.34148L3.28811 3.02328L4.26728 1.05341C4.39717 0.792092 4.82566 0.792092 4.95555 1.05341L5.93472 3.02328L8.12517 3.34148C8.27044 3.36223 8.39072 3.46406 8.43568 3.60318C8.48064 3.74306 8.4426 3.89601 8.3373 3.99784L6.75403 5.52924L7.12717 7.69203C7.15215 7.83614 7.09297 7.98178 6.97499 8.06786C6.90813 8.11705 6.82858 8.14165 6.74865 8.14165Z" fill="white"/>
</mask>
<g mask="url(#mask0)">
<rect y="0.0712891" width="9.22297" height="9.22297" fill="#00AC4E"/>
</g>
</svg>
