<svg width="8" height="9" viewBox="0 0 8 9" fill="none" xmlns="http://www.w3.org/2000/svg">
<path fill-rule="evenodd" clip-rule="evenodd" d="M5.85228 7.62074C5.80167 7.62074 5.75075 7.60889 5.70398 7.58455L4.07073 6.73125L2.43781 7.58455C2.32954 7.6406 2.19886 7.63099 2.10084 7.55924C2.00219 7.48749 1.95318 7.3661 1.974 7.24598L2.28502 5.44329L0.965354 4.16687C0.877589 4.08199 0.845879 3.9545 0.883355 3.83791C0.920831 3.72196 1.02109 3.63708 1.14216 3.61978L2.96792 3.35457L3.78406 1.71267C3.89232 1.49486 4.24947 1.49486 4.35773 1.71267L5.17387 3.35457L6.99962 3.61978C7.1207 3.63708 7.22096 3.72196 7.25843 3.83791C7.29591 3.9545 7.2642 4.08199 7.17643 4.16687L5.85677 5.44329L6.16779 7.24598C6.18861 7.3661 6.13928 7.48749 6.04094 7.55924C5.98521 7.60024 5.91891 7.62074 5.85228 7.62074Z" fill="black"/>
<mask id="mask0" mask-type="alpha" maskUnits="userSpaceOnUse" x="0" y="1" width="8" height="7">
<path fill-rule="evenodd" clip-rule="evenodd" d="M5.85228 7.62074C5.80167 7.62074 5.75075 7.60889 5.70398 7.58455L4.07073 6.73125L2.43781 7.58455C2.32954 7.6406 2.19886 7.63099 2.10084 7.55924C2.00219 7.48749 1.95318 7.3661 1.974 7.24598L2.28502 5.44329L0.965354 4.16687C0.877589 4.08199 0.845879 3.9545 0.883355 3.83791C0.920831 3.72196 1.02109 3.63708 1.14216 3.61978L2.96792 3.35457L3.78406 1.71267C3.89232 1.49486 4.24947 1.49486 4.35773 1.71267L5.17387 3.35457L6.99962 3.61978C7.1207 3.63708 7.22096 3.72196 7.25843 3.83791C7.29591 3.9545 7.2642 4.08199 7.17643 4.16687L5.85677 5.44329L6.16779 7.24598C6.18861 7.3661 6.13928 7.48749 6.04094 7.55924C5.98521 7.60024 5.91891 7.62074 5.85228 7.62074Z" fill="white"/>
</mask>
<g mask="url(#mask0)">
<rect x="0.227173" y="0.894043" width="7.68738" height="7.68738" fill="#EBEBEB"/>
</g>
</svg>
