<svg width="13" height="13" viewBox="0 0 13 13" fill="none" xmlns="http://www.w3.org/2000/svg">
<path fill-rule="evenodd" clip-rule="evenodd" d="M9.13482 10.9059C9.05533 10.9059 8.97534 10.8873 8.90189 10.8491L6.33667 9.50887L3.77195 10.8491C3.60191 10.9371 3.39665 10.922 3.24271 10.8093C3.08776 10.6966 3.01079 10.506 3.04349 10.3173L3.53198 7.48597L1.45928 5.48119C1.32144 5.34787 1.27163 5.14764 1.33049 4.96452C1.38935 4.78241 1.54682 4.64909 1.73698 4.62192L4.60456 4.20537L5.88641 1.62657C6.05645 1.28447 6.61739 1.28447 6.78743 1.62657L8.06929 4.20537L10.9369 4.62192C11.127 4.64909 11.2845 4.78241 11.3434 4.96452C11.4022 5.14764 11.3524 5.34787 11.2146 5.48119L9.14186 7.48597L9.63035 10.3173C9.66305 10.506 9.58558 10.6966 9.43113 10.8093C9.3436 10.8737 9.23946 10.9059 9.13482 10.9059Z" fill="black"/>
<mask id="mask0" mask-type="alpha" maskUnits="userSpaceOnUse" x="1" y="1" width="11" height="10">
<path fill-rule="evenodd" clip-rule="evenodd" d="M9.13482 10.9059C9.05533 10.9059 8.97534 10.8873 8.90189 10.8491L6.33667 9.50887L3.77195 10.8491C3.60191 10.9371 3.39665 10.922 3.24271 10.8093C3.08776 10.6966 3.01079 10.506 3.04349 10.3173L3.53198 7.48597L1.45928 5.48119C1.32144 5.34787 1.27163 5.14764 1.33049 4.96452C1.38935 4.78241 1.54682 4.64909 1.73698 4.62192L4.60456 4.20537L5.88641 1.62657C6.05645 1.28447 6.61739 1.28447 6.78743 1.62657L8.06929 4.20537L10.9369 4.62192C11.127 4.64909 11.2845 4.78241 11.3434 4.96452C11.4022 5.14764 11.3524 5.34787 11.2146 5.48119L9.14186 7.48597L9.63035 10.3173C9.66305 10.506 9.58558 10.6966 9.43113 10.8093C9.3436 10.8737 9.23946 10.9059 9.13482 10.9059Z" fill="white"/>
</mask>
<g mask="url(#mask0)">
<rect x="0.299927" y="0.340576" width="12.074" height="12.074" fill="#EBEBEB"/>
</g>
</svg>
