<svg width="11" height="11" viewBox="0 0 11 11" fill="none" xmlns="http://www.w3.org/2000/svg">
<circle cx="5.4385" cy="5.44997" r="5.1404" fill="#00AC4E"/>
<path d="M5.66196 3.43848C4.42961 3.43848 3.42701 4.29331 3.42701 5.34407C3.42701 5.71143 3.54971 6.06721 3.78222 6.37479C3.73819 6.83615 3.62018 7.17867 3.44884 7.34092C3.42619 7.36238 3.42053 7.3952 3.43483 7.4223C3.44757 7.44651 3.47357 7.4614 3.50151 7.4614C3.50493 7.4614 3.50843 7.46119 3.51194 7.46069C3.54211 7.45667 4.24299 7.36104 4.74988 7.08395C5.03781 7.19398 5.34445 7.24967 5.66196 7.24967C6.89432 7.24967 7.89692 6.39483 7.89692 5.34407C7.89692 4.29331 6.89432 3.43848 5.66196 3.43848Z" fill="white"/>
</svg>
