<?xml version="1.0" encoding="utf-8"?>
<!-- Generator: Adobe Illustrator 24.0.2, SVG Export Plug-In . SVG Version: 6.00 Build 0)  -->
<svg version="1.1" id="Слой_1" xmlns="http://www.w3.org/2000/svg" xmlns:xlink="http://www.w3.org/1999/xlink" x="0px" y="0px"
	 viewBox="0 0 32 42" style="enable-background:new 0 0 32 42;" xml:space="preserve">
<style type="text/css">
	.st0{fill-rule:evenodd;clip-rule:evenodd;fill:#12C2E9;}
</style>
<path class="st0" d="M31.8,9.6c-0.3-0.5-0.9-0.6-1.4-0.3c0,0-0.1,0.1-0.1,0.1c-1.9,1.7-2,1.8-2.5,2.3l-2.7-0.4l-0.3,0.7
	c0.3,0.7,0.4,1.5,0.1,2.2l0.5,0.1c-0.7,1-1.3,2-1.8,3.1c-0.1,1.7,0.1,3.3,0.5,5c0.6-2.8,1.9-5.5,3.7-7.7l1.1,0.1
	c0.8,0.1,1.6-0.4,1.7-1.3c0.1-0.5-0.1-1-0.4-1.3l1.5-1.4C32,10.6,32.1,10.1,31.8,9.6z M23.9,8.4c-0.5-0.2-1.1,0.1-1.3,0.6l-0.5,1.4
	c0.7,0,1.4,0.2,1.9,0.6l0.5-1.3C24.7,9.2,24.5,8.6,23.9,8.4C23.9,8.4,23.9,8.4,23.9,8.4z M25.4,38.6c1.7-0.4,2.9-2,2.9-3.7
	c0-0.6-0.2-1.3-0.5-1.9c-0.3-0.6-0.8-1.1-1.4-1.4l-2.5-6.5c-1.1-2.8-1.5-5.8-1.2-8.9c-0.1,0,0,0-2.1,0.2c-0.3,3.2,0.2,6.4,1.3,9.4
	l2,5.1l-1.3-0.2l-1.2-3.1l-0.3,2.9l-3.8-0.5c-0.3,0.5-0.7,0.8-1.2,1.1l0.6,0c0.7,0,1.2,0.5,1.2,1.2s-0.5,1.2-1.2,1.2c0,0,0,0,0,0
	c-0.5,0-3.8-0.2-4.2-0.2c-0.6,0-1.2-0.6-1.1-1.2c0,0,0,0,0,0c0-0.7,0.6-1.2,1.3-1.1c0,0,0.1,0,0.1,0c-0.6-0.4-1-1-1.2-1.7l-2.1-0.3
	l1-3.2c0.1-0.2,0.1-0.5,0.1-0.7l-0.4-3.5C9,21.5,7.8,21.3,6.7,21l0.4,4.2L6,28.5c-3.5,0.2-6.2,3.2-6,6.8c0.1,1.7,0.8,3.3,2.1,4.4
	l-1,0.9c-0.3,0.3-0.4,0.8,0,1.2s0.8,0.4,1.2,0c0,0,0,0,0,0l1.2-1.2c0.9,0.5,2,0.7,3,0.7c1,0,16.9-2.4,16.9-2.4l2.9,2.9
	c0.3,0.3,0.8,0.3,1.2,0c0.3-0.3,0.3-0.8,0-1.1c0,0,0,0,0,0L25.4,38.6z M10.3,35.1c-0.1,2.1-1.9,3.8-4,3.7c-2.1-0.1-3.8-1.9-3.7-4
	c0.1-2,1.7-3.6,3.7-3.7c2.1-0.1,4,1.5,4.1,3.7C10.3,34.8,10.3,35,10.3,35.1L10.3,35.1z M17.7,0.4c-1.6-0.8-3.6-0.2-4.4,1.4
	c-0.8,1.6-0.2,3.6,1.4,4.4s3.6,0.2,4.4-1.4c0.1-0.1,0.1-0.3,0.2-0.4C19.8,2.8,19.1,1.1,17.7,0.4L17.7,0.4z M22,11.9l-5.1,0.6
	l-3.1-3.7c0.7,0.5,1.6,1.2,3.1,2.2l3.7-0.4c0,0-5.5-2.4-8.8-3.9C10.8,6.3,9.6,6.9,9.2,8c0,0,0,0.1,0,0.1c-0.3,0.9-2.9,7.5-3.3,8.6
	c-0.5,1.1,0,2.4,1,2.9c0.4,0.2,0,0.1,6.7,1.3l-0.8,7.4c-0.1,1,0.6,1.9,1.6,2c1,0.1,1.9-0.6,2-1.6l1-9c0.1-0.9-0.5-1.8-1.4-1.9
	l-2.8-0.5l0.7-1.7c-0.2-0.5-2-4.3-2.3-4.8l3.6,4.3c0.3,0.4,0.8,0.6,1.3,0.5l5.9-0.6c0.8-0.1,1.3-0.7,1.4-1.5c0-0.8-0.7-1.5-1.5-1.5
	C22.1,11.9,22.1,11.9,22,11.9z"/>
</svg>
