<?xml version="1.0" encoding="utf-8"?>
<!-- Generator: Adobe Illustrator 24.0.2, SVG Export Plug-In . SVG Version: 6.00 Build 0)  -->
<svg version="1.1" id="Слой_1" xmlns="http://www.w3.org/2000/svg" xmlns:xlink="http://www.w3.org/1999/xlink" x="0px" y="0px"
	 viewBox="0 0 45 42" style="enable-background:new 0 0 45 42;" xml:space="preserve">
<style type="text/css">
	.st0{fill-rule:evenodd;clip-rule:evenodd;fill:#12C2E9;}
</style>
<path class="st0" d="M43.6,7.4h-1.2v-4c0-0.4-0.3-0.7-0.7-0.8c0,0,0,0,0,0h-2.1c-0.4,0-0.7,0.3-0.8,0.7c0,0,0,0,0,0v4h-2.6
	c0.1-1.1-0.7-2.2-1.9-2.3C33.2,5,32.2,5.8,32.1,7l0,0.4h-3.6c-1.5,3.3-5.4,4.7-8.6,3.2c-1.4-0.6-2.5-1.8-3.2-3.2H13l0-0.4
	c-0.1-1.1-1.1-2-2.3-1.9c-1.1,0.1-2,1.1-1.9,2.3H6.2v-4c0-0.4-0.3-0.7-0.7-0.8c0,0,0,0,0,0h-2C2.9,2.6,2.6,3,2.6,3.4c0,0,0,0,0,0v4
	H1.4C0.6,7.4,0,8,0,8.8c0,0.8,0.6,1.4,1.4,1.4h1.2v4c0,0.4,0.3,0.7,0.7,0.8c0,0,0,0,0,0h2c0.4,0,0.7-0.3,0.8-0.7c0,0,0,0,0,0v-4h2.9
	c0.1,0.9,0.7,6.9,0.8,7.7c0.1,1.1,1.2,2,2.3,1.9c0.5-0.1,1-0.3,1.3-0.7l2.9-3.4v8l-7.6,3.1C8,27.2,7.4,28,7.2,29l-1.5,9.9
	c-0.2,1.5,0.8,2.9,2.3,3.1c1.5,0.2,2.8-0.8,3-2.2l1.3-8.4l7-2.9h6.2l7,2.9l1.3,8.4c0.2,1.5,1.6,2.5,3.1,2.3c1.5-0.2,2.5-1.6,2.3-3.1
	L37.8,29c-0.1-0.9-0.8-1.7-1.7-2.1l-7.6-3.1v-8l3,3.4c0.8,0.9,2.1,0.9,2.9,0.2c0.4-0.3,0.6-0.8,0.7-1.3c0.1-0.9,0.7-6.9,0.8-7.7h2.9
	v4c0,0.4,0.3,0.7,0.7,0.8c0,0,0,0,0,0h2c0.4,0,0.7-0.3,0.8-0.7c0,0,0,0,0,0v-4h1.2c0.8,0,1.4-0.7,1.4-1.5C44.9,8,44.3,7.4,43.6,7.4z
	 M13.6,12.8c-0.1-1.1-0.2-1.5-0.3-2.6h2.5C14.9,11.3,14.5,11.8,13.6,12.8L13.6,12.8z M31.4,12.8c-1-1.2,0.3,0.3-2.2-2.6h2.5
	C31.5,12.2,31.6,11.7,31.4,12.8z M22.5,0c2.6,0,4.7,2.1,4.7,4.7c0,2.6-2.1,4.7-4.7,4.7c-2.6,0-4.7-2.1-4.7-4.7
	C17.8,2.1,19.9,0,22.5,0C22.5,0,22.5,0,22.5,0z"/>
</svg>
