<?xml version="1.0" encoding="utf-8"?>
<!-- Generator: Adobe Illustrator 24.0.2, SVG Export Plug-In . SVG Version: 6.00 Build 0)  -->
<svg version="1.1" id="Слой_1" xmlns="http://www.w3.org/2000/svg" xmlns:xlink="http://www.w3.org/1999/xlink" x="0px" y="0px"
	 viewBox="0 0 53 53" style="enable-background:new 0 0 53 53;" xml:space="preserve">
<style type="text/css">
	.st0{fill-rule:evenodd;clip-rule:evenodd;fill:#FFFFFF;}
</style>
<path id="play" class="st0" d="M50.1,14.4c-1.9-3.6-4.6-6.8-7.8-9.2c-0.5-0.4-1.2-0.3-1.5,0.2S40.5,6.6,41,6.9
	c3,2.2,5.5,5.1,7.2,8.5c1.8,3.4,2.7,7.3,2.7,11.1c0,13.4-10.9,24.3-24.3,24.3c-13.4,0-24.3-10.9-24.3-24.3
	c0-13.4,10.9-24.3,24.3-24.3l0,0c0.6,0,1.1-0.5,1.1-1.1c0-0.6-0.5-1.1-1.1-1.1C11.9,0,0,11.9,0,26.5S11.9,53,26.5,53
	S53,41.1,53,26.5C53,22.3,52,18.1,50.1,14.4z M19.7,14.2c-0.3,0.2-0.5,0.6-0.6,0.9v23.7c0,0.6,0.5,1.1,1.1,1.1
	c0.6,0,1.1-0.5,1.1-1.1V17l16,9.5l-11.7,7.6c-0.5,0.3-0.7,1-0.3,1.5c0.3,0.5,1,0.7,1.5,0.3c0,0,0,0,0,0l13.2-8.5
	c0.3-0.2,0.5-0.6,0.5-0.9c0-0.4-0.2-0.7-0.5-0.9L20.8,14.2C20.5,14,20.1,14,19.7,14.2z"/>
</svg>
