<?xml version="1.0" encoding="utf-8"?>
<!-- Generator: Adobe Illustrator 24.0.2, SVG Export Plug-In . SVG Version: 6.00 Build 0)  -->
<svg version="1.1" id="Слой_1" xmlns="http://www.w3.org/2000/svg" xmlns:xlink="http://www.w3.org/1999/xlink" x="0px" y="0px"
	 viewBox="0 0 47.1 42" style="enable-background:new 0 0 47.1 42;" xml:space="preserve">
<style type="text/css">
	.st0{fill-rule:evenodd;clip-rule:evenodd;fill:#12C2E9;}
</style>
<path id="spa_" class="st0" d="M30.7,42H0v-2.9c0.6,0.5,1.3,0.7,2,0.7h26.5L30.7,42z M13.3,0c-1.6,0-3,1.3-3,3c0,1,0.5,1.9,1.3,2.5
	c0.7-1.9,2.2-3.4,4.1-4.1C15.2,0.5,14.3,0,13.3,0z M12.4,7.8c0,3.1,2.5,5.6,5.7,5.6c3.1,0,5.6-2.5,5.6-5.7c0-3.1-2.5-5.6-5.7-5.6
	c-2.4,0-4.5,1.5-5.3,3.8C12.5,6.5,12.4,7.2,12.4,7.8z M9.3,15.7C8,18.6,5.1,26.1,4.3,28h9.9c0.2-0.5,0.5-1,0.7-1.6
	c0.9-1.7,3.8-2.6,3.2-5c0,0,0,0,0-0.1l2.6,2.5c0.2,0.2,0.4,0.3,0.7,0.4l7.1,2.7c0.2,0.1,0.5,0.1,0.7,0.1c1.1,0,2-0.9,2-2.1
	c0-0.8-0.5-1.6-1.3-1.9l-6.3-2.4c-0.3-0.1-0.6-0.3-0.8-0.5c0,0-5.5-5.3-5.6-5.3c-0.2-0.2-0.5-0.4-0.9-0.5c-0.1,0-0.2-0.1-0.2-0.1
	s-0.2-0.1-0.3-0.1c-1.4-0.4-2.9-0.6-4.3-0.6c-0.5,0-1,0.2-1.4,0.4C9.8,14.6,9.5,15.1,9.3,15.7L9.3,15.7z M2,38.6h27l2.6,2.6
	c0.2,0.3,0.5,0.4,0.8,0.6c0.3,0.1,0.6,0.2,1,0.2h11c1.4,0,2.6-1.2,2.5-2.6s-1.2-2.6-2.6-2.5h-9.9L27.8,30c-0.4-0.5-1.1-0.8-1.8-0.8
	c-1.6,0-24,0-24,0c-1.1,0-2,0.9-2,2c0,0,0,0,0,0v5.3C0,37.7,0.9,38.6,2,38.6C2,38.6,2,38.6,2,38.6z M43.4,29.2
	c0-3.3-2.6-5.9-5.9-5.9c-3.3,0-5.9,2.6-5.9,5.9c0,3.3,2.6,5.9,5.9,5.9c0,0,0,0,0,0C40.7,35.1,43.4,32.5,43.4,29.2L43.4,29.2z"/>
</svg>
