<?xml version="1.0" encoding="utf-8"?>
<!-- Generator: Adobe Illustrator 24.0.2, SVG Export Plug-In . SVG Version: 6.00 Build 0)  -->
<svg version="1.1" id="Слой_1" xmlns="http://www.w3.org/2000/svg" xmlns:xlink="http://www.w3.org/1999/xlink" x="0px" y="0px"
	 viewBox="0 0 14 13.3" style="enable-background:new 0 0 14 13.3;" xml:space="preserve">
<style type="text/css">
	.st0{fill-rule:evenodd;clip-rule:evenodd;fill:#ED213A;}
</style>
<path id="star" class="st0" d="M14,5c0-0.1-0.1-0.2-0.2-0.2L9.3,4.2l-2-4.1C7.2,0,7,0,6.9,0c0,0-0.1,0.1-0.1,0.1l-2,4.1L0.2,4.9
	C0.1,4.9,0,5,0,5c0,0.1,0,0.2,0.1,0.3l3.3,3.2L2.6,13c0,0.1,0,0.2,0.1,0.2c0.1,0.1,0.2,0.1,0.3,0L7,11.1l4.1,2.1c0,0,0.1,0,0.1,0
	c0.1,0,0.1,0,0.1-0.1c0.1-0.1,0.1-0.1,0.1-0.2l-0.8-4.5l3.3-3.2C14,5.2,14,5.1,14,5z"/>
</svg>
