<?xml version="1.0" encoding="utf-8"?>
<!-- Generator: Adobe Illustrator 24.0.2, SVG Export Plug-In . SVG Version: 6.00 Build 0)  -->
<svg version="1.1" id="Слой_1" xmlns="http://www.w3.org/2000/svg" xmlns:xlink="http://www.w3.org/1999/xlink" x="0px" y="0px"
	 viewBox="0 0 15 14.3" style="enable-background:new 0 0 15 14.3;" xml:space="preserve">
<style type="text/css">
	.st0{fill-rule:evenodd;clip-rule:evenodd;fill:#ED213A;fill-opacity:0;stroke:#ED213A;stroke-linejoin:round;}
</style>
<path id="star_copy_4" class="st0" d="M14.5,5.5c0-0.1-0.1-0.2-0.2-0.2L9.8,4.7l-2-4.1C7.7,0.5,7.5,0.5,7.4,0.5
	c-0.1,0-0.1,0.1-0.1,0.1l-2,4.1L0.7,5.4c-0.1,0-0.2,0.1-0.2,0.2c0,0.1,0,0.2,0.1,0.3L3.9,9l-0.8,4.5c0,0.1,0,0.2,0.1,0.2
	c0.1,0.1,0.2,0.1,0.3,0l4.1-2.1l4.1,2.1c0,0,0.1,0,0.1,0c0.1,0,0.1,0,0.2-0.1c0.1-0.1,0.1-0.1,0.1-0.2L11.1,9l3.3-3.2
	C14.5,5.7,14.5,5.6,14.5,5.5z"/>
</svg>
