<svg width="24" height="24" viewBox="0 0 24 24" fill="none" xmlns="http://www.w3.org/2000/svg">
<path d="M12 8.74405C12.234 7.55387 13.547 2.12475 17.382 2.12475C19.602 2.12475 22 3.77293 22 7.44123C22 11.593 18.373 16.442 12 20.8616C5.627 16.442 2 11.593 2 7.44123C2 3.73893 4.369 2.12262 6.577 2.12262C10.5 2.12262 11.722 7.56981 12 8.74405ZM0 7.44123C0 11.7641 3.06 17.5163 12 23.3779C20.94 17.5163 24 11.7641 24 7.44123C24 -1.01966 14.352 -2.15245 12 3.47007C9.662 -2.12164 0 -1.06748 0 7.44123Z" fill="#2F3035"/>
</svg>
