<?xml version="1.0" encoding="utf-8"?>
<!-- Generator: Adobe Illustrator 24.0.2, SVG Export Plug-In . SVG Version: 6.00 Build 0)  -->
<svg version="1.1" id="Слой_1" xmlns="http://www.w3.org/2000/svg" xmlns:xlink="http://www.w3.org/1999/xlink" x="0px" y="0px"
	 viewBox="0 0 25 24" style="enable-background:new 0 0 25 24;" xml:space="preserve">
<style type="text/css">
	.st0{fill:#1C62CD;}
</style>
<path class="st0" d="M24.1,22.2l-5.7-5.3c1.9-1.8,3-4.2,3-7c0-5.5-4.7-9.9-10.5-9.9S0.4,4.4,0.4,9.9c0,5.5,4.7,9.9,10.5,9.9
	c2.2,0,4.3-0.7,6.1-1.8l5.8,5.5c0.2,0.2,0.4,0.2,0.7,0.2c0.2,0,0.5-0.1,0.7-0.2C24.5,23.1,24.5,22.6,24.1,22.2z M2.3,9.9
	c0-4.5,3.9-8.1,8.7-8.1c4.8,0,8.7,3.7,8.7,8.1c0,4.5-3.9,8.1-8.7,8.1C6.2,18,2.3,14.4,2.3,9.9z"/>
</svg>
