<?xml version="1.0" encoding="utf-8"?>
<!-- Generator: Adobe Illustrator 24.0.2, SVG Export Plug-In . SVG Version: 6.00 Build 0)  -->
<svg version="1.1" id="Слой_1" xmlns="http://www.w3.org/2000/svg" xmlns:xlink="http://www.w3.org/1999/xlink" x="0px" y="0px"
	 viewBox="0 0 4 8" style="enable-background:new 0 0 4 8;" xml:space="preserve">
<style type="text/css">
	.st0{fill-rule:evenodd;clip-rule:evenodd;fill:#FFFFFF;}
</style>
<path id="Rounded_Rectangle_2_copy_4" class="st0" d="M1,7.8l2.9-3.7C4,4,4,3.9,3.8,3.8H3.7c-0.2-0.1-0.4,0-0.6,0.1L0.2,7.5
	c0,0.2,0,0.3,0.1,0.4h0.1C0.6,8,0.8,8,1,7.8z M0.8,0.2L3.9,4C4,4.1,4,4.3,3.9,4.4H3.8c-0.2,0.1-0.4,0-0.6-0.1L0.1,0.5
	C0,0.4,0,0.2,0.1,0.1h0.1C0.4,0,0.7,0,0.8,0.2z"/>
</svg>
