<?xml version="1.0" encoding="utf-8"?>
<!-- Generator: Adobe Illustrator 24.0.0, SVG Export Plug-In . SVG Version: 6.00 Build 0)  -->
<svg version="1.1" id="Слой_1" xmlns="http://www.w3.org/2000/svg" xmlns:xlink="http://www.w3.org/1999/xlink" x="0px" y="0px"
	 viewBox="0 0 17 16.7" style="enable-background:new 0 0 17 16.7;" xml:space="preserve">
<style type="text/css">
	.st0{fill-rule:evenodd;clip-rule:evenodd;fill:#FDE557;}
</style>
<path class="st0" d="M9.2,7.5L9.2,7.5C9.2,7.5,9.2,7.5,9.2,7.5L9.2,7.5z M15.8,0H1.3C0.6,0,0,0.5,0,1.2c0,0,0,0,0,0v14.3
	c0,0.7,0.6,1.2,1.3,1.2h14.5c0.7,0,1.2-0.5,1.3-1.2V1.2C17,0.5,16.5,0,15.8,0C15.8,0,15.8,0,15.8,0L15.8,0z M5.2,14H2.6V6.4h2.6V14z
	 M3.9,5.4L3.9,5.4C3.1,5.5,2.5,4.9,2.4,4.2c0,0,0-0.1,0-0.1C2.4,3.3,2.9,2.6,3.7,2.5C4.5,2.4,5.3,3,5.3,3.8C5.4,4.6,4.8,5.3,4,5.4
	C4,5.4,3.9,5.4,3.9,5.4L3.9,5.4z M14.4,14h-2.6v-4c0-1-0.4-1.7-1.3-1.7c-0.6,0-1.1,0.4-1.3,0.9C9.2,9.4,9.2,9.6,9.2,9.8V14H6.6
	c0,0,0-6.8,0-7.5h2.6v1.1c0.5-0.8,1.4-1.3,2.3-1.2c1.7,0,3,1.1,3,3.4L14.4,14L14.4,14z"/>
</svg>
