<?xml version="1.0" encoding="utf-8"?>
<!-- Generator: Adobe Illustrator 24.0.0, SVG Export Plug-In . SVG Version: 6.00 Build 0)  -->
<svg version="1.1" id="Слой_1" xmlns="http://www.w3.org/2000/svg" xmlns:xlink="http://www.w3.org/1999/xlink" x="0px" y="0px"
	 viewBox="0 0 52 54" style="enable-background:new 0 0 52 54;" xml:space="preserve">
<style type="text/css">
	.st0{fill-rule:evenodd;clip-rule:evenodd;fill:#4FB1C9;}
</style>
<path id="Forma_1" class="st0" d="M21,25.3c0.6,0,1-0.4,1-1v-3.7c0-0.1,0-0.3,0-0.4l0.3,0.3c0.4,0.4,1,0.4,1.4,0l0.3-0.3
	c0,0.1,0,0.3,0,0.5v3.7c0,0.6,0.4,1,1,1h3.7c3.5,0,6.3-2.9,6.3-6.4v-3.7c0-0.6-0.4-1-1-1c0,0,0,0,0,0h-3.7c-0.8,0-1.6,0.2-2.3,0.5
	c0.4-2.1-0.2-4.3-1.7-5.8l-2.6-2.6c-0.4-0.4-1-0.4-1.4,0c0,0,0,0,0,0l-2.6,2.6c-1.5,1.5-2.2,3.7-1.7,5.8c-0.7-0.3-1.5-0.5-2.3-0.4
	H12c-0.6,0-1,0.4-1,1v3.7c0,3.5,2.8,6.3,6.3,6.4H21L21,25.3z M32.9,16.3v2.7c0,2.4-1.9,4.3-4.3,4.4H26v-2.7c0-2.4,1.9-4.3,4.3-4.4
	H32.9z M21.1,10.3l1.9-1.9l1.9,1.9c1.7,1.7,1.7,4.4,0,6.1l-1.9,1.9l-1.9-1.9C19.4,14.8,19.4,12,21.1,10.3z M13,18.9v-2.7h2.7
	c2.4,0,4.3,2,4.3,4.4v2.7h-2.7C14.9,23.3,13,21.3,13,18.9L13,18.9z M25.9,33.1c-1.7,0-3,1.3-3,3h2c0-0.6,0.4-1,1-1s1,0.4,1,1h2
	C28.9,34.4,27.6,33.1,25.9,33.1L25.9,33.1z M33.9,34.1c-1.7,0-3,1.3-3,3h2c0-0.6,0.4-1,1-1s1,0.4,1,1h2
	C36.9,35.4,35.6,34.1,33.9,34.1C33.9,34.1,33.9,34.1,33.9,34.1L33.9,34.1z M41.4,30.3l3.4-13c0-0.1,0-0.2,0-0.3c0-1.1-0.9-2-2-2h-2
	c-0.4,0-0.7,0.1-1,0.3V1c0-0.6-0.4-1-1-1H1C0.4,0,0,0.4,0,1v46.1c0,0.4,0.2,0.8,0.6,0.9l7,3c0.1,0.1,0.3,0.1,0.4,0.1c0,0,0,0,0,0
	s0,0,0,0h15.3c3,1.9,6.4,2.9,10,2.9C43.6,54,52,45.6,52,35.2v-0.1C52,32.1,45.8,30.8,41.4,30.3L41.4,30.3z M40.9,17h2l-3.7,13.8l0,0
	l-0.6,2.3c-0.1,0.5,0.2,1.1,0.7,1.2c0.1,0,0.2,0,0.3,0c0.5,0,0.9-0.3,1-0.8l0.4-1.4c6.8,0.8,9.1,2.4,9.1,2.9c0,1-5.7,3.3-16.8,3.3
	s-16.8-2.3-16.8-3.3s5.7-3.3,16.8-3.3c0.6,0,1.2,0,1.7,0l-0.2,0.7c-0.1,0.5,0.2,1.1,0.7,1.2c0.1,0,0.2,0,0.2,0c0.5,0,0.9-0.3,1-0.8
	l0.5-1.9l0,0l3.7-13.8C40.9,17.2,40.9,17.1,40.9,17L40.9,17z M7,48.6l-5-2.1V2h5V48.6z M20.6,49.1H9V2h28.9v18.7l-2.4,9.1
	c-0.7,0-1.5,0-2.2,0c-6.5,0-18.8,1.1-18.8,5.3v0.1c0,0.7,0,1.3,0.1,2c0,0.2,0.1,0.4,0.1,0.6c0.1,0.4,0.1,0.9,0.2,1.3
	c0.1,0.3,0.1,0.5,0.2,0.7c0.1,0.4,0.2,0.7,0.3,1.1c0.1,0.3,0.2,0.6,0.3,0.8c0.1,0.3,0.2,0.6,0.3,0.9s0.3,0.6,0.4,0.9
	c0.1,0.3,0.3,0.5,0.4,0.8c0.2,0.3,0.4,0.6,0.5,0.9c0.1,0.2,0.3,0.5,0.5,0.7c0.2,0.3,0.4,0.6,0.6,0.8c0.2,0.2,0.4,0.5,0.5,0.7
	c0.2,0.2,0.4,0.5,0.6,0.7s0.4,0.5,0.7,0.7C20.4,48.9,20.5,49,20.6,49.1L20.6,49.1z M33.2,52c-3.3,0-6.5-1-9.2-2.8
	c-0.1-0.1-0.2-0.2-0.4-0.3c-0.3-0.2-0.6-0.4-0.8-0.6c-0.1-0.1-0.2-0.2-0.3-0.2c-0.4-0.3-0.7-0.6-1-0.9c-0.1-0.1-0.1-0.1-0.2-0.2
	c-0.3-0.3-0.6-0.7-0.9-1c0,0,0,0-0.1-0.1c-0.3-0.4-0.6-0.8-0.9-1.2l-0.1-0.1c-0.6-0.8-1-1.7-1.4-2.6c0-0.1-0.1-0.2-0.1-0.2
	c-0.2-0.4-0.4-0.9-0.5-1.4c0-0.1,0-0.1-0.1-0.2c-0.1-0.4-0.2-0.9-0.3-1.3c0-0.1,0-0.2-0.1-0.3c0-0.2-0.1-0.5-0.1-0.7
	c3.8,2,11.8,2.6,16.5,2.6s12.7-0.6,16.5-2.6C48.5,45.9,41.5,52,33.2,52L33.2,52z"/>
</svg>
