<?xml version="1.0" encoding="utf-8"?>
<!-- Generator: Adobe Illustrator 24.0.0, SVG Export Plug-In . SVG Version: 6.00 Build 0)  -->
<svg version="1.1" id="Слой_1" xmlns="http://www.w3.org/2000/svg" xmlns:xlink="http://www.w3.org/1999/xlink" x="0px" y="0px"
	 viewBox="0 0 59 56" style="enable-background:new 0 0 59 56;" xml:space="preserve">
<style type="text/css">
	.st0{fill-rule:evenodd;clip-rule:evenodd;fill:#4B811B;}
</style>
<path id="Forma_1" class="st0" d="M24.2,14.8c0.1,0,0.2,0.1,0.4,0.1c0.4,0,0.8-0.2,0.9-0.6c0.2-0.5-0.1-1.1-0.6-1.3c0,0,0,0,0,0
	c-1.5-0.6-2.2-2.2-1.7-3.7c0,0,0,0,0,0c0.6-1.5,2.3-2.2,3.8-1.6c0.5,0.2,1.1,0,1.3-0.6c0,0,0,0,0,0c0.2-0.5,0-1.1-0.5-1.3
	c0,0,0,0,0,0c-2.5-1-5.4,0.3-6.4,2.8C20.4,11,21.7,13.8,24.2,14.8C24.2,14.8,24.2,14.8,24.2,14.8z M53.5,17.9
	c-0.5,0.2-0.7,0.8-0.5,1.3c0,0,0,0,0,0c0.3,0.7,0.3,1.5,0.1,2.2c-0.3,0.7-0.8,1.3-1.6,1.6c-0.7,0.3-1.5,0.3-2.2,0
	c-0.7-0.3-1.3-0.8-1.6-1.5c-0.2-0.5-0.8-0.7-1.3-0.5c-0.5,0.2-0.7,0.8-0.5,1.3c0,0,0,0,0,0c0.8,1.8,2.6,2.9,4.5,2.9
	c0.7,0,1.3-0.1,2-0.4c1.2-0.5,2.1-1.5,2.6-2.7c0.5-1.2,0.5-2.5-0.1-3.7C54.6,18,54,17.7,53.5,17.9z M39.4,15.2
	c-0.5,0.3-0.6,0.9-0.4,1.3c0,0,0,0,0,0c0.8,1.4,0.3,3.2-1.1,3.9c-0.7,0.4-1.5,0.5-2.2,0.3c-0.7-0.2-1.4-0.7-1.8-1.4
	c-0.3-0.5-0.9-0.6-1.4-0.4c-0.5,0.3-0.6,0.9-0.4,1.3c0,0,0,0,0,0c1.4,2.3,4.3,3.2,6.7,1.9c1.1-0.6,2-1.7,2.3-2.9
	c0.4-1.2,0.2-2.6-0.5-3.7C40.5,15.1,39.9,14.9,39.4,15.2z M30.9,17c2.4,1.2,5.4,0.2,6.6-2.3c0.2-0.5,0-1.1-0.5-1.3c0,0,0,0,0,0
	c-0.5-0.2-1.1,0-1.3,0.5c-0.7,1.4-2.4,2-3.9,1.3c-1.4-0.7-2-2.4-1.4-3.8c0,0,0,0,0,0c0.2-0.5,0-1.1-0.5-1.3c-0.5-0.2-1.1,0-1.3,0.5
	C27.4,12.9,28.4,15.8,30.9,17C30.9,17,30.9,17,30.9,17L30.9,17z M23.4,22.6c0.6,0.3,1.3,0.4,2,0.4c1.9,0,3.7-1.1,4.5-2.9
	c0.2-0.5,0-1.1-0.5-1.3c0,0,0,0,0,0c-0.5-0.2-1.1,0-1.3,0.5c-0.3,0.7-0.9,1.3-1.6,1.5c-0.7,0.3-1.5,0.3-2.2,0
	c-1.5-0.6-2.1-2.3-1.5-3.8c0,0,0,0,0,0c0.2-0.5,0-1.1-0.5-1.3c0,0,0,0,0,0c-0.5-0.2-1.1,0-1.3,0.5C19.8,18.7,20.9,21.5,23.4,22.6
	C23.4,22.6,23.4,22.6,23.4,22.6L23.4,22.6z M36.1,12.2c0.2,0,0.3,0,0.5,0c1.1,0,2.2-0.4,3.1-1.1c2.1-1.7,2.4-4.7,0.7-6.8
	c0,0,0,0,0,0c-0.4-0.4-1-0.5-1.4-0.1c-0.4,0.4-0.5,1-0.1,1.4c1,1.2,0.8,3.1-0.4,4.1c-0.6,0.5-1.4,0.7-2.1,0.6c-0.8-0.1-1.5-0.4-2-1
	c-0.3-0.4-1-0.5-1.4-0.1c0,0,0,0,0,0c-0.4,0.3-0.5,1-0.1,1.4c0,0,0,0,0,0C33.6,11.4,34.8,12.1,36.1,12.2z M15.5,21.2
	c0.2-0.5,0-1.1-0.6-1.3c-0.5-0.2-1.1,0-1.3,0.6c-0.6,1.5-2.3,2.2-3.8,1.6c-1.5-0.6-2.2-2.3-1.6-3.7c0,0,0,0,0,0
	c0.2-0.5,0-1.1-0.6-1.3c-0.5-0.2-1.1,0-1.3,0.6l0,0c-1,2.5,0.2,5.3,2.7,6.3c0,0,0,0,0.1,0C11.6,24.9,14.5,23.7,15.5,21.2z
	 M57.5,18.3c0.6-1.9,0.1-3.9-1.3-5.3c-1-1-2.4-1.5-3.8-1.5c-0.2-0.6-0.6-1.2-1.1-1.7c-1.3-1.2-3.1-1.6-4.8-1.1c0-0.1,0-0.2,0-0.3
	c-0.1-4-3.4-7.1-7.4-7c-0.7,0-1.3,0.1-2,0.3c-2.4-2.4-6.2-2.5-8.7-0.1c-0.2,0.1-0.3,0.3-0.4,0.5c-0.9-0.5-2-0.7-3-0.7
	c-3.7,0-6.8,2.9-6.8,6.6v0c-1,0.5-1.9,1.2-2.6,2.1c-3.7,0.6-7.3,1.4-10.9,2.4c-1,1-1.6,2.3-1.6,3.7C1.3,17,0,18.8,0,20.7
	C0,22,0.5,23.1,1.4,24c0.5,0.5,1.1,0.9,1.8,1.1c0,1.5,0.6,2.8,1.7,3.9c1,1,2.4,1.6,3.9,1.6c0.1,1,0.5,1.9,1.2,2.6
	c0.8,0.8,1.9,1.2,2.9,1.2c0.4,0,0.8-0.1,1.2-0.2c4.1,0.1,9.8,9.1,10.5,19.6c0.1,1.3,1.2,2.3,2.5,2.3h5c1.3,0,2.4-0.9,2.5-2.2
	l0.1-0.7c1.4-12.6,4.3-19.1,8.5-19.3c0.8,0.5,1.8,0.7,2.7,0.7c1.5,0,2.9-0.6,4-1.6c0.4-0.4,0.7-0.8,0.9-1.2c1.2,0,2.4-0.5,3.3-1.3
	c1-0.9,1.5-2.2,1.4-3.6c0.7-0.3,1.3-0.7,1.9-1.2C59.5,23.6,59.5,20.4,57.5,18.3C57.6,18.4,57.5,18.3,57.5,18.3L57.5,18.3z M19.6,9.8
	c0.4-0.1,0.7-0.6,0.7-1.1c0-0.2,0-0.4,0-0.6c0-2.6,2.2-4.7,4.8-4.7c1,0,2,0.3,2.8,0.9c0.2,0.2,0.5,0.2,0.8,0.1
	c0.3-0.1,0.5-0.2,0.7-0.5c0.7-1.3,2.1-2,3.5-2c1.3,0,2.5,0.6,3.3,1.6c0.3,0.4,0.8,0.5,1.2,0.3c0.7-0.3,1.4-0.4,2.1-0.4
	c2.8,0,5.2,2.2,5.2,5c0,0.7-0.1,1.4-0.4,2v0l-0.1,0.2v0l0,0v0c0,0,0,0.1,0,0.1c0,0.1,0,0.2-0.1,0.3v0.1c0,0.1,0,0.2,0,0.3
	c0,0,0,0.1,0.1,0.1c0,0.1,0.1,0.2,0.1,0.2c0.1,0.1,0.2,0.2,0.3,0.2c0.5,0.3,0.9,0.8,0.9,1.4c0,0.6-0.4,1.2-0.9,1.4
	c-0.3,0.1-0.4,0.4-0.5,0.6c-0.1,0.3,0,0.5,0.1,0.8c0.3,0.5,0.5,1.1,0.5,1.7c0,1.3-0.8,2.4-2,2.9c-0.5,0.2-0.8,0.8-0.6,1.3
	c0.1,0.4,0.2,0.7,0.2,1.1c0,1.8-1.5,3.2-3.3,3.2c-0.2,0-0.4,0-0.6-0.1c0,0-0.1,0-0.1,0c-0.2,0-0.4-0.1-0.5-0.1l0,0
	c-0.7-0.3-1.2-0.7-1.6-1.4c-0.2-0.3-0.5-0.5-0.8-0.5c-0.3,0-0.7,0.2-0.9,0.4c-0.5,0.8-1.3,1.5-2.2,1.9c-0.1,0.1-0.3,0.1-0.4,0.2
	c-0.1,0-0.1,0-0.2,0.1c-0.1,0-0.3,0.1-0.4,0.1c-0.1,0-0.2,0-0.3,0.1c-0.1,0-0.2,0-0.3,0.1c-0.2,0-0.4,0-0.6,0c-0.2,0-0.3,0-0.4,0
	c0,0-0.1,0-0.2,0c-0.2,0-0.3-0.1-0.5-0.1c0,0-0.1,0-0.1,0c-0.2,0-0.4-0.1-0.5-0.1c0,0,0,0,0,0c-0.2-0.1-0.4-0.1-0.6-0.2l0,0
	c-0.8-0.4-1.5-0.9-2-1.6c-0.2-0.2-0.4-0.4-0.7-0.4c0,0-0.1,0-0.1,0c-0.2,0-0.4,0.1-0.6,0.2c-0.3,0.2-0.5,0.4-0.8,0.5h0
	c-0.3,0.1-0.5,0.2-0.8,0.3h0c-0.3,0.1-0.5,0.1-0.8,0.1c-2.2,0-4-1.7-4-3.9c0-0.8,0.3-1.6,0.8-2.3c0.3-0.4,0.2-1.1-0.2-1.4
	c0,0,0,0,0,0c-1.3-0.8-2.1-2.3-2.1-3.8c0-0.2,0-0.4,0.1-0.7c0-0.1,0-0.1,0-0.2c0-0.2,0.1-0.3,0.1-0.5c0-0.1,0-0.1,0.1-0.2
	c0.1-0.2,0.1-0.3,0.2-0.5c0,0,0-0.1,0-0.1C17.4,11,18.4,10.2,19.6,9.8L19.6,9.8z M33.9,28c0.5-0.3,1-0.7,1.4-1.1
	c0.4,0.4,0.9,0.7,1.4,1c0,0,0.1,0.1,0.1,0.1c0.2,0.2,0.3,0.3,0.5,0.4c-1.2,1.5-2.3,3.1-3.3,4.7C34.2,31.4,34.1,29.7,33.9,28L33.9,28
	z M27.4,38.5c-1.3-3.1-3.2-5.9-5.4-8.3c0.3-0.1,0.6-0.3,0.9-0.6c0.5-0.5,0.9-1.3,0.9-2c0.2-0.1,0.5-0.3,0.7-0.5
	c0.1-0.1,0.3-0.1,0.4-0.2c0.5,0.5,1.1,1,1.7,1.3C27.2,31.6,27.5,35,27.4,38.5L27.4,38.5z M11.4,31.7c-0.5-0.5-0.8-1.3-0.6-2
	c0.1-0.5-0.2-1.1-0.7-1.2c-0.1,0-0.2,0-0.3,0c-0.1,0-0.1,0-0.2,0c-1.2,0.3-2.5-0.1-3.3-0.9c-0.8-0.8-1.2-1.9-1-3
	c0-0.3,0-0.5-0.2-0.8c-0.2-0.2-0.4-0.4-0.7-0.4c-0.6-0.1-1.2-0.3-1.6-0.8c-1-1-1.1-2.6-0.1-3.7c0,0,0.1-0.1,0.1-0.1
	c0.4-0.4,0.9-0.7,1.5-0.7c0.3,0,0.5-0.2,0.7-0.4c0.2-0.2,0.2-0.5,0.2-0.8c-0.2-1,0.2-2.1,0.9-2.9c1-1,2.5-1.2,3.8-0.6
	c0.4,0.2,0.9,0.1,1.2-0.3c0.1-0.1,0.2-0.2,0.3-0.3c0.9-0.8,2.1-1.1,3.3-0.8c0,0,0,0.1,0,0.1c-0.1,0.2-0.1,0.5-0.2,0.7
	c0,0.1,0,0.2-0.1,0.3c-0.1,0.3-0.1,0.7-0.1,1c0,1.9,0.8,3.6,2.2,4.9c-0.4,0.8-0.7,1.7-0.7,2.6c0,0.2,0,0.4,0,0.6c0,0.1,0,0.1,0,0.2
	c0,0.1,0,0.3,0.1,0.4c0,0.1,0,0.1,0.1,0.2c0,0.1,0.1,0.2,0.1,0.3c0,0.1,0.1,0.2,0.1,0.2c0,0.1,0.1,0.2,0.1,0.3
	c0,0.1,0.1,0.2,0.1,0.2c0.1,0.1,0.1,0.2,0.1,0.3s0.1,0.1,0.1,0.2s0.1,0.2,0.2,0.3c0.1,0.1,0.1,0.1,0.2,0.2c0.1,0.1,0.1,0.1,0.2,0.2
	s0.1,0.1,0.2,0.2s0.1,0.1,0.2,0.2s0.1,0.1,0.2,0.2s0.1,0.1,0.2,0.2c0.1,0.1,0.1,0.1,0.2,0.2s0.2,0.1,0.2,0.2s0.2,0.1,0.2,0.1
	s0.2,0.1,0.3,0.1s0.2,0.1,0.3,0.1s0.2,0.1,0.3,0.1s0.2,0.1,0.3,0.1s0.2,0.1,0.3,0.1s0.2,0.1,0.3,0.1s0.2,0.1,0.3,0.1
	c0.1,0,0.2,0,0.3,0.1c0.1,0,0.2,0,0.3,0.1s0.2,0,0.3,0c0.1,0,0.1,0,0.2,0c0,0.2-0.1,0.4-0.3,0.5c-0.3,0.3-0.7,0.4-1,0.2
	c-0.5-0.2-1.1,0.2-1.3,0.7c0,0,0,0,0,0c0,0.2-0.1,0.4-0.2,0.6c-0.1,0.2-0.2,0.3-0.4,0.5c-0.6,0.6-1.6,0.8-2.4,0.5
	c-0.5-0.2-1.1,0-1.3,0.5c-0.1,0.2-0.2,0.4-0.4,0.6c-0.2,0.2-0.5,0.4-0.8,0.5h0C12.9,32.5,12,32.3,11.4,31.7L11.4,31.7z M32.7,52.9
	l-0.1,0.7c0,0.3-0.3,0.4-0.5,0.4h-5c-0.3,0-0.5-0.2-0.5-0.5C25.9,44,21.3,35,16.4,32.7c0.1,0,0.2,0,0.2,0c0.1,0,0.1,0,0.2,0
	c0.1,0,0.2,0,0.3,0h0.2c0.1,0,0.2,0,0.3,0c0.1,0,0.1,0,0.2,0c0.1,0,0.2-0.1,0.3-0.1c0.1,0,0.1,0,0.2-0.1c0.1,0,0.2-0.1,0.3-0.1
	c0.1,0,0.1,0,0.2-0.1c0.1-0.1,0.2-0.1,0.3-0.1c0.1,0,0.1-0.1,0.2-0.1c0.1-0.1,0.2-0.1,0.3-0.2c0,0,0.1,0,0.1-0.1
	c0.1-0.1,0.3-0.2,0.4-0.3c0.1-0.1,0.2-0.2,0.3-0.3c3.3,3.6,5.7,7.9,6.9,12.7c0.1,0.5,0.7,0.9,1.2,0.7c0.4-0.1,0.7-0.5,0.7-0.9
	c0-0.4,0.8-8.6-0.4-14.8c0.1,0,0.1,0,0.2,0c0.2,0,0.3,0.1,0.5,0.1c0.1,0,0.2,0,0.3,0s0.2,0,0.3,0c0.1,0,0.1,0,0.2,0
	c0.1,0,0.2,0,0.3,0c0.2,0,0.3,0,0.4,0c0.1,0,0.2,0,0.3-0.1c0.2,0,0.3-0.1,0.5-0.1c0.1,0,0.1,0,0.2,0c0.4,3.6,0.1,7.1-0.8,10.6
	c-0.1,0.5,0.1,1.1,0.7,1.2c0.5,0.2,1.1-0.1,1.3-0.6c1.3-3.5,3.1-6.8,5.4-9.9c0,0,0,0,0,0.1c0.1,0.2,0.2,0.3,0.4,0.5c0,0,0,0,0,0l0,0
	c0.1,0.1,0.3,0.2,0.4,0.4l0,0c0.1,0.1,0.2,0.1,0.3,0.1c0.1,0,0.2,0.1,0.3,0.1c0,0,0.1,0,0.1,0.1c0.1,0.1,0.3,0.1,0.4,0.1
	c0.2,0,0.4,0.1,0.6,0.1c0.1,0.2,0.2,0.4,0.4,0.6C34.7,34.6,33.2,48.1,32.7,52.9L32.7,52.9z M56,24.2c-0.5,0.5-1.1,0.8-1.8,0.9
	c-0.5,0.1-0.9,0.6-0.8,1.1c0,0,0,0.1,0,0.1c0.3,0.9,0,1.9-0.7,2.6c-0.6,0.6-1.5,0.9-2.4,0.7c-0.5-0.1-0.9,0.2-1.1,0.6
	c-0.2,0.5-0.5,0.9-0.8,1.2c-1.2,1.2-3.1,1.4-4.5,0.5h0c-0.2-0.1-0.4-0.3-0.6-0.5c-0.4-0.4-0.7-0.8-0.8-1.3c0-0.1-0.1-0.2-0.2-0.3
	c0,0,0,0-0.1-0.1c-0.1-0.1-0.1-0.1-0.2-0.1c0,0-0.1,0-0.1-0.1c-0.1,0-0.1-0.1-0.2-0.1c0,0-0.1,0-0.1,0c0,0-0.1,0-0.1,0
	c-0.1,0-0.2,0-0.3,0l0,0c0,0-0.1,0-0.1,0c-0.3,0-0.5,0-0.8-0.2c0,0-0.1-0.1-0.1-0.1c-0.1-0.1-0.1-0.1-0.2-0.2c0,0,0,0,0-0.1
	c0-0.1-0.1-0.1-0.1-0.2c0-0.1,0-0.3,0-0.4c0,0,0-0.1,0-0.1c0.3-0.1,0.6-0.2,0.9-0.3c0.1,0,0.2-0.1,0.2-0.1c0.2-0.1,0.4-0.2,0.6-0.3
	c0.1-0.1,0.2-0.1,0.3-0.2c0.2-0.1,0.3-0.2,0.5-0.4l0.3-0.3c0.1-0.1,0.3-0.3,0.4-0.4c0.1-0.1,0.1-0.2,0.2-0.3
	c0.1-0.2,0.2-0.3,0.3-0.5c0.1-0.1,0.1-0.2,0.2-0.3c0.1-0.2,0.1-0.4,0.2-0.6c0-0.1,0.1-0.2,0.1-0.3c0.1-0.3,0.1-0.6,0.1-1
	c0-0.3,0-0.6-0.1-0.9c1.5-0.9,2.4-2.6,2.4-4.3c0-0.7-0.1-1.3-0.4-1.9c0.7-0.7,1.2-1.6,1.2-2.6c0-0.2,0-0.5-0.1-0.7
	c0-0.1,0-0.1-0.1-0.2c-0.1-0.1-0.1-0.3-0.2-0.4l-0.1-0.2c-0.1-0.1-0.1-0.3-0.2-0.4c-0.1-0.1-0.1-0.2-0.2-0.2
	c-0.1-0.1-0.1-0.1-0.2-0.2c1.1-0.7,2.6-0.6,3.5,0.3c0.4,0.4,0.7,0.9,0.8,1.5c0,0.3,0.2,0.5,0.4,0.6c0.2,0.1,0.5,0.2,0.8,0.2
	c1.1-0.2,2.2,0.1,3,0.9c1,1,1.2,2.4,0.6,3.7c-0.2,0.4-0.1,0.9,0.3,1.2c0.1,0.1,0.2,0.2,0.3,0.3C57.2,20.9,57.2,22.9,56,24.2L56,24.2
	z"/>
</svg>
