<?xml version="1.0" encoding="utf-8"?>
<!-- Generator: Adobe Illustrator 24.0.0, SVG Export Plug-In . SVG Version: 6.00 Build 0)  -->
<svg version="1.1" id="Слой_1" xmlns="http://www.w3.org/2000/svg" xmlns:xlink="http://www.w3.org/1999/xlink" x="0px" y="0px"
	 viewBox="0 0 57 49" style="enable-background:new 0 0 57 49;" xml:space="preserve">
<style type="text/css">
	.st0{fill-rule:evenodd;clip-rule:evenodd;fill:#8EAA41;}
</style>
<path id="Forma_1" class="st0" d="M54.1,30.3v-4.4c0.2,0,0.4,0,0.6-0.1c0.9-0.3,1.7-1,2-1.9c0.2-0.5,0.2-1,0.2-1.5
	c-0.2-2.1-1.9-3.6-4-3.6H53C49.4,5.3,35.6-2.7,22,0.8C13.2,3.2,6.4,10,4,18.8H4c-2.1-0.1-3.8,1.5-4,3.6c0,0.5,0,1,0.2,1.5
	c0.3,0.9,1.1,1.6,2,1.9c0.2,0.1,0.4,0.1,0.6,0.1v4.4c-2,0.5-3.2,2.5-2.7,4.5c0.3,1.4,1.4,2.4,2.7,2.7v5.8c0,3.1,2.6,5.7,5.7,5.7
	h39.9c3.1,0,5.7-2.5,5.7-5.7v-5.8C55.4,36.1,54.2,32.8,54.1,30.3z M28.5,1.9c10.5,0,19.6,6.9,22.5,17H6C8.9,8.8,18,1.9,28.5,1.9z
	 M2.8,23.9c-0.3-0.1-0.6-0.4-0.8-0.7c-0.1-0.2-0.1-0.5-0.1-0.7c0.1-1,1-1.8,2.1-1.8H53c1,0,1.9,0.7,2.1,1.8c0,0.2,0,0.5-0.1,0.7
	c-0.1,0.3-0.4,0.6-0.8,0.7c-0.3,0.1-0.7,0.1-1-0.1l-0.1,0c-0.1,0-0.2-0.1-0.3-0.2l0,0c0,0,0,0,0,0c-0.2-0.1-0.4-0.3-0.5-0.4
	c0,0-0.1-0.1-0.2-0.1c-0.2-0.1-0.4-0.2-0.6-0.3l0,0c-0.8-0.3-1.8-0.4-2.6-0.2c-1.3,0.3-2.5,1.1-3.2,2.3c-0.5,0.9-1.4,1.4-2.4,1.4h0
	c-0.2,0-0.3,0-0.5-0.1c-0.9-0.1-1.7-0.6-2.2-1.4c-0.1-0.2-0.2-0.3-0.4-0.5c-0.1-0.1-0.2-0.3-0.4-0.4c0,0,0,0,0,0
	c-0.9-0.9-2.1-1.3-3.3-1.3c0,0,0,0,0,0h-0.1c-1.7,0-3.2,0.9-4,2.4c-0.5,0.9-2.4,1.4-3.9,1.4c-0.3,0-0.5,0-0.8,0c0,0-0.1,0-0.1,0
	c-0.9-0.1-1.7-0.3-2.4-0.8c-0.3-0.1-0.5-0.4-0.6-0.6c-0.8-1.4-2.3-2.3-4-2.4h-0.1c-0.1,0-0.2,0-0.3,0c-0.1,0-0.2,0-0.2,0
	c-0.1,0-0.3,0.1-0.4,0.1l-0.2,0c-0.1,0-0.3,0.1-0.4,0.1l-0.2,0.1c-0.1,0.1-0.2,0.1-0.4,0.2c-0.1,0-0.1,0.1-0.2,0.1
	c-0.1,0.1-0.2,0.1-0.3,0.2c-0.1,0.1-0.2,0.1-0.2,0.1c-0.1,0.1-0.2,0.1-0.3,0.2s-0.2,0.1-0.2,0.2C17,24,17,24.1,16.9,24.2
	s-0.2,0.2-0.2,0.2c-0.1,0.1-0.2,0.2-0.3,0.4c0,0.1-0.1,0.1-0.1,0.2v0c-0.1,0.2-0.3,0.4-0.4,0.5c0,0-0.1,0.1-0.1,0.1
	c-0.1,0.1-0.3,0.3-0.5,0.4l0,0c-0.1,0-0.1,0.1-0.2,0.1c-0.2,0.1-0.3,0.1-0.5,0.2l0,0c0,0-0.1,0-0.2,0c-0.2,0-0.4,0.1-0.6,0.1l0,0
	c-0.1,0-0.2,0-0.2,0c0,0-0.1,0-0.1,0h0c-0.8-0.1-1.6-0.6-2-1.4c-0.7-1.2-1.8-2-3.2-2.3c-0.4-0.1-0.7-0.1-1.1-0.1c-1.1,0-2.2,0.3-3,1
	C3.8,23.9,3.3,24.1,2.8,23.9z M39.6,30.4c-0.2-0.2-0.4-0.3-0.7-0.3H25.6v-2.3c0.1,0,0.1,0,0.2,0.1c0.2,0.1,0.4,0.1,0.5,0.1h0
	c0.7,0.1,1.4,0.2,2.1,0.2h0.2c1.6,0,4.5-0.5,5.6-2.4c0.5-0.8,1.3-1.4,2.3-1.4c0.2,0,0.3,0,0.5,0.1c0.1,0,0.1,0,0.2,0
	c0.5,0.1,0.9,0.4,1.3,0.7c0,0,0,0,0,0c0.2,0.2,0.4,0.4,0.5,0.6c0.9,1.5,2.5,2.4,4.3,2.3c0,0,0,0,0,0c1.7,0,3.3-0.9,4.1-2.4
	C48,25,49,24.5,50,24.5l0,0c0.2,0,0.3,0,0.5,0.1l0.2,0.1c0.1,0,0.2,0.1,0.3,0.1c0.1,0,0.1,0.1,0.2,0.1c0.2,0.1,0.3,0.2,0.5,0.3
	c0.2,0.1,0.4,0.3,0.6,0.4v4.6h-7.6c-0.3,0-0.5,0.1-0.7,0.3c-0.2,0.2-0.3,0.4-0.3,0.7v6.6c0,1-0.9,1.9-1.9,1.9c-1,0-1.9-0.8-1.9-1.9
	v-6.6C39.9,30.8,39.8,30.6,39.6,30.4z M38,32v3.8H25.7V32H38z M19,30.2c-0.5,0-0.9,0.4-1,0.9c0,0,0,0,0,0c0,1-0.9,1.9-1.9,1.9
	c-1,0-1.9-0.8-1.9-1.9v-2.9c0.3,0,0.6-0.1,0.9-0.2h0c0,0,0.1,0,0.1,0h0c0.2,0,0.3-0.1,0.4-0.2h0c0.1,0,0.1-0.1,0.2-0.1c0,0,0,0,0,0
	c0.1-0.1,0.2-0.1,0.3-0.2c0,0,0.1,0,0.1-0.1l0.1-0.1l0,0c0.1-0.1,0.2-0.1,0.3-0.2c0,0,0.1,0,0.1-0.1c0.1,0,0.1-0.1,0.1-0.1
	c0,0,0,0,0,0c0,0,0.1-0.1,0.1-0.1c0.1-0.1,0.1-0.1,0.2-0.2c0,0,0.1-0.1,0.1-0.1l0,0c0.2-0.2,0.3-0.4,0.4-0.6
	c0.6-0.9,1.6-1.4,2.6-1.4c1,0,1.9,0.5,2.4,1.4c0.1,0.2,0.3,0.4,0.4,0.6c0.1,0.1,0.2,0.2,0.2,0.2c0.1,0.1,0.1,0.1,0.2,0.2v13.7
	c0,1-0.9,1.9-1.9,1.9c-1,0-1.9-0.8-1.9-1.9v-9.4C19.9,30.6,19.5,30.2,19,30.2L19,30.2z M12.4,28.1v2.1H4.8v-4.6
	c0.3-0.1,0.5-0.3,0.7-0.4c0.5-0.4,1.1-0.6,1.7-0.6c0.2,0,0.4,0,0.5,0.1c0.8,0.1,1.5,0.6,1.9,1.3C10.2,27,11.2,27.7,12.4,28.1z
	 M3.8,35.8c-1,0-1.9-0.8-1.9-1.9S2.8,32,3.8,32h8.7c0,0.1,0.1,0.3,0.1,0.4c0,0.1,0,0.1,0.1,0.2c0.1,0.2,0.2,0.4,0.3,0.6
	c0,0,0.1,0.1,0.1,0.1c0.1,0.1,0.2,0.3,0.3,0.4c0.1,0.1,0.1,0.1,0.2,0.2c0.1,0.1,0.2,0.2,0.3,0.3c0.1,0.1,0.1,0.1,0.2,0.1
	c0.1,0.1,0.3,0.1,0.4,0.2c0.1,0,0.2,0.1,0.2,0.1c0.1,0.1,0.3,0.1,0.5,0.1c0.1,0,0.1,0,0.2,0.1c0.9,0.2,1.8,0,2.6-0.4v1.4H3.8
	L3.8,35.8z M52.2,43.3c0,2.1-1.7,3.8-3.8,3.8H8.5c-2.1,0-3.8-1.7-3.8-3.8v-5.6H18v2.8c0,2.1,1.7,3.8,3.8,3.8c2.1,0,3.8-1.7,3.8-3.8
	v-2.8H38c0,2.1,1.7,3.8,3.8,3.8c2.1,0,3.8-1.7,3.8-3.8h6.7L52.2,43.3L52.2,43.3L52.2,43.3z M53.2,35.8h-7.6V32h7.6
	c1,0,1.9,0.8,1.9,1.9C55.1,35,54.2,35.8,53.2,35.8L53.2,35.8z M23.1,5l-1.9,1.9c-0.4,0.4-0.4,1,0,1.3c0.4,0.4,1,0.4,1.3,0l1.9-1.9
	c0.4-0.4,0.4-1,0-1.3c0,0,0,0,0,0C24.1,4.6,23.5,4.6,23.1,5L23.1,5z M46.5,45.2c0.3,0,0.5-0.1,0.7-0.3l1.9-1.9c0.4-0.4,0.4-1,0-1.3
	c0,0,0,0,0,0c-0.4-0.4-1-0.4-1.3,0l-1.9,1.9c-0.2,0.2-0.3,0.4-0.3,0.7c0,0.2,0.1,0.5,0.3,0.7C46.1,45.1,46.3,45.2,46.5,45.2z
	 M11.7,40.8l-1.9,1.9c-0.2,0.2-0.3,0.6-0.3,0.9c0.1,0.5,0.7,0.8,1.2,0.7c0.2,0,0.3-0.1,0.4-0.2l1.9-1.9c0.4-0.4,0.4-1,0-1.3
	c0,0,0,0,0,0C12.7,40.4,12.1,40.4,11.7,40.8z M27.8,12.5l-1.9,1.9c-0.4,0.4-0.4,1,0,1.3c0.4,0.4,1,0.4,1.3,0l1.9-1.9
	c0.4-0.4,0.4-1,0-1.3C28.8,12.2,28.2,12.2,27.8,12.5z M33,6.9c-0.4-0.4-1-0.4-1.3,0c-0.4,0.4-0.4,0.9,0,1.3c0,0,0,0,0,0l1.9,1.9
	c0.4,0.4,1,0.4,1.3,0c0.4-0.4,0.4-1,0-1.3c0,0,0,0,0,0L33,6.9z M15.9,10.6c-0.4-0.4-1-0.4-1.3,0c-0.4,0.4-0.4,0.9,0,1.3c0,0,0,0,0,0
	l1.9,1.9c0.4,0.4,1,0.4,1.3,0c0.4-0.4,0.4-0.9,0-1.3c0,0,0,0,0,0L15.9,10.6z M32,40.8c-0.4-0.4-1-0.4-1.3,0c-0.4,0.4-0.4,1,0,1.3
	c0,0,0,0,0,0l1.9,1.9c0.4,0.4,1,0.4,1.3,0c0.4-0.4,0.4-1,0-1.3c0,0,0,0,0,0L32,40.8z M40.6,11.6c-0.4-0.4-1-0.4-1.3,0
	c-0.4,0.4-0.4,1,0,1.3c0,0,0,0,0,0l1.9,1.9c0.4,0.4,1,0.4,1.3,0c0.4-0.4,0.4-1,0-1.3c0,0,0,0,0,0L40.6,11.6z"/>
</svg>
