<?xml version="1.0" encoding="utf-8"?>
<!-- Generator: Adobe Illustrator 24.0.0, SVG Export Plug-In . SVG Version: 6.00 Build 0)  -->
<svg version="1.1" id="Слой_1" xmlns="http://www.w3.org/2000/svg" xmlns:xlink="http://www.w3.org/1999/xlink" x="0px" y="0px"
	 viewBox="0 0 52.9 56.7" style="enable-background:new 0 0 52.9 56.7;" xml:space="preserve">
<style type="text/css">
	.st0{fill-rule:evenodd;clip-rule:evenodd;fill:#F2374D;}
</style>
<path id="Forma_1" class="st0" d="M11.3,11.3c1.1,0,2.2-0.5,3-1.3c0.4-0.4,0.4-1,0-1.4c-0.4-0.4-1-0.4-1.4,0c-0.9,0.9-2.3,0.9-3.2,0
	c-0.4-0.4-1-0.4-1.4,0c-0.4,0.4-0.4,1,0,1.4C9.1,10.8,10.2,11.3,11.3,11.3z M16.2,42c-0.2-0.5-0.8-0.7-1.3-0.5
	c-0.5,0.2-0.7,0.8-0.5,1.3l2.8,5.9c0.2,0.4,0.5,0.6,0.9,0.6c0.1,0,0.3,0,0.4-0.1c0.5-0.2,0.7-0.8,0.5-1.3L16.2,42z M41.5,41.6
	c-0.5-0.2-1.1,0-1.3,0.5c0,0,0,0,0,0L37.4,48c-0.2,0.5,0,1.1,0.5,1.3c0.1,0.1,0.3,0.1,0.4,0.1c0.4,0,0.7-0.2,0.9-0.6l2.8-5.9
	C42.2,42.4,42,41.8,41.5,41.6L41.5,41.6z M33,43.6c-0.5-0.1-1.1,0.3-1.1,0.8c0,0,0,0,0,0l-0.9,5.9c-0.1,0.5,0.3,1.1,0.8,1.1
	c0.1,0,0.1,0,0.2,0c0.5,0,0.9-0.4,1-0.9l0.9-5.9C33.9,44.2,33.5,43.7,33,43.6L33,43.6L33,43.6z M23.4,43.6c-0.5,0.1-0.9,0.6-0.8,1.1
	l0.9,5.9c0.1,0.5,0.5,0.8,1,0.9c0.1,0,0.1,0,0.2,0c0.5-0.1,0.9-0.6,0.8-1.1l-0.9-5.9C24.5,43.9,24,43.5,23.4,43.6
	C23.4,43.6,23.4,43.6,23.4,43.6L23.4,43.6z M28.2,20.3c4,0,8-0.5,11.9-1.6c0.5-0.2,0.8-0.7,0.6-1.3c-0.2-0.5-0.7-0.8-1.2-0.7
	c-3.7,1.1-7.5,1.6-11.3,1.5c-0.6,0-1,0.5-1,1C27.2,19.8,27.6,20.3,28.2,20.3z M9.8,27.8c1,0.5,2.1,1,3.2,1.4c0.1,0,0.2,0.1,0.3,0.1
	c0.6,0,1-0.5,1-1c0-0.4-0.3-0.8-0.6-0.9c-1-0.4-2-0.8-2.9-1.3c-0.5-0.3-1.1-0.1-1.3,0.4c0,0,0,0,0,0C9.1,27,9.3,27.6,9.8,27.8
	L9.8,27.8z M21.9,31.3c4.2,0.5,8.5,0.5,12.7-0.1c0.5-0.1,0.9-0.6,0.9-1.1s-0.6-0.9-1.1-0.9l0,0c-4.1,0.5-8.2,0.5-12.2,0.1
	c-0.5-0.1-1,0.3-1.1,0.9c0,0,0,0,0,0C20.9,30.7,21.3,31.2,21.9,31.3C21.9,31.3,21.9,31.3,21.9,31.3L21.9,31.3z M39.1,29.4
	c0.1,0.4,0.5,0.7,1,0.7c0.1,0,0.2,0,0.3,0c2-0.5,4-1.3,5.9-2.3c0.5-0.3,0.7-0.9,0.4-1.4c-0.3-0.5-0.9-0.7-1.3-0.4
	c-1.7,0.9-3.6,1.6-5.5,2.1C39.2,28.3,38.9,28.9,39.1,29.4L39.1,29.4z M52.9,31.5c0-2.3-1.3-4.6-3.6-6.5c0.1-0.4,0.1-0.8,0.1-1.1
	c0-3-2-5.7-5.8-7.8c-0.1-2.1-0.7-8.6-4.9-12.5c-2.5-2.2-5.9-3.2-9.2-2.7c-0.3,0-0.6,0.2-0.8,0.6c-0.1,0.3-0.1,0.7,0.1,1
	c0.6,1,1.7,3.5,1.1,4.6c-0.5,0.6-1.2,0.9-2,0.7c-2.5,0-5,0.3-7.4,0.9c-0.3-0.4-0.7-0.8-1-1.2c-2.2-2.3-5.3-3.4-8.4-3.2
	c-0.5-1-1.2-1.8-2-2.5C7,0.2,4.3-0.3,0.8,0.2C0.3,0.3-0.1,0.8,0,1.4c0.1,0.5,0.6,0.9,1.2,0.8c2.9-0.4,5.1,0,6.7,1.2
	C8.3,3.8,8.7,4.2,9,4.8C8,5.1,7,5.8,6.2,6.5L5.3,7.5c-3.4,3.4-3,9.4,0.9,13.4c0.2,0.2,0.5,0.5,0.8,0.7c-0.3,0.8-0.5,1.6-0.5,2.4
	c0,0.4,0,0.8,0.1,1.1C4.2,27,3,29.2,3,31.5c0,1.8,0.7,3.5,1.9,4.9l3.8,9.4l0.1,0.1c3.2,5.9,5.9,7.4,11.7,9.6
	c2.5,0.8,5.1,1.2,7.8,1.2c2.6,0.1,5.2-0.3,7.7-1.2c5.8-2.3,8.5-3.8,11.7-9.5l4.9-12h0C52.7,33.2,52.9,32.4,52.9,31.5z M6.7,8.9
	L7.6,8C8.3,7.4,9,6.9,9.8,6.6C9.9,6.8,10,7.1,10,7.3c0,0.5,0.5,0.9,1,0.9h0.1c0.6-0.1,1-0.5,0.9-1.1c0-0.3-0.1-0.6-0.2-0.9
	c0.1,0,0.2,0,0.2,0c2.3,0.1,4.5,1,6.1,2.7c0.4,0.4,0.8,0.9,1.1,1.4v0c0.6,1,1,2.2,1,3.4c0,0,0,0.1,0,0.1c0,0.4,0,0.7-0.1,1.1
	c0,0,0,0.1,0,0.1c-0.1,0.8-0.3,1.5-0.6,2.2l-0.1,0.1c-0.2,0.3-0.4,0.7-0.6,1c0,0-0.1,0.1-0.1,0.1c-0.2,0.3-0.5,0.6-0.7,0.9
	c-0.3,0.3-0.6,0.6-0.9,0.8c0,0-0.1,0-0.1,0.1c-0.3,0.2-0.7,0.4-1,0.6c0,0,0,0-0.1,0c-1.1,0.5-2.3,0.8-3.6,0.7c0,0-0.1,0-0.1,0
	c-0.4,0-0.8-0.1-1.2-0.2l-0.1,0c-0.4-0.1-0.8-0.2-1.1-0.4c0,0,0,0-0.1,0c-0.4-0.2-0.8-0.4-1.1-0.6h0c-0.4-0.3-0.8-0.6-1.1-0.9
	C4.5,16.3,4.1,11.5,6.7,8.9L6.7,8.9z M8.3,26.2c0.3-0.2,0.5-0.7,0.4-1.1c-0.1-0.4-0.2-0.8-0.2-1.3c0-0.4,0.1-0.8,0.2-1.2
	c0.1,0,0.1,0.1,0.2,0.1c0.5,0.2,1.1,0.4,1.7,0.6l0.3,0.1c0.2,0,0.3,0.1,0.5,0.1c0.1,0,0.2,0,0.3,0l0.5,0.1c0.1,0,0.2,0,0.3,0
	c0.2,0,0.3,0,0.4,0c0.5,0,1,0,1.4-0.1c0,0,0.1,0,0.1,0c0.2,0,0.4-0.1,0.6-0.1c0,0,0,0,0.1,0c0.7-0.2,1.4-0.4,2-0.7c0,0,0,0,0,0
	c0.2-0.1,0.3-0.2,0.5-0.3c0.1-0.1,0.2-0.1,0.3-0.2c0.1-0.1,0.3-0.2,0.4-0.3s0.3-0.2,0.4-0.3c0.1-0.1,0.2-0.1,0.3-0.2
	c0.2-0.2,0.4-0.4,0.6-0.6c0.3-0.3,0.6-0.6,0.8-1c0.1-0.1,0.1-0.1,0.2-0.2c0.5-0.7,0.9-1.5,1.2-2.3l0.1-0.2c0.3-0.8,0.4-1.6,0.5-2.5
	c0-0.1,0-0.2,0-0.3s0-0.2,0-0.3c0-0.8-0.1-1.5-0.3-2.3c0,0,0-0.1,0-0.1c-0.1-0.4-0.3-0.9-0.4-1.3c2.1-0.5,4.2-0.7,6.4-0.7
	c1.8,0,3.1-0.6,3.7-1.8c0.9-1.6,0.2-3.8-0.4-5.2c2.2,0,4.4,0.8,6.1,2.3c4.3,3.9,4.3,11.5,4.3,11.6c0,0.4,0.2,0.7,0.5,0.9
	c3.4,1.8,5.2,4,5.2,6.3c0,0.4-0.1,0.8-0.2,1.3c-0.1,0.4,0,0.8,0.4,1.1c1.5,1.1,3.3,3,3.3,5.3c0,0.4,0,0.7-0.1,1.1c0,0-0.1,0-0.1,0
	c-0.3-0.1-0.5-0.2-0.8-0.3c0,0-0.1,0-0.1,0c-0.3-0.1-0.6-0.1-0.9-0.1h-0.1c-0.3,0-0.6,0-0.9,0.1c-0.1,0-0.1,0-0.2,0
	c-0.3,0.1-0.6,0.1-0.9,0.3c-0.1,0-0.1,0.1-0.2,0.1c-0.3,0.1-0.7,0.3-1,0.4c0,0-0.1,0-0.1,0c-0.3,0.2-0.7,0.4-1,0.6
	c-0.1,0.1-0.2,0.1-0.2,0.1c-0.3,0.2-0.7,0.5-1,0.8c-0.1,0.1-0.1,0.1-0.2,0.2c-0.4,0.3-0.7,0.6-1.1,1c-2.7-1.8-6.4-0.6-9.2,1.8
	c-2.7-2.1-6.4-2.1-9.1,0c-0.2-0.2-0.4-0.4-0.6-0.5l-0.2-0.1c-0.2-0.1-0.3-0.2-0.5-0.4c-0.1,0-0.1-0.1-0.2-0.1
	c-0.2-0.1-0.5-0.3-0.7-0.4l0,0c-0.2-0.1-0.5-0.2-0.7-0.4c-0.1,0-0.1-0.1-0.2-0.1c-0.2-0.1-0.4-0.1-0.6-0.2c-0.1,0-0.1-0.1-0.2-0.1
	c-0.2-0.1-0.5-0.2-0.7-0.2l0,0c-0.2-0.1-0.5-0.1-0.7-0.1c-0.1,0-0.1,0-0.2,0c-0.2,0-0.4,0-0.6,0c0,0-0.1,0-0.1,0c0,0-0.1,0-0.1,0
	c-0.5,0-1,0.1-1.4,0.2l-0.2,0.1c-0.2,0-0.3,0.1-0.5,0.2c-0.1,0-0.1,0.1-0.2,0.1c-0.2,0.1-0.4,0.2-0.6,0.4c-0.2-0.2-0.5-0.4-0.7-0.6
	c-0.1-0.1-0.2-0.1-0.2-0.2c-0.2-0.1-0.3-0.3-0.5-0.4c-0.1-0.1-0.2-0.1-0.3-0.2L12.4,34c-0.1-0.1-0.2-0.1-0.3-0.2
	c-0.1-0.1-0.3-0.2-0.4-0.3c-0.1-0.1-0.2-0.1-0.3-0.2c-0.1-0.1-0.3-0.1-0.4-0.2c-0.1-0.1-0.2-0.1-0.3-0.1c-0.1-0.1-0.3-0.1-0.4-0.2
	c-0.1,0-0.2-0.1-0.3-0.1c-0.1-0.1-0.3-0.1-0.4-0.2c-0.1,0-0.2-0.1-0.2-0.1c-0.2-0.1-0.3-0.1-0.5-0.1c-0.1,0-0.1,0-0.2,0
	c-0.2,0-0.4-0.1-0.6-0.1c0,0-0.1,0-0.1,0c-0.2,0-0.3,0-0.5,0c-0.1,0-0.1,0-0.2,0c-0.1,0-0.3,0-0.4,0l-0.2,0l-0.3,0.1l-0.2,0.1
	c-0.1,0-0.2,0.1-0.3,0.1c-0.1,0-0.1,0-0.2,0.1c-0.1,0.1-0.2,0.1-0.3,0.1c-0.1,0-0.1,0.1-0.2,0.1c0,0-0.1,0-0.1,0.1
	C5.1,32.4,5,32,5,31.5C5,29.2,6.8,27.4,8.3,26.2L8.3,26.2z M45.8,45c-2.8,5.2-5,6.4-10.6,8.6c-3.5,1.4-10.5,1.4-14,0
	c-5.5-2.1-7.8-3.4-10.6-8.7l-3.8-9.4l0,0l-0.4-0.9c2.5-1.4,6.5,2.4,7.4,3.2l0.7,0.7l0.7-0.7c2.2-2.2,5.9-0.1,7.9,1.8l0.7,0.7
	l0.7-0.7c2.1-2.1,5.6-2.1,7.8,0l0.7,0.7l0.7-0.7c1.8-1.8,5-3.7,7.3-2.2c0.2,0.1,0.4,0.3,0.5,0.4l0.7,0.7l0.7-0.7h0
	c0.1-0.1,0.3-0.3,0.5-0.5c0,0,0,0,0.1-0.1c0.1-0.1,0.2-0.2,0.3-0.3c0.1,0,0.1-0.1,0.1-0.1c0.1-0.1,0.2-0.1,0.3-0.2l0.2-0.2
	c0.1-0.1,0.2-0.1,0.2-0.2l0.2-0.2l0.2-0.2c0.1-0.1,0.2-0.1,0.3-0.2c0.1-0.1,0.2-0.1,0.3-0.2c0.1-0.1,0.2-0.1,0.3-0.2
	s0.2-0.1,0.3-0.2s0.2-0.1,0.3-0.2s0.2-0.1,0.3-0.1s0.2-0.1,0.3-0.1s0.2-0.1,0.3-0.1c0.1,0,0.2-0.1,0.3-0.1c0.1,0,0.2-0.1,0.3-0.1
	s0.2-0.1,0.3-0.1s0.2,0,0.3-0.1c0.1,0,0.2,0,0.3,0c0.1,0,0.2,0,0.3,0c0.1,0,0.1,0,0.2,0c0.4,0,0.7,0.1,1,0.3L45.8,45z"/>
</svg>
