<?xml version="1.0" encoding="utf-8"?>
<!-- Generator: Adobe Illustrator 24.0.0, SVG Export Plug-In . SVG Version: 6.00 Build 0)  -->
<svg version="1.1" id="Слой_1" xmlns="http://www.w3.org/2000/svg" xmlns:xlink="http://www.w3.org/1999/xlink" x="0px" y="0px"
	 viewBox="0 0 58.6 52.8" style="enable-background:new 0 0 58.6 52.8;" xml:space="preserve">
<style type="text/css">
	.st0{fill-rule:evenodd;clip-rule:evenodd;fill:#FFC243;}
</style>
<path id="Forma_1" class="st0" d="M36.6,18.1c0.6,0,1,0.4,1,1s-0.4,1-1,1s-1-0.4-1-1S36,18.1,36.6,18.1z M41.8,15.4c0.6,0,1,0.4,1,1
	s-0.4,1-1,1s-1-0.4-1-1S41.3,15.4,41.8,15.4z M40.5,17.9c0.6,0,1,0.4,1,1s-0.4,1-1,1s-1-0.4-1-1S40,17.9,40.5,17.9z M14.3,13.3
	c0.6,0,1,0.4,1,1s-0.4,1-1,1s-1-0.4-1-1S13.7,13.3,14.3,13.3z M20.1,12c0.6,0,1,0.4,1,1s-0.4,1-1,1s-1-0.4-1-1S19.6,12,20.1,12z
	 M16.9,11c0.6,0,1,0.4,1,1s-0.4,1-1,1s-1-0.4-1-1S16.3,11,16.9,11z M12,29.3c0.6,0,1,0.4,1,1s-0.4,1-1,1s-1-0.4-1-1
	S11.5,29.3,12,29.3L12,29.3z M15.3,27c0.6,0,1,0.4,1,1s-0.4,1-1,1s-1-0.4-1-1S14.7,27,15.3,27L15.3,27z M16.9,29c0.6,0,1,0.4,1,1
	c0,0.6-0.4,1-1,1c-0.6,0-1-0.4-1-1c0,0,0,0,0,0C15.9,29.4,16.3,29,16.9,29C16.9,29,16.9,29,16.9,29z M26.2,9.1c0.2,0,0.4,0,0.5,0.1
	C26.9,9.2,27,9.3,27,9.5c0.3,1.4,1.7,2.3,3.2,2c0.2,0,0.4,0,0.5,0.1c0.1,0.1,0.2,0.2,0.3,0.4c0.1,0.7,0.6,1.3,1.2,1.6
	c0.4,0.3,0.9,0.4,1.4,0.4c0.2,0,0.4,0,0.6-0.1c0.5-0.1,0.9-0.6,0.8-1.2c0,0,0,0,0,0c-0.1-0.5-0.6-0.9-1.2-0.8c-0.2,0-0.4,0-0.5-0.1
	c-0.1-0.1-0.2-0.2-0.3-0.4c-0.1-0.7-0.6-1.3-1.2-1.6c-0.6-0.4-1.3-0.5-2-0.4c-0.3,0.1-0.7-0.1-0.8-0.4c-0.1-0.7-0.6-1.3-1.2-1.6
	c-0.6-0.4-1.3-0.5-2-0.3c-0.5,0.1-0.9,0.6-0.8,1.2C25.2,8.8,25.7,9.2,26.2,9.1L26.2,9.1z M30.2,23.2c-0.6,0-1,0.5-1,1c0,0,0,0,0,0
	c0,0.1,0,0.2-0.1,0.2c-1.2,0-2.1,1-2.1,2.2c0,0,0,0,0,0c0,0.1,0,0.2-0.1,0.2c-0.6,0-1.1,0.3-1.5,0.7c-0.4,0.4-0.6,1-0.6,1.5
	c0,0.5,0.5,1,1,1h0c0.6,0,1-0.5,1-1c0,0,0,0,0,0c0-0.1,0-0.2,0.1-0.2c1.2,0,2.1-1,2.1-2.2c0,0,0,0,0,0c0-0.1,0-0.2,0.1-0.2
	c1.2,0,2.1-1,2.1-2.2c0,0,0,0,0,0C31.2,23.6,30.8,23.2,30.2,23.2z M23,19.5c-0.1,0.3-0.5,0.5-0.8,0.4c-0.6-0.3-1.4-0.3-2,0
	c-0.6,0.3-1.2,0.8-1.4,1.4c-0.2,0.5,0,1.1,0.5,1.3c0,0,0,0,0,0c0.1,0.1,0.3,0.1,0.4,0.1c0.4,0,0.8-0.2,0.9-0.6
	c0.1-0.2,0.2-0.3,0.4-0.4c0.1-0.1,0.3-0.1,0.4,0c1.3,0.6,2.9-0.1,3.5-1.4c0.1-0.2,0.2-0.3,0.4-0.4c0.1-0.1,0.3-0.1,0.4,0
	c0.6,0.3,1.4,0.3,2,0c0.6-0.3,1.2-0.8,1.4-1.4c0.2-0.5,0-1.1-0.5-1.3c0,0,0,0,0,0c-0.5-0.2-1.1,0-1.3,0.5c-0.1,0.2-0.2,0.3-0.4,0.4
	c-0.1,0.1-0.3,0.1-0.4,0c-0.6-0.3-1.4-0.3-2,0C23.8,18.4,23.3,18.9,23,19.5L23,19.5z M57.7,16.1C57.7,16.1,57.6,16.1,57.7,16.1
	c-0.3-1.1-0.6-2.1-1.1-3.2c0,0,0-0.1-0.1-0.1c-2.3-5-6.6-8.2-11.8-10.1c0,0-0.1,0-0.1-0.1c0,0,0,0-0.1,0c-2.3-0.8-4.6-1.4-7-1.8
	c0,0,0,0,0,0c-0.1,0-0.3-0.1-0.4-0.1c-5-0.7-10-1-15.1-0.6h0c0,0,0,0-0.1,0c-3.7,0.2-7.5,0.6-11.2,1.2c-2.5,0.4-4.5,2.5-4.8,5v0
	c0,0.1,0,0.1,0,0.1L4.5,25.6c-1.8,1.2-5.7,4.3-4.2,9.4c0.5,1.8,1.4,2.9,2.5,3.2c0.3,0,0.5,0.3,0.5,0.6c-0.6,3.2-0.9,6.4-1.1,9.7
	c-0.1,1.2,0.4,2.4,1.3,3.2c1.1,0.9,2.4,1.3,3.8,1.3c0.3,0,0.5,0,0.6,0c0.4,0,3.5-0.3,4.5-2.4c0.6-1.3,0.3-2.9-1-4.7L27.9,39h0
	c0.2,0.1,0.4,0.2,0.6,0.3c0,0,0.1,0,0.1,0c0.3,0.1,0.5,0.1,0.8,0.1c0.2,0,0.4,0,0.7,0c0,0,0.1,0,0.1,0c0.2,0,0.4,0,0.6-0.1l0.1,0
	c0.2,0,0.4-0.1,0.6-0.2c0,0,0,0,0,0c0.7-0.2,1.3-0.6,1.8-1.2c0.2-0.2,0.3-0.4,0.5-0.7c0,0,0,0,0,0c0.1-0.2,0.2-0.5,0.3-0.8
	c0,0,0,0,0,0L53,28.9c2-0.8,3.7-2.3,4.6-4.2C58.8,22.3,58.8,19.4,57.7,16.1L57.7,16.1z M55.1,18.1c-0.3-0.8-0.7-1.5-1.1-2.3l1.2-1
	c0.3,0.8,0.5,1.6,0.7,2.5c0.2,0.9,0,1.7-0.4,2.5C55.5,19.3,55.4,18.7,55.1,18.1L55.1,18.1z M54.4,13L53,14.2
	c-0.8-1.2-1.6-2.2-2.6-3.2l1.2-1.8C52.7,10.3,53.6,11.6,54.4,13L54.4,13z M44.2,6.7l0.7-1.8c1.9,0.7,3.6,1.7,5.2,3l-1.2,1.7
	C47.4,8.4,45.9,7.5,44.2,6.7L44.2,6.7z M37.3,4.5l0.6-1.7c1.7,0.3,3.5,0.8,5.1,1.3l-0.6,1.8C40.7,5.3,39,4.9,37.3,4.5L37.3,4.5z
	 M30.1,3.7V2C32,2.1,34,2.3,35.9,2.5l-0.6,1.7C33.6,3.9,31.8,3.8,30.1,3.7L30.1,3.7z M26.8,1.9c0.4,0,0.8,0,1.2,0v1.7
	c-1.6,0-3.2,0-5,0.1V2C24.3,2,25.6,1.9,26.8,1.9z M15,4.4V2.7c1.8-0.2,3.9-0.4,6-0.6v1.7C19.2,3.9,17.2,4.1,15,4.4z M11.1,3.2
	C11.7,3.1,12.4,3.1,13,3v1.6C11.5,4.8,10,5,8.4,5.3C8.9,4.2,9.9,3.4,11.1,3.2L11.1,3.2z M10.6,49.5c-0.4,0.9-2.2,1.3-2.9,1.3
	c-1,0.1-2-0.1-2.9-0.7c-0.4-0.4-0.7-1.1-0.6-1.7c0.2-3.2,0.5-6.3,1.1-9.4c0.2-1.3-0.7-2.5-2-2.8c-0.6-0.4-1-1.1-1.1-1.8
	C1.1,30.3,4.5,27.9,6,27l0.5-0.3L8,7.4c4.7-0.8,9.3-1.3,14-1.6h0c0,0,0,0,0.1,0c4.5-0.3,9-0.2,13.5,0.4c0,0,0,0,0.1,0
	c0.1,0,0.2,0.1,0.3,0.1c0,0,0.1,0,0.1,0c2.2,0.3,4.3,0.9,6.3,1.7c0.1,0.1,0.2,0.1,0.2,0.1c0.1,0,0.1,0,0.2,0c2,0.8,3.8,2,5.4,3.4
	c0.1,0.1,0.2,0.2,0.3,0.3c0,0,0,0,0.1,0c2,2,3.6,4.4,4.8,7.1c0.9,1.9-1.7,3.4-2,3.5l-19,7.9l-0.1,0.5c-0.1,0.5-0.1,1.1,0,1.6
	c0.3,1,0.3,2,0.2,2.9l0,0.1c-0.1,0.7-0.5,1.3-1.1,1.6c-0.5,0.2-1,0.3-1.5,0.3h-0.3c-0.2,0-0.3,0-0.5-0.1c0,0,0,0,0,0
	c-0.1-0.1-0.3-0.1-0.4-0.2l-0.1-0.1c-0.1,0-0.1-0.1-0.2-0.2c-0.6-0.9-0.8-2-0.6-3.1l0.2-1.7l-16.3,6.7c-1.9,0.7-3,1.7-3.4,3
	c-0.4,1.4,0,3,1.4,4.9C10.3,47.6,11,48.7,10.6,49.5L10.6,49.5z M10.3,42.4c0.2-0.7,0.9-1.2,2.2-1.7l13.3-5.5c0,0.8,0.3,1.6,0.6,2.3
	l-15.9,6.4C10.2,43.4,10.2,42.9,10.3,42.4z M55.9,23.8c-0.7,1.5-2,2.6-3.5,3.2l-17.9,7.2c0-0.7-0.1-1.5-0.3-2.2c0-0.1,0-0.2,0-0.3
	l20.3-8.4c0.8-0.3,1.4-0.8,2-1.4C56.3,22.6,56.2,23.2,55.9,23.8L55.9,23.8z M14.1,34.1c4.2,0,7.7-2.7,7.7-6.1
	c0.1-1.4-0.6-2.7-1.8-3.4c-0.9-0.4-1.9-0.5-2.8-0.4c-1.6,0-9.7,2-9.7,5.8C7.4,34.1,10.5,34.1,14.1,34.1L14.1,34.1z M17.1,26.2
	L17.1,26.2c0.7,0,1.3,0,2,0.3c0.2,0.1,0.7,0.3,0.7,1.6c0,2.2-2.6,4.1-5.7,4.1c-4.7,0-4.7-0.4-4.7-2.1C9.4,28.2,15.5,26.2,17.1,26.2
	L17.1,26.2z M16.4,17.9c4.2,0,7.7-2.7,7.7-6.1c0.1-1.4-0.6-2.7-1.8-3.4C21.3,8.1,20.4,8,19.4,8h0c-1.6,0-9.7,2-9.7,5.8
	C9.7,17.9,12.8,17.9,16.4,17.9L16.4,17.9z M19.4,10L19.4,10c0.7,0,1.3,0,2,0.3c0.2,0.1,0.7,0.3,0.7,1.6c0,2.2-2.6,4.1-5.7,4.1
	c-4.7,0-4.7-0.4-4.7-2.1C11.7,12.1,17.9,10,19.4,10L19.4,10z M32.1,18.8c0,4.1,3.1,4.1,6.7,4.1c4.2,0,7.7-2.7,7.7-6.1
	c0.1-1.4-0.6-2.7-1.8-3.4c-0.9-0.4-1.9-0.5-2.8-0.4h0C40.2,13,32.1,15,32.1,18.8L32.1,18.8z M41.8,15L41.8,15c0.7,0,1.3,0,2,0.3
	c0.2,0.1,0.7,0.3,0.7,1.6c0,2.2-2.6,4.1-5.7,4.1c-4.7,0-4.7-0.4-4.7-2.1C34.1,17,40.2,15,41.8,15L41.8,15z"/>
</svg>
