<?xml version="1.0" encoding="utf-8"?>
<!-- Generator: Adobe Illustrator 24.0.0, SVG Export Plug-In . SVG Version: 6.00 Build 0)  -->
<svg version="1.1" id="Слой_1" xmlns="http://www.w3.org/2000/svg" xmlns:xlink="http://www.w3.org/1999/xlink" x="0px" y="0px"
	 viewBox="0 0 23.2 15.8" style="enable-background:new 0 0 23.2 15.8;" xml:space="preserve">
<style type="text/css">
	.st0{fill-rule:evenodd;clip-rule:evenodd;fill:#535353;}
</style>
<path class="st0" d="M18.5,2.6C18.5,2.6,18.5,2.6,18.5,2.6c-0.9-0.8-2-1.2-3.1-1.1l0-0.1c0,0,0,0,0,0c0.7-0.1,1.3-0.3,1.9-0.7
	c0.1-0.1,0-0.3-0.1-0.3c0,0-0.1,0-0.1,0c-0.5,0-1,0.2-1.5,0.3c0.6-0.3,0.8-0.6,0.7-0.7c-0.7,0.1-1.3,0.3-1.8,0.8
	c0.2-0.2,0.3-0.4,0.3-0.6c-0.3,0.2-0.5,0.4-0.8,0.6c-0.4,0.4-0.8,0.9-1.1,1.4l0,0c-0.7,1-1.2,2.2-1.6,3.4l-0.1,0.1l0,0
	c-0.5-0.5-1-1-1.6-1.3C8.6,3.9,7.7,3.4,6.8,3.1c-1.1-0.5-2.2-1-3.4-1.3c0,1.2,0.7,2.3,1.9,2.8v0c-0.4,0-0.9,0-1.3,0.2
	c0.1,1.1,0.9,1.9,2.5,2.3l0,0C5.9,7,5.3,7.2,4.9,7.7c0.6,1,1.7,1.5,2.8,1.4C7.5,9.1,7.3,9.3,7.1,9.5C6.9,9.7,6.8,10,6.9,10.3
	c0.3,0.5,1,0.8,1.6,0.7l0,0l0,0c0,0,0,0,0,0c-1.3,1.2-3,1.9-4.8,1.7l0,0C2.3,12.7,1,12.2,0,11.3c1.3,1.8,3.2,3.1,5.3,3.9
	c2.4,0.8,5,0.8,7.5,0.2h0c2.4-0.6,4.6-2,6.2-4c0.7-0.9,1.2-1.9,1.5-3c1,0.1,2-0.2,2.7-1l0,0c-0.8,0.1-1.7,0.1-2.5-0.1V7h0
	c1.3-0.1,2.1-0.5,2.4-1.2c-0.9,0.3-1.9,0.3-2.8,0C20.1,4.6,19.5,3.4,18.5,2.6z"/>
</svg>
