<?xml version="1.0" encoding="utf-8"?>
<!-- Generator: Adobe Illustrator 24.0.2, SVG Export Plug-In . SVG Version: 6.00 Build 0)  -->
<svg version="1.1" id="Layer_1" xmlns="http://www.w3.org/2000/svg" xmlns:xlink="http://www.w3.org/1999/xlink" x="0px" y="0px"
	 viewBox="0 0 68.7 79.5" style="enable-background:new 0 0 68.7 79.5;" xml:space="preserve">
<style type="text/css">
	.st0{fill:#FFFFFF;}
</style>
<path class="st0" d="M24.4,77.9c4,1,8.2,1.6,12.6,1.6c4.7,0,12.3-1.5,12.3-1.5l-0.1-3.6c0,0,0.1-7,0.1-13.7c0-4.7-1.6-7.7-3.4-9.3
	C57,50.2,68.7,46,68.7,26.8c0-5.5-1.9-9.9-5.1-13.4C64.1,12.1,65.8,7,63,0.1c0,0-4.2-1.3-13.7,5.1c-4-1.1-8.3-1.7-12.5-1.7
	c-4.3,0-8.5,0.6-12.5,1.7c-9.6-6.5-13.8-5.1-13.8-5.1c-2.7,6.9-1,12-0.5,13.2c-3.2,3.5-5.1,8-5.1,13.4c0,19.2,11.7,23.5,22.8,24.7
	c-1.4,1.3-2.7,3.5-3.2,6.7c-2.8,1.3-10.1,3.5-14.6-4.2c0,0-2.6-4.8-7.7-5.2c0,0-4.9-0.1-0.3,3c0,0,3.3,1.5,5.6,7.3
	c0,0,2.9,9.7,16.8,6.7c0,4.2,0.1,7.3,0.1,8.5"/>
</svg>
