<?xml version="1.0" encoding="utf-8"?>
<!-- Generator: Adobe Illustrator 24.0.2, SVG Export Plug-In . SVG Version: 6.00 Build 0)  -->
<svg version="1.1" id="Layer_1" xmlns="http://www.w3.org/2000/svg" xmlns:xlink="http://www.w3.org/1999/xlink" x="0px" y="0px"
	 viewBox="0 0 98.6 98.6" style="enable-background:new 0 0 98.6 98.6;" xml:space="preserve">
<style type="text/css">
	.st0{fill:#BB001B;}
</style>
<path class="st0" d="M49.3,0C22.1,0,0,22.1,0,49.3s22.1,49.3,49.3,49.3s49.3-22.1,49.3-49.3S76.5,0,49.3,0z M78.8,28.9
	C78.8,28.9,78.9,28.9,78.8,28.9L51.4,56.4c-0.9,0.9-2.5,0.9-3.5,0L20.4,28.9H78.8z M18.5,30.7L18.5,30.7l18.7,18.7L18.5,68.1V30.7
	L18.5,30.7z M20.3,70.3c-0.1,0-0.2,0-0.2,0l19-19l7,7c1,1,2.2,1.5,3.6,1.5c1.4,0,2.6-0.5,3.6-1.5l6.8-6.8l18.8,18.8H20.3L20.3,70.3z
	 M80.7,68.4L61.9,49.6l18.8-18.8V68.4z"/>
</svg>
