<?xml version="1.0" encoding="utf-8"?>
<!-- Generator: Adobe Illustrator 24.0.2, SVG Export Plug-In . SVG Version: 6.00 Build 0)  -->
<svg version="1.1" id="Layer_1" xmlns="http://www.w3.org/2000/svg" xmlns:xlink="http://www.w3.org/1999/xlink" x="0px" y="0px"
	 viewBox="0 0 98.6 98.6" style="enable-background:new 0 0 98.6 98.6;" xml:space="preserve">
<style type="text/css">
	.st0{fill:#FFFFFF;}
</style>
<g>
	<path class="st0" d="M53.9,46.2l-6.2-1.4c-2.4-0.5-5.1-1.2-5.1-3.5c0-2.2,1.9-3.8,5.3-3.8c6.9,0,6.3,4.8,9.7,4.8
		c1.8,0,3.4-1.1,3.4-2.9c0-4.3-6.8-7.5-12.6-7.5c-6.3,0-13,2.7-13,9.8c0,3.4,1.2,7.1,8,8.7l8.4,2.1c2.5,0.6,3.2,2,3.2,3.3
		c0,2.1-2.1,4.2-6,4.2c-7.5,0-6.5-5.8-10.5-5.8c-1.8,0-3.1,1.2-3.1,3c0,3.5,4.2,8.1,13.6,8.1c8.9,0,13.4-4.3,13.4-10.1
		C62.4,51.6,60.7,47.7,53.9,46.2z"/>
	<path class="st0" d="M49.3,0C22.1,0,0,22.1,0,49.3s22.1,49.3,49.3,49.3s49.3-22.1,49.3-49.3S76.5,0,49.3,0z M72.4,72.7
		c-3,3-6.9,4.6-11.1,4.6c-2.7,0-5.4-0.7-7.7-2c-1.5,0.3-3.1,0.4-4.6,0.4c-3.6,0-7-0.7-10.3-2.1c-3.2-1.3-6-3.2-8.4-5.7
		c-2.4-2.4-4.3-5.3-5.7-8.4c-1.4-3.3-2.1-6.7-2.1-10.3c0-1.5,0.1-3.1,0.4-4.6c-1.3-2.3-2-4.9-2-7.6c0-4.2,1.6-8.1,4.6-11.1
		c3-3,6.9-4.6,11.1-4.6c2.6,0,5.1,0.6,7.3,1.8c0,0,0,0,0,0c1.6-0.3,3.3-0.5,5-0.5c3.6,0,7,0.7,10.3,2.1c3.1,1.3,6,3.2,8.4,5.7
		c2.4,2.4,4.3,5.3,5.7,8.4c1.4,3.3,2.1,6.7,2.1,10.3c0,1.6-0.2,3.2-0.4,4.8c1.3,2.3,2,4.9,2,7.6C77,65.8,75.3,69.8,72.4,72.7z"/>
</g>
</svg>
