<?xml version="1.0" encoding="utf-8"?>
<!-- Generator: Adobe Illustrator 24.0.2, SVG Export Plug-In . SVG Version: 6.00 Build 0)  -->
<svg version="1.1" id="Слой_1" xmlns="http://www.w3.org/2000/svg" xmlns:xlink="http://www.w3.org/1999/xlink" x="0px" y="0px"
	 viewBox="0 0 98.6 98.6" style="enable-background:new 0 0 98.6 98.6;" xml:space="preserve">
<style type="text/css">
	.st0{fill:#0088CC;}
</style>
<g id="Layer_9">
	<g>
		<path class="st0" d="M49.3,0C22.1,0,0,22.1,0,49.3s22.1,49.3,49.3,49.3s49.3-22.1,49.3-49.3S76.5,0,49.3,0z M77.1,22.9L66,74.8
			c-0.2,1-1.4,1.5-2.2,1l-17-11.3l-8.9,8.3c-0.8,0.7-2,0.3-2.4-0.6l-5.8-18.3l-15.6-6.4c-1.2-0.5-1.2-2.5,0-2.9l61-23.2
			C76.2,20.8,77.3,21.8,77.1,22.9z"/>
		<polygon class="st0" points="37.4,66.7 38.3,57.3 65.9,30.4 32.6,52.2 		"/>
	</g>
</g>
</svg>
